G04 #@! TF.GenerationSoftware,KiCad,Pcbnew,(5.1.5)-3*
G04 #@! TF.CreationDate,2020-04-11T10:21:21+07:00*
G04 #@! TF.ProjectId,arisu,61726973-752e-46b6-9963-61645f706362,1.1*
G04 #@! TF.SameCoordinates,Original*
G04 #@! TF.FileFunction,Other,User*
%FSLAX46Y46*%
G04 Gerber Fmt 4.6, Leading zero omitted, Abs format (unit mm)*
G04 Created by KiCad (PCBNEW (5.1.5)-3) date 2020-04-11 10:21:21*
%MOMM*%
%LPD*%
G04 APERTURE LIST*
%ADD10C,0.050000*%
G04 APERTURE END LIST*
D10*
X243510266Y-120608720D02*
G75*
G03X243510266Y-120608720I-2450000J0D01*
G01*
X347899949Y-110157503D02*
G75*
G03X347899949Y-110157503I-2450000J0D01*
G01*
X40740000Y-45320000D02*
X40740000Y-32120000D01*
X53940000Y-45320000D02*
X40740000Y-45320000D01*
X53940000Y-32120000D02*
X53940000Y-45320000D01*
X40740000Y-32120000D02*
X53940000Y-32120000D01*
X41340000Y-51170000D02*
X54540000Y-51170000D01*
X54540000Y-51170000D02*
X54540000Y-64370000D01*
X54540000Y-64370000D02*
X41340000Y-64370000D01*
X41340000Y-64370000D02*
X41340000Y-51170000D01*
X39656250Y-70220000D02*
X52856250Y-70220000D01*
X52856250Y-70220000D02*
X52856250Y-83420000D01*
X52856250Y-83420000D02*
X39656250Y-83420000D01*
X39656250Y-83420000D02*
X39656250Y-70220000D01*
X40243750Y-89270000D02*
X53443750Y-89270000D01*
X53443750Y-89270000D02*
X53443750Y-102470000D01*
X53443750Y-102470000D02*
X40243750Y-102470000D01*
X40243750Y-102470000D02*
X40243750Y-89270000D01*
X33110000Y-108320000D02*
X46310000Y-108320000D01*
X46310000Y-108320000D02*
X46310000Y-121520000D01*
X46310000Y-121520000D02*
X33110000Y-121520000D01*
X33110000Y-121520000D02*
X33110000Y-108320000D01*
X59790000Y-45320000D02*
X59790000Y-32120000D01*
X72990000Y-45320000D02*
X59790000Y-45320000D01*
X72990000Y-32120000D02*
X72990000Y-45320000D01*
X59790000Y-32120000D02*
X72990000Y-32120000D01*
X65150000Y-64370000D02*
X65150000Y-51170000D01*
X78350000Y-64370000D02*
X65150000Y-64370000D01*
X78350000Y-51170000D02*
X78350000Y-64370000D01*
X65150000Y-51170000D02*
X78350000Y-51170000D01*
X65850000Y-83420000D02*
X65850000Y-70220000D01*
X79050000Y-83420000D02*
X65850000Y-83420000D01*
X79050000Y-70220000D02*
X79050000Y-83420000D01*
X65850000Y-70220000D02*
X79050000Y-70220000D01*
X71200000Y-102470000D02*
X71200000Y-89270000D01*
X84400000Y-102470000D02*
X71200000Y-102470000D01*
X84400000Y-89270000D02*
X84400000Y-102470000D01*
X71200000Y-89270000D02*
X84400000Y-89270000D01*
X78840000Y-43819615D02*
X78840000Y-30619615D01*
X92040000Y-43819615D02*
X78840000Y-43819615D01*
X92040000Y-30619615D02*
X92040000Y-43819615D01*
X78840000Y-30619615D02*
X92040000Y-30619615D01*
X84424357Y-63177396D02*
X87168791Y-50265847D01*
X97335905Y-65921830D02*
X84424357Y-63177396D01*
X100080339Y-53010282D02*
X97335905Y-65921830D01*
X87168791Y-50265847D02*
X100080339Y-53010282D01*
X85122024Y-82801289D02*
X87866458Y-69889740D01*
X98033572Y-85545723D02*
X85122024Y-82801289D01*
X100778006Y-72634175D02*
X98033572Y-85545723D01*
X87866458Y-69889740D02*
X100778006Y-72634175D01*
X90478106Y-103415358D02*
X93222540Y-90503809D01*
X103389654Y-106159792D02*
X90478106Y-103415358D01*
X106134088Y-93248244D02*
X103389654Y-106159792D01*
X93222540Y-90503809D02*
X106134088Y-93248244D01*
X93920241Y-110127698D02*
X106831789Y-112872132D01*
X106831789Y-112872132D02*
X104087355Y-125783681D01*
X104087355Y-125783681D02*
X91175807Y-123039246D01*
X91175807Y-123039246D02*
X93920241Y-110127698D01*
X97702015Y-46524053D02*
X100446449Y-33612504D01*
X110613563Y-49268487D02*
X97702015Y-46524053D01*
X113357997Y-36356939D02*
X110613563Y-49268487D01*
X100446449Y-33612504D02*
X113357997Y-36356939D01*
X103058067Y-67138122D02*
X105802501Y-54226573D01*
X115969615Y-69882556D02*
X103058067Y-67138122D01*
X118714049Y-56971008D02*
X115969615Y-69882556D01*
X105802501Y-54226573D02*
X118714049Y-56971008D01*
X103755734Y-86762016D02*
X106500168Y-73850467D01*
X116667282Y-89506450D02*
X103755734Y-86762016D01*
X119411716Y-76594902D02*
X116667282Y-89506450D01*
X106500168Y-73850467D02*
X119411716Y-76594902D01*
X109111816Y-107376084D02*
X111856250Y-94464535D01*
X122023364Y-110120518D02*
X109111816Y-107376084D01*
X124767798Y-97208970D02*
X122023364Y-110120518D01*
X111856250Y-94464535D02*
X124767798Y-97208970D01*
X116335726Y-50484771D02*
X119080160Y-37573222D01*
X129247274Y-53229205D02*
X116335726Y-50484771D01*
X131991708Y-40317657D02*
X129247274Y-53229205D01*
X119080160Y-37573222D02*
X131991708Y-40317657D01*
X121691777Y-71098849D02*
X124436211Y-58187300D01*
X134603325Y-73843283D02*
X121691777Y-71098849D01*
X137347759Y-60931735D02*
X134603325Y-73843283D01*
X124436211Y-58187300D02*
X137347759Y-60931735D01*
X122389444Y-90722743D02*
X125133878Y-77811194D01*
X135300992Y-93467177D02*
X122389444Y-90722743D01*
X138045426Y-80555629D02*
X135300992Y-93467177D01*
X125133878Y-77811194D02*
X138045426Y-80555629D01*
X127745525Y-111336811D02*
X130489959Y-98425262D01*
X140657073Y-114081245D02*
X127745525Y-111336811D01*
X143401507Y-101169697D02*
X140657073Y-114081245D01*
X130489959Y-98425262D02*
X143401507Y-101169697D01*
X126529232Y-117058950D02*
X139440780Y-119803385D01*
X139440780Y-119803385D02*
X136696346Y-132714933D01*
X136696346Y-132714933D02*
X123784798Y-129970499D01*
X123784798Y-129970499D02*
X126529232Y-117058950D01*
X134969438Y-54445489D02*
X137713872Y-41533940D01*
X147880986Y-57189923D02*
X134969438Y-54445489D01*
X150625420Y-44278375D02*
X147880986Y-57189923D01*
X137713872Y-41533940D02*
X150625420Y-44278375D01*
X140325487Y-75059576D02*
X143069921Y-62148027D01*
X153237035Y-77804010D02*
X140325487Y-75059576D01*
X155981469Y-64892462D02*
X153237035Y-77804010D01*
X143069921Y-62148027D02*
X155981469Y-64892462D01*
X141023154Y-94683470D02*
X143767588Y-81771921D01*
X153934702Y-97427904D02*
X141023154Y-94683470D01*
X156679136Y-84516356D02*
X153934702Y-97427904D01*
X143767588Y-81771921D02*
X156679136Y-84516356D01*
X146379235Y-115297538D02*
X149123669Y-102385989D01*
X159290783Y-118041972D02*
X146379235Y-115297538D01*
X162035217Y-105130424D02*
X159290783Y-118041972D01*
X149123669Y-102385989D02*
X162035217Y-105130424D01*
X151735372Y-135911567D02*
X154479806Y-123000018D01*
X164646920Y-138656001D02*
X151735372Y-135911567D01*
X167391354Y-125744453D02*
X164646920Y-138656001D01*
X154479806Y-123000018D02*
X167391354Y-125744453D01*
X153603150Y-58406206D02*
X156347584Y-45494657D01*
X166514698Y-61150640D02*
X153603150Y-58406206D01*
X169259132Y-48239092D02*
X166514698Y-61150640D01*
X156347584Y-45494657D02*
X169259132Y-48239092D01*
X179149081Y-81764015D02*
X176404646Y-68852467D01*
X192060629Y-79019581D02*
X179149081Y-81764015D01*
X189316195Y-66108033D02*
X192060629Y-79019581D01*
X176404646Y-68852467D02*
X189316195Y-66108033D01*
X187768202Y-99407567D02*
X185023767Y-86496019D01*
X200679750Y-96663133D02*
X187768202Y-99407567D01*
X197935316Y-83751585D02*
X200679750Y-96663133D01*
X185023767Y-86496019D02*
X197935316Y-83751585D01*
X196387323Y-117051119D02*
X193642888Y-104139571D01*
X209298871Y-114306685D02*
X196387323Y-117051119D01*
X206554437Y-101395137D02*
X209298871Y-114306685D01*
X193642888Y-104139571D02*
X206554437Y-101395137D01*
X184505308Y-61149916D02*
X181760873Y-48238368D01*
X197416856Y-58405482D02*
X184505308Y-61149916D01*
X194672422Y-45493934D02*
X197416856Y-58405482D01*
X181760873Y-48238368D02*
X194672422Y-45493934D01*
X197782792Y-77803297D02*
X195038357Y-64891749D01*
X210694340Y-75058863D02*
X197782792Y-77803297D01*
X207949906Y-62147315D02*
X210694340Y-75058863D01*
X195038357Y-64891749D02*
X207949906Y-62147315D01*
X206401913Y-95446849D02*
X203657478Y-82535301D01*
X219313461Y-92702415D02*
X206401913Y-95446849D01*
X216569027Y-79790867D02*
X219313461Y-92702415D01*
X203657478Y-82535301D02*
X216569027Y-79790867D01*
X215021035Y-113090401D02*
X212276600Y-100178853D01*
X227932583Y-110345967D02*
X215021035Y-113090401D01*
X225188149Y-97434419D02*
X227932583Y-110345967D01*
X212276600Y-100178853D02*
X225188149Y-97434419D01*
X204591274Y-121287981D02*
X217502823Y-118543547D01*
X217502823Y-118543547D02*
X220247257Y-131455095D01*
X220247257Y-131455095D02*
X207335710Y-134199529D01*
X207335710Y-134199529D02*
X204591274Y-121287981D01*
X203139020Y-57189198D02*
X200394585Y-44277650D01*
X216050568Y-54444764D02*
X203139020Y-57189198D01*
X213306134Y-41533216D02*
X216050568Y-54444764D01*
X200394585Y-44277650D02*
X213306134Y-41533216D01*
X216416504Y-73842580D02*
X213672069Y-60931032D01*
X229328052Y-71098146D02*
X216416504Y-73842580D01*
X226583618Y-58186598D02*
X229328052Y-71098146D01*
X213672069Y-60931032D02*
X226583618Y-58186598D01*
X225035625Y-91486132D02*
X222291190Y-78574584D01*
X237947173Y-88741698D02*
X225035625Y-91486132D01*
X235202739Y-75830150D02*
X237947173Y-88741698D01*
X222291190Y-78574584D02*
X235202739Y-75830150D01*
X233654746Y-109129684D02*
X230910311Y-96218136D01*
X246566294Y-106385250D02*
X233654746Y-109129684D01*
X243821860Y-93473702D02*
X246566294Y-106385250D01*
X230910311Y-96218136D02*
X243821860Y-93473702D01*
X221772732Y-53228481D02*
X219028297Y-40316933D01*
X234684280Y-50484047D02*
X221772732Y-53228481D01*
X231939846Y-37572499D02*
X234684280Y-50484047D01*
X219028297Y-40316933D02*
X231939846Y-37572499D01*
X235050216Y-69881862D02*
X232305781Y-56970314D01*
X247961764Y-67137428D02*
X235050216Y-69881862D01*
X245217330Y-54225880D02*
X247961764Y-67137428D01*
X232305781Y-56970314D02*
X245217330Y-54225880D01*
X243669337Y-87525414D02*
X240924902Y-74613866D01*
X256580885Y-84780980D02*
X243669337Y-87525414D01*
X253836451Y-71869432D02*
X256580885Y-84780980D01*
X240924902Y-74613866D02*
X253836451Y-71869432D01*
X252288458Y-105168966D02*
X249544023Y-92257418D01*
X265200006Y-102424532D02*
X252288458Y-105168966D01*
X262455572Y-89512984D02*
X265200006Y-102424532D01*
X249544023Y-92257418D02*
X262455572Y-89512984D01*
X244187910Y-112871469D02*
X257099459Y-110127034D01*
X257099459Y-110127034D02*
X259843893Y-123038583D01*
X259843893Y-123038583D02*
X246932345Y-125783017D01*
X246932345Y-125783017D02*
X244187910Y-112871469D01*
X240406443Y-49267763D02*
X237662008Y-36356215D01*
X253317991Y-46523329D02*
X240406443Y-49267763D01*
X250573557Y-33611781D02*
X253317991Y-46523329D01*
X237662008Y-36356215D02*
X250573557Y-33611781D01*
X253683928Y-65921144D02*
X250939493Y-53009596D01*
X266595476Y-63176710D02*
X253683928Y-65921144D01*
X263851042Y-50265162D02*
X266595476Y-63176710D01*
X250939493Y-53009596D02*
X263851042Y-50265162D01*
X262650000Y-83420000D02*
X262650000Y-70220000D01*
X275850000Y-83420000D02*
X262650000Y-83420000D01*
X275850000Y-70220000D02*
X275850000Y-83420000D01*
X262650000Y-70220000D02*
X275850000Y-70220000D01*
X272175019Y-102469998D02*
X272175019Y-89269998D01*
X285375019Y-102469998D02*
X272175019Y-102469998D01*
X285375019Y-89269998D02*
X285375019Y-102469998D01*
X272175019Y-89269998D02*
X285375019Y-89269998D01*
X258970000Y-43819615D02*
X258970000Y-30619615D01*
X272170000Y-43819615D02*
X258970000Y-43819615D01*
X272170000Y-30619615D02*
X272170000Y-43819615D01*
X258970000Y-30619615D02*
X272170000Y-30619615D01*
X272660000Y-64370000D02*
X272660000Y-51170000D01*
X285860000Y-64370000D02*
X272660000Y-64370000D01*
X285860000Y-51170000D02*
X285860000Y-64370000D01*
X272660000Y-51170000D02*
X285860000Y-51170000D01*
X281700000Y-83420000D02*
X281700000Y-70220000D01*
X294900000Y-83420000D02*
X281700000Y-83420000D01*
X294900000Y-70220000D02*
X294900000Y-83420000D01*
X281700000Y-70220000D02*
X294900000Y-70220000D01*
X298368769Y-89269998D02*
X311568769Y-89269998D01*
X311568769Y-89269998D02*
X311568769Y-102469998D01*
X311568769Y-102469998D02*
X298368769Y-102469998D01*
X298368769Y-102469998D02*
X298368769Y-89269998D01*
X278020000Y-45320000D02*
X278020000Y-32120000D01*
X291220000Y-45320000D02*
X278020000Y-45320000D01*
X291220000Y-32120000D02*
X291220000Y-45320000D01*
X278020000Y-32120000D02*
X291220000Y-32120000D01*
X291710000Y-64370000D02*
X291710000Y-51170000D01*
X304910000Y-64370000D02*
X291710000Y-64370000D01*
X304910000Y-51170000D02*
X304910000Y-64370000D01*
X291710000Y-51170000D02*
X304910000Y-51170000D01*
X312656250Y-70220000D02*
X325856250Y-70220000D01*
X325856250Y-70220000D02*
X325856250Y-83420000D01*
X325856250Y-83420000D02*
X312656250Y-83420000D01*
X312656250Y-83420000D02*
X312656250Y-70220000D01*
X310274949Y-126282503D02*
X310274949Y-113082503D01*
X323474949Y-126282503D02*
X310274949Y-126282503D01*
X323474949Y-113082503D02*
X323474949Y-126282503D01*
X310274949Y-113082503D02*
X323474949Y-113082503D01*
X297070000Y-45320000D02*
X297070000Y-32120000D01*
X310270000Y-45320000D02*
X297070000Y-45320000D01*
X310270000Y-32120000D02*
X310270000Y-45320000D01*
X297070000Y-32120000D02*
X310270000Y-32120000D01*
X315530000Y-51170000D02*
X328730000Y-51170000D01*
X328730000Y-51170000D02*
X328730000Y-64370000D01*
X328730000Y-64370000D02*
X315530000Y-64370000D01*
X315530000Y-64370000D02*
X315530000Y-51170000D01*
X329324949Y-107232503D02*
X329324949Y-94032503D01*
X342524949Y-107232503D02*
X329324949Y-107232503D01*
X342524949Y-94032503D02*
X342524949Y-107232503D01*
X329324949Y-94032503D02*
X342524949Y-94032503D01*
X329324949Y-126282503D02*
X329324949Y-113082503D01*
X342524949Y-126282503D02*
X329324949Y-126282503D01*
X342524949Y-113082503D02*
X342524949Y-126282503D01*
X329324949Y-113082503D02*
X342524949Y-113082503D01*
X316120000Y-45320000D02*
X316120000Y-32120000D01*
X329320000Y-45320000D02*
X316120000Y-45320000D01*
X329320000Y-32120000D02*
X329320000Y-45320000D01*
X316120000Y-32120000D02*
X329320000Y-32120000D01*
X339932542Y-40557509D02*
X339932542Y-27357509D01*
X353132542Y-40557509D02*
X339932542Y-40557509D01*
X353132542Y-27357509D02*
X353132542Y-40557509D01*
X339932542Y-27357509D02*
X353132542Y-27357509D01*
X344105000Y-59607516D02*
X344105000Y-46407516D01*
X357305000Y-59607516D02*
X344105000Y-59607516D01*
X357305000Y-46407516D02*
X357305000Y-59607516D01*
X344105000Y-46407516D02*
X357305000Y-46407516D01*
X348374949Y-78657519D02*
X348374949Y-65457519D01*
X361574949Y-78657519D02*
X348374949Y-78657519D01*
X361574949Y-65457519D02*
X361574949Y-78657519D01*
X348374949Y-65457519D02*
X361574949Y-65457519D01*
X348374949Y-126282503D02*
X348374949Y-113082503D01*
X361574949Y-126282503D02*
X348374949Y-126282503D01*
X361574949Y-113082503D02*
X361574949Y-126282503D01*
X348374949Y-113082503D02*
X361574949Y-113082503D01*
X59315000Y-48245000D02*
G75*
G03X59315000Y-48245000I-2450000J0D01*
G01*
X53647500Y-114920000D02*
G75*
G03X53647500Y-114920000I-2450000J0D01*
G01*
X124277220Y-27932509D02*
G75*
G03X124277220Y-27932509I-2450000J0D01*
G01*
X112409436Y-120609368D02*
G75*
G03X112409436Y-120609368I-2450000J0D01*
G01*
X231642785Y-27932509D02*
G75*
G03X231642785Y-27932509I-2450000J0D01*
G01*
X343630000Y-43482516D02*
G75*
G03X343630000Y-43482516I-2450000J0D01*
G01*
M02*
