G04 #@! TF.GenerationSoftware,KiCad,Pcbnew,(5.1.7)-1*
G04 #@! TF.CreationDate,2020-10-24T21:34:06+07:00*
G04 #@! TF.ProjectId,arisu,61726973-752e-46b6-9963-61645f706362,1.1*
G04 #@! TF.SameCoordinates,Original*
G04 #@! TF.FileFunction,Soldermask,Bot*
G04 #@! TF.FilePolarity,Negative*
%FSLAX46Y46*%
G04 Gerber Fmt 4.6, Leading zero omitted, Abs format (unit mm)*
G04 Created by KiCad (PCBNEW (5.1.7)-1) date 2020-10-24 21:34:06*
%MOMM*%
%LPD*%
G01*
G04 APERTURE LIST*
%ADD10O,1.102000X2.202000*%
%ADD11C,0.752000*%
%ADD12O,1.102000X1.702000*%
%ADD13C,4.502000*%
%ADD14C,2.302000*%
%ADD15C,4.102000*%
%ADD16C,1.802000*%
%ADD17C,3.152000*%
%ADD18C,0.100000*%
G04 APERTURE END LIST*
G36*
G01*
X145403000Y-27266000D02*
X145403000Y-25566000D01*
G75*
G02*
X145454000Y-25515000I51000J0D01*
G01*
X147154000Y-25515000D01*
G75*
G02*
X147205000Y-25566000I0J-51000D01*
G01*
X147205000Y-27266000D01*
G75*
G02*
X147154000Y-27317000I-51000J0D01*
G01*
X145454000Y-27317000D01*
G75*
G02*
X145403000Y-27266000I0J51000D01*
G01*
G37*
G36*
G01*
X178399000Y-31770000D02*
X178399000Y-30320000D01*
G75*
G02*
X178450000Y-30269000I51000J0D01*
G01*
X179050000Y-30269000D01*
G75*
G02*
X179101000Y-30320000I0J-51000D01*
G01*
X179101000Y-31770000D01*
G75*
G02*
X179050000Y-31821000I-51000J0D01*
G01*
X178450000Y-31821000D01*
G75*
G02*
X178399000Y-31770000I0J51000D01*
G01*
G37*
G36*
G01*
X177599000Y-31770000D02*
X177599000Y-30320000D01*
G75*
G02*
X177650000Y-30269000I51000J0D01*
G01*
X178250000Y-30269000D01*
G75*
G02*
X178301000Y-30320000I0J-51000D01*
G01*
X178301000Y-31770000D01*
G75*
G02*
X178250000Y-31821000I-51000J0D01*
G01*
X177650000Y-31821000D01*
G75*
G02*
X177599000Y-31770000I0J51000D01*
G01*
G37*
G36*
G01*
X172699000Y-31770000D02*
X172699000Y-30320000D01*
G75*
G02*
X172750000Y-30269000I51000J0D01*
G01*
X173350000Y-30269000D01*
G75*
G02*
X173401000Y-30320000I0J-51000D01*
G01*
X173401000Y-31770000D01*
G75*
G02*
X173350000Y-31821000I-51000J0D01*
G01*
X172750000Y-31821000D01*
G75*
G02*
X172699000Y-31770000I0J51000D01*
G01*
G37*
G36*
G01*
X171899000Y-31770000D02*
X171899000Y-30320000D01*
G75*
G02*
X171950000Y-30269000I51000J0D01*
G01*
X172550000Y-30269000D01*
G75*
G02*
X172601000Y-30320000I0J-51000D01*
G01*
X172601000Y-31770000D01*
G75*
G02*
X172550000Y-31821000I-51000J0D01*
G01*
X171950000Y-31821000D01*
G75*
G02*
X171899000Y-31770000I0J51000D01*
G01*
G37*
G36*
G01*
X171899000Y-31770000D02*
X171899000Y-30320000D01*
G75*
G02*
X171950000Y-30269000I51000J0D01*
G01*
X172550000Y-30269000D01*
G75*
G02*
X172601000Y-30320000I0J-51000D01*
G01*
X172601000Y-31770000D01*
G75*
G02*
X172550000Y-31821000I-51000J0D01*
G01*
X171950000Y-31821000D01*
G75*
G02*
X171899000Y-31770000I0J51000D01*
G01*
G37*
G36*
G01*
X172699000Y-31770000D02*
X172699000Y-30320000D01*
G75*
G02*
X172750000Y-30269000I51000J0D01*
G01*
X173350000Y-30269000D01*
G75*
G02*
X173401000Y-30320000I0J-51000D01*
G01*
X173401000Y-31770000D01*
G75*
G02*
X173350000Y-31821000I-51000J0D01*
G01*
X172750000Y-31821000D01*
G75*
G02*
X172699000Y-31770000I0J51000D01*
G01*
G37*
G36*
G01*
X177599000Y-31770000D02*
X177599000Y-30320000D01*
G75*
G02*
X177650000Y-30269000I51000J0D01*
G01*
X178250000Y-30269000D01*
G75*
G02*
X178301000Y-30320000I0J-51000D01*
G01*
X178301000Y-31770000D01*
G75*
G02*
X178250000Y-31821000I-51000J0D01*
G01*
X177650000Y-31821000D01*
G75*
G02*
X177599000Y-31770000I0J51000D01*
G01*
G37*
G36*
G01*
X178399000Y-31770000D02*
X178399000Y-30320000D01*
G75*
G02*
X178450000Y-30269000I51000J0D01*
G01*
X179050000Y-30269000D01*
G75*
G02*
X179101000Y-30320000I0J-51000D01*
G01*
X179101000Y-31770000D01*
G75*
G02*
X179050000Y-31821000I-51000J0D01*
G01*
X178450000Y-31821000D01*
G75*
G02*
X178399000Y-31770000I0J51000D01*
G01*
G37*
G36*
G01*
X173549000Y-31770000D02*
X173549000Y-30320000D01*
G75*
G02*
X173600000Y-30269000I51000J0D01*
G01*
X173900000Y-30269000D01*
G75*
G02*
X173951000Y-30320000I0J-51000D01*
G01*
X173951000Y-31770000D01*
G75*
G02*
X173900000Y-31821000I-51000J0D01*
G01*
X173600000Y-31821000D01*
G75*
G02*
X173549000Y-31770000I0J51000D01*
G01*
G37*
G36*
G01*
X174049000Y-31770000D02*
X174049000Y-30320000D01*
G75*
G02*
X174100000Y-30269000I51000J0D01*
G01*
X174400000Y-30269000D01*
G75*
G02*
X174451000Y-30320000I0J-51000D01*
G01*
X174451000Y-31770000D01*
G75*
G02*
X174400000Y-31821000I-51000J0D01*
G01*
X174100000Y-31821000D01*
G75*
G02*
X174049000Y-31770000I0J51000D01*
G01*
G37*
G36*
G01*
X174549000Y-31770000D02*
X174549000Y-30320000D01*
G75*
G02*
X174600000Y-30269000I51000J0D01*
G01*
X174900000Y-30269000D01*
G75*
G02*
X174951000Y-30320000I0J-51000D01*
G01*
X174951000Y-31770000D01*
G75*
G02*
X174900000Y-31821000I-51000J0D01*
G01*
X174600000Y-31821000D01*
G75*
G02*
X174549000Y-31770000I0J51000D01*
G01*
G37*
G36*
G01*
X175549000Y-31770000D02*
X175549000Y-30320000D01*
G75*
G02*
X175600000Y-30269000I51000J0D01*
G01*
X175900000Y-30269000D01*
G75*
G02*
X175951000Y-30320000I0J-51000D01*
G01*
X175951000Y-31770000D01*
G75*
G02*
X175900000Y-31821000I-51000J0D01*
G01*
X175600000Y-31821000D01*
G75*
G02*
X175549000Y-31770000I0J51000D01*
G01*
G37*
G36*
G01*
X176049000Y-31770000D02*
X176049000Y-30320000D01*
G75*
G02*
X176100000Y-30269000I51000J0D01*
G01*
X176400000Y-30269000D01*
G75*
G02*
X176451000Y-30320000I0J-51000D01*
G01*
X176451000Y-31770000D01*
G75*
G02*
X176400000Y-31821000I-51000J0D01*
G01*
X176100000Y-31821000D01*
G75*
G02*
X176049000Y-31770000I0J51000D01*
G01*
G37*
G36*
G01*
X176549000Y-31770000D02*
X176549000Y-30320000D01*
G75*
G02*
X176600000Y-30269000I51000J0D01*
G01*
X176900000Y-30269000D01*
G75*
G02*
X176951000Y-30320000I0J-51000D01*
G01*
X176951000Y-31770000D01*
G75*
G02*
X176900000Y-31821000I-51000J0D01*
G01*
X176600000Y-31821000D01*
G75*
G02*
X176549000Y-31770000I0J51000D01*
G01*
G37*
G36*
G01*
X177049000Y-31770000D02*
X177049000Y-30320000D01*
G75*
G02*
X177100000Y-30269000I51000J0D01*
G01*
X177400000Y-30269000D01*
G75*
G02*
X177451000Y-30320000I0J-51000D01*
G01*
X177451000Y-31770000D01*
G75*
G02*
X177400000Y-31821000I-51000J0D01*
G01*
X177100000Y-31821000D01*
G75*
G02*
X177049000Y-31770000I0J51000D01*
G01*
G37*
G36*
G01*
X175049000Y-31770000D02*
X175049000Y-30320000D01*
G75*
G02*
X175100000Y-30269000I51000J0D01*
G01*
X175400000Y-30269000D01*
G75*
G02*
X175451000Y-30320000I0J-51000D01*
G01*
X175451000Y-31770000D01*
G75*
G02*
X175400000Y-31821000I-51000J0D01*
G01*
X175100000Y-31821000D01*
G75*
G02*
X175049000Y-31770000I0J51000D01*
G01*
G37*
D10*
X179820000Y-30130000D03*
X171180000Y-30130000D03*
D11*
X172610000Y-29600000D03*
D12*
X171180000Y-25950000D03*
D11*
X178390000Y-29600000D03*
D12*
X179820000Y-25950000D03*
D13*
X241060266Y-120608720D03*
X345449949Y-110157503D03*
G36*
G01*
X184541000Y-38843000D02*
X185791000Y-38843000D01*
G75*
G02*
X185842000Y-38894000I0J-51000D01*
G01*
X185842000Y-40394000D01*
G75*
G02*
X185791000Y-40445000I-51000J0D01*
G01*
X184541000Y-40445000D01*
G75*
G02*
X184490000Y-40394000I0J51000D01*
G01*
X184490000Y-38894000D01*
G75*
G02*
X184541000Y-38843000I51000J0D01*
G01*
G37*
G36*
G01*
X184541000Y-41343000D02*
X185791000Y-41343000D01*
G75*
G02*
X185842000Y-41394000I0J-51000D01*
G01*
X185842000Y-42894000D01*
G75*
G02*
X185791000Y-42945000I-51000J0D01*
G01*
X184541000Y-42945000D01*
G75*
G02*
X184490000Y-42894000I0J51000D01*
G01*
X184490000Y-41394000D01*
G75*
G02*
X184541000Y-41343000I51000J0D01*
G01*
G37*
G36*
G01*
X188077000Y-41802000D02*
X186827000Y-41802000D01*
G75*
G02*
X186776000Y-41751000I0J51000D01*
G01*
X186776000Y-40251000D01*
G75*
G02*
X186827000Y-40200000I51000J0D01*
G01*
X188077000Y-40200000D01*
G75*
G02*
X188128000Y-40251000I0J-51000D01*
G01*
X188128000Y-41751000D01*
G75*
G02*
X188077000Y-41802000I-51000J0D01*
G01*
G37*
G36*
G01*
X188077000Y-39302000D02*
X186827000Y-39302000D01*
G75*
G02*
X186776000Y-39251000I0J51000D01*
G01*
X186776000Y-37751000D01*
G75*
G02*
X186827000Y-37700000I51000J0D01*
G01*
X188077000Y-37700000D01*
G75*
G02*
X188128000Y-37751000I0J-51000D01*
G01*
X188128000Y-39251000D01*
G75*
G02*
X188077000Y-39302000I-51000J0D01*
G01*
G37*
G36*
G01*
X188585000Y-29991000D02*
X187335000Y-29991000D01*
G75*
G02*
X187284000Y-29940000I0J51000D01*
G01*
X187284000Y-28440000D01*
G75*
G02*
X187335000Y-28389000I51000J0D01*
G01*
X188585000Y-28389000D01*
G75*
G02*
X188636000Y-28440000I0J-51000D01*
G01*
X188636000Y-29940000D01*
G75*
G02*
X188585000Y-29991000I-51000J0D01*
G01*
G37*
G36*
G01*
X188585000Y-27491000D02*
X187335000Y-27491000D01*
G75*
G02*
X187284000Y-27440000I0J51000D01*
G01*
X187284000Y-25940000D01*
G75*
G02*
X187335000Y-25889000I51000J0D01*
G01*
X188585000Y-25889000D01*
G75*
G02*
X188636000Y-25940000I0J-51000D01*
G01*
X188636000Y-27440000D01*
G75*
G02*
X188585000Y-27491000I-51000J0D01*
G01*
G37*
G36*
G01*
X186045000Y-29991000D02*
X184795000Y-29991000D01*
G75*
G02*
X184744000Y-29940000I0J51000D01*
G01*
X184744000Y-28440000D01*
G75*
G02*
X184795000Y-28389000I51000J0D01*
G01*
X186045000Y-28389000D01*
G75*
G02*
X186096000Y-28440000I0J-51000D01*
G01*
X186096000Y-29940000D01*
G75*
G02*
X186045000Y-29991000I-51000J0D01*
G01*
G37*
G36*
G01*
X186045000Y-27491000D02*
X184795000Y-27491000D01*
G75*
G02*
X184744000Y-27440000I0J51000D01*
G01*
X184744000Y-25940000D01*
G75*
G02*
X184795000Y-25889000I51000J0D01*
G01*
X186045000Y-25889000D01*
G75*
G02*
X186096000Y-25940000I0J-51000D01*
G01*
X186096000Y-27440000D01*
G75*
G02*
X186045000Y-27491000I-51000J0D01*
G01*
G37*
G36*
G01*
X167933000Y-35697000D02*
X167933000Y-36947000D01*
G75*
G02*
X167882000Y-36998000I-51000J0D01*
G01*
X166382000Y-36998000D01*
G75*
G02*
X166331000Y-36947000I0J51000D01*
G01*
X166331000Y-35697000D01*
G75*
G02*
X166382000Y-35646000I51000J0D01*
G01*
X167882000Y-35646000D01*
G75*
G02*
X167933000Y-35697000I0J-51000D01*
G01*
G37*
G36*
G01*
X165433000Y-35697000D02*
X165433000Y-36947000D01*
G75*
G02*
X165382000Y-36998000I-51000J0D01*
G01*
X163882000Y-36998000D01*
G75*
G02*
X163831000Y-36947000I0J51000D01*
G01*
X163831000Y-35697000D01*
G75*
G02*
X163882000Y-35646000I51000J0D01*
G01*
X165382000Y-35646000D01*
G75*
G02*
X165433000Y-35697000I0J-51000D01*
G01*
G37*
G36*
G01*
X167933000Y-37729000D02*
X167933000Y-38979000D01*
G75*
G02*
X167882000Y-39030000I-51000J0D01*
G01*
X166382000Y-39030000D01*
G75*
G02*
X166331000Y-38979000I0J51000D01*
G01*
X166331000Y-37729000D01*
G75*
G02*
X166382000Y-37678000I51000J0D01*
G01*
X167882000Y-37678000D01*
G75*
G02*
X167933000Y-37729000I0J-51000D01*
G01*
G37*
G36*
G01*
X165433000Y-37729000D02*
X165433000Y-38979000D01*
G75*
G02*
X165382000Y-39030000I-51000J0D01*
G01*
X163882000Y-39030000D01*
G75*
G02*
X163831000Y-38979000I0J51000D01*
G01*
X163831000Y-37729000D01*
G75*
G02*
X163882000Y-37678000I51000J0D01*
G01*
X165382000Y-37678000D01*
G75*
G02*
X165433000Y-37729000I0J-51000D01*
G01*
G37*
G36*
G01*
X178797000Y-50917000D02*
X178797000Y-49667000D01*
G75*
G02*
X178848000Y-49616000I51000J0D01*
G01*
X180348000Y-49616000D01*
G75*
G02*
X180399000Y-49667000I0J-51000D01*
G01*
X180399000Y-50917000D01*
G75*
G02*
X180348000Y-50968000I-51000J0D01*
G01*
X178848000Y-50968000D01*
G75*
G02*
X178797000Y-50917000I0J51000D01*
G01*
G37*
G36*
G01*
X181297000Y-50917000D02*
X181297000Y-49667000D01*
G75*
G02*
X181348000Y-49616000I51000J0D01*
G01*
X182848000Y-49616000D01*
G75*
G02*
X182899000Y-49667000I0J-51000D01*
G01*
X182899000Y-50917000D01*
G75*
G02*
X182848000Y-50968000I-51000J0D01*
G01*
X181348000Y-50968000D01*
G75*
G02*
X181297000Y-50917000I0J51000D01*
G01*
G37*
G36*
G01*
X168011000Y-49295000D02*
X166761000Y-49295000D01*
G75*
G02*
X166710000Y-49244000I0J51000D01*
G01*
X166710000Y-47744000D01*
G75*
G02*
X166761000Y-47693000I51000J0D01*
G01*
X168011000Y-47693000D01*
G75*
G02*
X168062000Y-47744000I0J-51000D01*
G01*
X168062000Y-49244000D01*
G75*
G02*
X168011000Y-49295000I-51000J0D01*
G01*
G37*
G36*
G01*
X168011000Y-46795000D02*
X166761000Y-46795000D01*
G75*
G02*
X166710000Y-46744000I0J51000D01*
G01*
X166710000Y-45244000D01*
G75*
G02*
X166761000Y-45193000I51000J0D01*
G01*
X168011000Y-45193000D01*
G75*
G02*
X168062000Y-45244000I0J-51000D01*
G01*
X168062000Y-46744000D01*
G75*
G02*
X168011000Y-46795000I-51000J0D01*
G01*
G37*
G36*
G01*
X186397000Y-36693000D02*
X186397000Y-35443000D01*
G75*
G02*
X186448000Y-35392000I51000J0D01*
G01*
X187948000Y-35392000D01*
G75*
G02*
X187999000Y-35443000I0J-51000D01*
G01*
X187999000Y-36693000D01*
G75*
G02*
X187948000Y-36744000I-51000J0D01*
G01*
X186448000Y-36744000D01*
G75*
G02*
X186397000Y-36693000I0J51000D01*
G01*
G37*
G36*
G01*
X188897000Y-36693000D02*
X188897000Y-35443000D01*
G75*
G02*
X188948000Y-35392000I51000J0D01*
G01*
X190448000Y-35392000D01*
G75*
G02*
X190499000Y-35443000I0J-51000D01*
G01*
X190499000Y-36693000D01*
G75*
G02*
X190448000Y-36744000I-51000J0D01*
G01*
X188948000Y-36744000D01*
G75*
G02*
X188897000Y-36693000I0J51000D01*
G01*
G37*
G36*
G01*
X44715000Y-44646000D02*
X43515000Y-44646000D01*
G75*
G02*
X43464000Y-44595000I0J51000D01*
G01*
X43464000Y-43695000D01*
G75*
G02*
X43515000Y-43644000I51000J0D01*
G01*
X44715000Y-43644000D01*
G75*
G02*
X44766000Y-43695000I0J-51000D01*
G01*
X44766000Y-44595000D01*
G75*
G02*
X44715000Y-44646000I-51000J0D01*
G01*
G37*
G36*
G01*
X44715000Y-41346000D02*
X43515000Y-41346000D01*
G75*
G02*
X43464000Y-41295000I0J51000D01*
G01*
X43464000Y-40395000D01*
G75*
G02*
X43515000Y-40344000I51000J0D01*
G01*
X44715000Y-40344000D01*
G75*
G02*
X44766000Y-40395000I0J-51000D01*
G01*
X44766000Y-41295000D01*
G75*
G02*
X44715000Y-41346000I-51000J0D01*
G01*
G37*
G36*
G01*
X45315000Y-63696000D02*
X44115000Y-63696000D01*
G75*
G02*
X44064000Y-63645000I0J51000D01*
G01*
X44064000Y-62745000D01*
G75*
G02*
X44115000Y-62694000I51000J0D01*
G01*
X45315000Y-62694000D01*
G75*
G02*
X45366000Y-62745000I0J-51000D01*
G01*
X45366000Y-63645000D01*
G75*
G02*
X45315000Y-63696000I-51000J0D01*
G01*
G37*
G36*
G01*
X45315000Y-60396000D02*
X44115000Y-60396000D01*
G75*
G02*
X44064000Y-60345000I0J51000D01*
G01*
X44064000Y-59445000D01*
G75*
G02*
X44115000Y-59394000I51000J0D01*
G01*
X45315000Y-59394000D01*
G75*
G02*
X45366000Y-59445000I0J-51000D01*
G01*
X45366000Y-60345000D01*
G75*
G02*
X45315000Y-60396000I-51000J0D01*
G01*
G37*
G36*
G01*
X43631250Y-82746000D02*
X42431250Y-82746000D01*
G75*
G02*
X42380250Y-82695000I0J51000D01*
G01*
X42380250Y-81795000D01*
G75*
G02*
X42431250Y-81744000I51000J0D01*
G01*
X43631250Y-81744000D01*
G75*
G02*
X43682250Y-81795000I0J-51000D01*
G01*
X43682250Y-82695000D01*
G75*
G02*
X43631250Y-82746000I-51000J0D01*
G01*
G37*
G36*
G01*
X43631250Y-79446000D02*
X42431250Y-79446000D01*
G75*
G02*
X42380250Y-79395000I0J51000D01*
G01*
X42380250Y-78495000D01*
G75*
G02*
X42431250Y-78444000I51000J0D01*
G01*
X43631250Y-78444000D01*
G75*
G02*
X43682250Y-78495000I0J-51000D01*
G01*
X43682250Y-79395000D01*
G75*
G02*
X43631250Y-79446000I-51000J0D01*
G01*
G37*
G36*
G01*
X44218750Y-101796000D02*
X43018750Y-101796000D01*
G75*
G02*
X42967750Y-101745000I0J51000D01*
G01*
X42967750Y-100845000D01*
G75*
G02*
X43018750Y-100794000I51000J0D01*
G01*
X44218750Y-100794000D01*
G75*
G02*
X44269750Y-100845000I0J-51000D01*
G01*
X44269750Y-101745000D01*
G75*
G02*
X44218750Y-101796000I-51000J0D01*
G01*
G37*
G36*
G01*
X44218750Y-98496000D02*
X43018750Y-98496000D01*
G75*
G02*
X42967750Y-98445000I0J51000D01*
G01*
X42967750Y-97545000D01*
G75*
G02*
X43018750Y-97494000I51000J0D01*
G01*
X44218750Y-97494000D01*
G75*
G02*
X44269750Y-97545000I0J-51000D01*
G01*
X44269750Y-98445000D01*
G75*
G02*
X44218750Y-98496000I-51000J0D01*
G01*
G37*
G36*
G01*
X37085000Y-120846000D02*
X35885000Y-120846000D01*
G75*
G02*
X35834000Y-120795000I0J51000D01*
G01*
X35834000Y-119895000D01*
G75*
G02*
X35885000Y-119844000I51000J0D01*
G01*
X37085000Y-119844000D01*
G75*
G02*
X37136000Y-119895000I0J-51000D01*
G01*
X37136000Y-120795000D01*
G75*
G02*
X37085000Y-120846000I-51000J0D01*
G01*
G37*
G36*
G01*
X37085000Y-117546000D02*
X35885000Y-117546000D01*
G75*
G02*
X35834000Y-117495000I0J51000D01*
G01*
X35834000Y-116595000D01*
G75*
G02*
X35885000Y-116544000I51000J0D01*
G01*
X37085000Y-116544000D01*
G75*
G02*
X37136000Y-116595000I0J-51000D01*
G01*
X37136000Y-117495000D01*
G75*
G02*
X37085000Y-117546000I-51000J0D01*
G01*
G37*
G36*
G01*
X63765000Y-44646000D02*
X62565000Y-44646000D01*
G75*
G02*
X62514000Y-44595000I0J51000D01*
G01*
X62514000Y-43695000D01*
G75*
G02*
X62565000Y-43644000I51000J0D01*
G01*
X63765000Y-43644000D01*
G75*
G02*
X63816000Y-43695000I0J-51000D01*
G01*
X63816000Y-44595000D01*
G75*
G02*
X63765000Y-44646000I-51000J0D01*
G01*
G37*
G36*
G01*
X63765000Y-41346000D02*
X62565000Y-41346000D01*
G75*
G02*
X62514000Y-41295000I0J51000D01*
G01*
X62514000Y-40395000D01*
G75*
G02*
X62565000Y-40344000I51000J0D01*
G01*
X63765000Y-40344000D01*
G75*
G02*
X63816000Y-40395000I0J-51000D01*
G01*
X63816000Y-41295000D01*
G75*
G02*
X63765000Y-41346000I-51000J0D01*
G01*
G37*
G36*
G01*
X69125000Y-63696000D02*
X67925000Y-63696000D01*
G75*
G02*
X67874000Y-63645000I0J51000D01*
G01*
X67874000Y-62745000D01*
G75*
G02*
X67925000Y-62694000I51000J0D01*
G01*
X69125000Y-62694000D01*
G75*
G02*
X69176000Y-62745000I0J-51000D01*
G01*
X69176000Y-63645000D01*
G75*
G02*
X69125000Y-63696000I-51000J0D01*
G01*
G37*
G36*
G01*
X69125000Y-60396000D02*
X67925000Y-60396000D01*
G75*
G02*
X67874000Y-60345000I0J51000D01*
G01*
X67874000Y-59445000D01*
G75*
G02*
X67925000Y-59394000I51000J0D01*
G01*
X69125000Y-59394000D01*
G75*
G02*
X69176000Y-59445000I0J-51000D01*
G01*
X69176000Y-60345000D01*
G75*
G02*
X69125000Y-60396000I-51000J0D01*
G01*
G37*
G36*
G01*
X69825000Y-82746000D02*
X68625000Y-82746000D01*
G75*
G02*
X68574000Y-82695000I0J51000D01*
G01*
X68574000Y-81795000D01*
G75*
G02*
X68625000Y-81744000I51000J0D01*
G01*
X69825000Y-81744000D01*
G75*
G02*
X69876000Y-81795000I0J-51000D01*
G01*
X69876000Y-82695000D01*
G75*
G02*
X69825000Y-82746000I-51000J0D01*
G01*
G37*
G36*
G01*
X69825000Y-79446000D02*
X68625000Y-79446000D01*
G75*
G02*
X68574000Y-79395000I0J51000D01*
G01*
X68574000Y-78495000D01*
G75*
G02*
X68625000Y-78444000I51000J0D01*
G01*
X69825000Y-78444000D01*
G75*
G02*
X69876000Y-78495000I0J-51000D01*
G01*
X69876000Y-79395000D01*
G75*
G02*
X69825000Y-79446000I-51000J0D01*
G01*
G37*
G36*
G01*
X75175000Y-101796000D02*
X73975000Y-101796000D01*
G75*
G02*
X73924000Y-101745000I0J51000D01*
G01*
X73924000Y-100845000D01*
G75*
G02*
X73975000Y-100794000I51000J0D01*
G01*
X75175000Y-100794000D01*
G75*
G02*
X75226000Y-100845000I0J-51000D01*
G01*
X75226000Y-101745000D01*
G75*
G02*
X75175000Y-101796000I-51000J0D01*
G01*
G37*
G36*
G01*
X75175000Y-98496000D02*
X73975000Y-98496000D01*
G75*
G02*
X73924000Y-98445000I0J51000D01*
G01*
X73924000Y-97545000D01*
G75*
G02*
X73975000Y-97494000I51000J0D01*
G01*
X75175000Y-97494000D01*
G75*
G02*
X75226000Y-97545000I0J-51000D01*
G01*
X75226000Y-98445000D01*
G75*
G02*
X75175000Y-98496000I-51000J0D01*
G01*
G37*
G36*
G01*
X82815000Y-43145615D02*
X81615000Y-43145615D01*
G75*
G02*
X81564000Y-43094615I0J51000D01*
G01*
X81564000Y-42194615D01*
G75*
G02*
X81615000Y-42143615I51000J0D01*
G01*
X82815000Y-42143615D01*
G75*
G02*
X82866000Y-42194615I0J-51000D01*
G01*
X82866000Y-43094615D01*
G75*
G02*
X82815000Y-43145615I-51000J0D01*
G01*
G37*
G36*
G01*
X82815000Y-39845615D02*
X81615000Y-39845615D01*
G75*
G02*
X81564000Y-39794615I0J51000D01*
G01*
X81564000Y-38894615D01*
G75*
G02*
X81615000Y-38843615I51000J0D01*
G01*
X82815000Y-38843615D01*
G75*
G02*
X82866000Y-38894615I0J-51000D01*
G01*
X82866000Y-39794615D01*
G75*
G02*
X82815000Y-39845615I-51000J0D01*
G01*
G37*
G36*
G01*
X88455522Y-63345367D02*
X87281745Y-63095873D01*
G75*
G02*
X87242462Y-63035384I10603J49886D01*
G01*
X87429583Y-62155052D01*
G75*
G02*
X87490072Y-62115769I49886J-10603D01*
G01*
X88663849Y-62365263D01*
G75*
G02*
X88703132Y-62425752I-10603J-49886D01*
G01*
X88516011Y-63306084D01*
G75*
G02*
X88455522Y-63345367I-49886J10603D01*
G01*
G37*
G36*
G01*
X89141630Y-60117479D02*
X87967853Y-59867985D01*
G75*
G02*
X87928570Y-59807496I10603J49886D01*
G01*
X88115691Y-58927164D01*
G75*
G02*
X88176180Y-58887881I49886J-10603D01*
G01*
X89349957Y-59137375D01*
G75*
G02*
X89389240Y-59197864I-10603J-49886D01*
G01*
X89202119Y-60078196D01*
G75*
G02*
X89141630Y-60117479I-49886J10603D01*
G01*
G37*
G36*
G01*
X89153189Y-82969260D02*
X87979412Y-82719766D01*
G75*
G02*
X87940129Y-82659277I10603J49886D01*
G01*
X88127250Y-81778945D01*
G75*
G02*
X88187739Y-81739662I49886J-10603D01*
G01*
X89361516Y-81989156D01*
G75*
G02*
X89400799Y-82049645I-10603J-49886D01*
G01*
X89213678Y-82929977D01*
G75*
G02*
X89153189Y-82969260I-49886J10603D01*
G01*
G37*
G36*
G01*
X89839297Y-79741372D02*
X88665520Y-79491878D01*
G75*
G02*
X88626237Y-79431389I10603J49886D01*
G01*
X88813358Y-78551057D01*
G75*
G02*
X88873847Y-78511774I49886J-10603D01*
G01*
X90047624Y-78761268D01*
G75*
G02*
X90086907Y-78821757I-10603J-49886D01*
G01*
X89899786Y-79702089D01*
G75*
G02*
X89839297Y-79741372I-49886J10603D01*
G01*
G37*
G36*
G01*
X94509271Y-103583329D02*
X93335494Y-103333835D01*
G75*
G02*
X93296211Y-103273346I10603J49886D01*
G01*
X93483332Y-102393014D01*
G75*
G02*
X93543821Y-102353731I49886J-10603D01*
G01*
X94717598Y-102603225D01*
G75*
G02*
X94756881Y-102663714I-10603J-49886D01*
G01*
X94569760Y-103544046D01*
G75*
G02*
X94509271Y-103583329I-49886J10603D01*
G01*
G37*
G36*
G01*
X95195379Y-100355441D02*
X94021602Y-100105947D01*
G75*
G02*
X93982319Y-100045458I10603J49886D01*
G01*
X94169440Y-99165126D01*
G75*
G02*
X94229929Y-99125843I49886J-10603D01*
G01*
X95403706Y-99375337D01*
G75*
G02*
X95442989Y-99435826I-10603J-49886D01*
G01*
X95255868Y-100316158D01*
G75*
G02*
X95195379Y-100355441I-49886J10603D01*
G01*
G37*
G36*
G01*
X95206972Y-123207217D02*
X94033195Y-122957723D01*
G75*
G02*
X93993912Y-122897234I10603J49886D01*
G01*
X94181033Y-122016902D01*
G75*
G02*
X94241522Y-121977619I49886J-10603D01*
G01*
X95415299Y-122227113D01*
G75*
G02*
X95454582Y-122287602I-10603J-49886D01*
G01*
X95267461Y-123167934D01*
G75*
G02*
X95206972Y-123207217I-49886J10603D01*
G01*
G37*
G36*
G01*
X95893080Y-119979329D02*
X94719303Y-119729835D01*
G75*
G02*
X94680020Y-119669346I10603J49886D01*
G01*
X94867141Y-118789014D01*
G75*
G02*
X94927630Y-118749731I49886J-10603D01*
G01*
X96101407Y-118999225D01*
G75*
G02*
X96140690Y-119059714I-10603J-49886D01*
G01*
X95953569Y-119940046D01*
G75*
G02*
X95893080Y-119979329I-49886J10603D01*
G01*
G37*
G36*
G01*
X101733180Y-46692024D02*
X100559403Y-46442530D01*
G75*
G02*
X100520120Y-46382041I10603J49886D01*
G01*
X100707241Y-45501709D01*
G75*
G02*
X100767730Y-45462426I49886J-10603D01*
G01*
X101941507Y-45711920D01*
G75*
G02*
X101980790Y-45772409I-10603J-49886D01*
G01*
X101793669Y-46652741D01*
G75*
G02*
X101733180Y-46692024I-49886J10603D01*
G01*
G37*
G36*
G01*
X102419288Y-43464136D02*
X101245511Y-43214642D01*
G75*
G02*
X101206228Y-43154153I10603J49886D01*
G01*
X101393349Y-42273821D01*
G75*
G02*
X101453838Y-42234538I49886J-10603D01*
G01*
X102627615Y-42484032D01*
G75*
G02*
X102666898Y-42544521I-10603J-49886D01*
G01*
X102479777Y-43424853D01*
G75*
G02*
X102419288Y-43464136I-49886J10603D01*
G01*
G37*
G36*
G01*
X107089232Y-67306093D02*
X105915455Y-67056599D01*
G75*
G02*
X105876172Y-66996110I10603J49886D01*
G01*
X106063293Y-66115778D01*
G75*
G02*
X106123782Y-66076495I49886J-10603D01*
G01*
X107297559Y-66325989D01*
G75*
G02*
X107336842Y-66386478I-10603J-49886D01*
G01*
X107149721Y-67266810D01*
G75*
G02*
X107089232Y-67306093I-49886J10603D01*
G01*
G37*
G36*
G01*
X107775340Y-64078205D02*
X106601563Y-63828711D01*
G75*
G02*
X106562280Y-63768222I10603J49886D01*
G01*
X106749401Y-62887890D01*
G75*
G02*
X106809890Y-62848607I49886J-10603D01*
G01*
X107983667Y-63098101D01*
G75*
G02*
X108022950Y-63158590I-10603J-49886D01*
G01*
X107835829Y-64038922D01*
G75*
G02*
X107775340Y-64078205I-49886J10603D01*
G01*
G37*
G36*
G01*
X107786899Y-86929987D02*
X106613122Y-86680493D01*
G75*
G02*
X106573839Y-86620004I10603J49886D01*
G01*
X106760960Y-85739672D01*
G75*
G02*
X106821449Y-85700389I49886J-10603D01*
G01*
X107995226Y-85949883D01*
G75*
G02*
X108034509Y-86010372I-10603J-49886D01*
G01*
X107847388Y-86890704D01*
G75*
G02*
X107786899Y-86929987I-49886J10603D01*
G01*
G37*
G36*
G01*
X108473007Y-83702099D02*
X107299230Y-83452605D01*
G75*
G02*
X107259947Y-83392116I10603J49886D01*
G01*
X107447068Y-82511784D01*
G75*
G02*
X107507557Y-82472501I49886J-10603D01*
G01*
X108681334Y-82721995D01*
G75*
G02*
X108720617Y-82782484I-10603J-49886D01*
G01*
X108533496Y-83662816D01*
G75*
G02*
X108473007Y-83702099I-49886J10603D01*
G01*
G37*
G36*
G01*
X113142981Y-107544055D02*
X111969204Y-107294561D01*
G75*
G02*
X111929921Y-107234072I10603J49886D01*
G01*
X112117042Y-106353740D01*
G75*
G02*
X112177531Y-106314457I49886J-10603D01*
G01*
X113351308Y-106563951D01*
G75*
G02*
X113390591Y-106624440I-10603J-49886D01*
G01*
X113203470Y-107504772D01*
G75*
G02*
X113142981Y-107544055I-49886J10603D01*
G01*
G37*
G36*
G01*
X113829089Y-104316167D02*
X112655312Y-104066673D01*
G75*
G02*
X112616029Y-104006184I10603J49886D01*
G01*
X112803150Y-103125852D01*
G75*
G02*
X112863639Y-103086569I49886J-10603D01*
G01*
X114037416Y-103336063D01*
G75*
G02*
X114076699Y-103396552I-10603J-49886D01*
G01*
X113889578Y-104276884D01*
G75*
G02*
X113829089Y-104316167I-49886J10603D01*
G01*
G37*
G36*
G01*
X120366891Y-50652742D02*
X119193114Y-50403248D01*
G75*
G02*
X119153831Y-50342759I10603J49886D01*
G01*
X119340952Y-49462427D01*
G75*
G02*
X119401441Y-49423144I49886J-10603D01*
G01*
X120575218Y-49672638D01*
G75*
G02*
X120614501Y-49733127I-10603J-49886D01*
G01*
X120427380Y-50613459D01*
G75*
G02*
X120366891Y-50652742I-49886J10603D01*
G01*
G37*
G36*
G01*
X121052999Y-47424854D02*
X119879222Y-47175360D01*
G75*
G02*
X119839939Y-47114871I10603J49886D01*
G01*
X120027060Y-46234539D01*
G75*
G02*
X120087549Y-46195256I49886J-10603D01*
G01*
X121261326Y-46444750D01*
G75*
G02*
X121300609Y-46505239I-10603J-49886D01*
G01*
X121113488Y-47385571D01*
G75*
G02*
X121052999Y-47424854I-49886J10603D01*
G01*
G37*
G36*
G01*
X125722942Y-71266820D02*
X124549165Y-71017326D01*
G75*
G02*
X124509882Y-70956837I10603J49886D01*
G01*
X124697003Y-70076505D01*
G75*
G02*
X124757492Y-70037222I49886J-10603D01*
G01*
X125931269Y-70286716D01*
G75*
G02*
X125970552Y-70347205I-10603J-49886D01*
G01*
X125783431Y-71227537D01*
G75*
G02*
X125722942Y-71266820I-49886J10603D01*
G01*
G37*
G36*
G01*
X126409050Y-68038932D02*
X125235273Y-67789438D01*
G75*
G02*
X125195990Y-67728949I10603J49886D01*
G01*
X125383111Y-66848617D01*
G75*
G02*
X125443600Y-66809334I49886J-10603D01*
G01*
X126617377Y-67058828D01*
G75*
G02*
X126656660Y-67119317I-10603J-49886D01*
G01*
X126469539Y-67999649D01*
G75*
G02*
X126409050Y-68038932I-49886J10603D01*
G01*
G37*
G36*
G01*
X126420609Y-90890714D02*
X125246832Y-90641220D01*
G75*
G02*
X125207549Y-90580731I10603J49886D01*
G01*
X125394670Y-89700399D01*
G75*
G02*
X125455159Y-89661116I49886J-10603D01*
G01*
X126628936Y-89910610D01*
G75*
G02*
X126668219Y-89971099I-10603J-49886D01*
G01*
X126481098Y-90851431D01*
G75*
G02*
X126420609Y-90890714I-49886J10603D01*
G01*
G37*
G36*
G01*
X127106717Y-87662826D02*
X125932940Y-87413332D01*
G75*
G02*
X125893657Y-87352843I10603J49886D01*
G01*
X126080778Y-86472511D01*
G75*
G02*
X126141267Y-86433228I49886J-10603D01*
G01*
X127315044Y-86682722D01*
G75*
G02*
X127354327Y-86743211I-10603J-49886D01*
G01*
X127167206Y-87623543D01*
G75*
G02*
X127106717Y-87662826I-49886J10603D01*
G01*
G37*
G36*
G01*
X131776690Y-111504782D02*
X130602913Y-111255288D01*
G75*
G02*
X130563630Y-111194799I10603J49886D01*
G01*
X130750751Y-110314467D01*
G75*
G02*
X130811240Y-110275184I49886J-10603D01*
G01*
X131985017Y-110524678D01*
G75*
G02*
X132024300Y-110585167I-10603J-49886D01*
G01*
X131837179Y-111465499D01*
G75*
G02*
X131776690Y-111504782I-49886J10603D01*
G01*
G37*
G36*
G01*
X132462798Y-108276894D02*
X131289021Y-108027400D01*
G75*
G02*
X131249738Y-107966911I10603J49886D01*
G01*
X131436859Y-107086579D01*
G75*
G02*
X131497348Y-107047296I49886J-10603D01*
G01*
X132671125Y-107296790D01*
G75*
G02*
X132710408Y-107357279I-10603J-49886D01*
G01*
X132523287Y-108237611D01*
G75*
G02*
X132462798Y-108276894I-49886J10603D01*
G01*
G37*
G36*
G01*
X127815964Y-130138492D02*
X126642187Y-129888998D01*
G75*
G02*
X126602904Y-129828509I10603J49886D01*
G01*
X126790025Y-128948177D01*
G75*
G02*
X126850514Y-128908894I49886J-10603D01*
G01*
X128024291Y-129158388D01*
G75*
G02*
X128063574Y-129218877I-10603J-49886D01*
G01*
X127876453Y-130099209D01*
G75*
G02*
X127815964Y-130138492I-49886J10603D01*
G01*
G37*
G36*
G01*
X128502072Y-126910604D02*
X127328295Y-126661110D01*
G75*
G02*
X127289012Y-126600621I10603J49886D01*
G01*
X127476133Y-125720289D01*
G75*
G02*
X127536622Y-125681006I49886J-10603D01*
G01*
X128710399Y-125930500D01*
G75*
G02*
X128749682Y-125990989I-10603J-49886D01*
G01*
X128562561Y-126871321D01*
G75*
G02*
X128502072Y-126910604I-49886J10603D01*
G01*
G37*
G36*
G01*
X139000603Y-54613460D02*
X137826826Y-54363966D01*
G75*
G02*
X137787543Y-54303477I10603J49886D01*
G01*
X137974664Y-53423145D01*
G75*
G02*
X138035153Y-53383862I49886J-10603D01*
G01*
X139208930Y-53633356D01*
G75*
G02*
X139248213Y-53693845I-10603J-49886D01*
G01*
X139061092Y-54574177D01*
G75*
G02*
X139000603Y-54613460I-49886J10603D01*
G01*
G37*
G36*
G01*
X139686711Y-51385572D02*
X138512934Y-51136078D01*
G75*
G02*
X138473651Y-51075589I10603J49886D01*
G01*
X138660772Y-50195257D01*
G75*
G02*
X138721261Y-50155974I49886J-10603D01*
G01*
X139895038Y-50405468D01*
G75*
G02*
X139934321Y-50465957I-10603J-49886D01*
G01*
X139747200Y-51346289D01*
G75*
G02*
X139686711Y-51385572I-49886J10603D01*
G01*
G37*
G36*
G01*
X144356652Y-75227547D02*
X143182875Y-74978053D01*
G75*
G02*
X143143592Y-74917564I10603J49886D01*
G01*
X143330713Y-74037232D01*
G75*
G02*
X143391202Y-73997949I49886J-10603D01*
G01*
X144564979Y-74247443D01*
G75*
G02*
X144604262Y-74307932I-10603J-49886D01*
G01*
X144417141Y-75188264D01*
G75*
G02*
X144356652Y-75227547I-49886J10603D01*
G01*
G37*
G36*
G01*
X145042760Y-71999659D02*
X143868983Y-71750165D01*
G75*
G02*
X143829700Y-71689676I10603J49886D01*
G01*
X144016821Y-70809344D01*
G75*
G02*
X144077310Y-70770061I49886J-10603D01*
G01*
X145251087Y-71019555D01*
G75*
G02*
X145290370Y-71080044I-10603J-49886D01*
G01*
X145103249Y-71960376D01*
G75*
G02*
X145042760Y-71999659I-49886J10603D01*
G01*
G37*
G36*
G01*
X145054319Y-94851441D02*
X143880542Y-94601947D01*
G75*
G02*
X143841259Y-94541458I10603J49886D01*
G01*
X144028380Y-93661126D01*
G75*
G02*
X144088869Y-93621843I49886J-10603D01*
G01*
X145262646Y-93871337D01*
G75*
G02*
X145301929Y-93931826I-10603J-49886D01*
G01*
X145114808Y-94812158D01*
G75*
G02*
X145054319Y-94851441I-49886J10603D01*
G01*
G37*
G36*
G01*
X145740427Y-91623553D02*
X144566650Y-91374059D01*
G75*
G02*
X144527367Y-91313570I10603J49886D01*
G01*
X144714488Y-90433238D01*
G75*
G02*
X144774977Y-90393955I49886J-10603D01*
G01*
X145948754Y-90643449D01*
G75*
G02*
X145988037Y-90703938I-10603J-49886D01*
G01*
X145800916Y-91584270D01*
G75*
G02*
X145740427Y-91623553I-49886J10603D01*
G01*
G37*
G36*
G01*
X150410400Y-115465509D02*
X149236623Y-115216015D01*
G75*
G02*
X149197340Y-115155526I10603J49886D01*
G01*
X149384461Y-114275194D01*
G75*
G02*
X149444950Y-114235911I49886J-10603D01*
G01*
X150618727Y-114485405D01*
G75*
G02*
X150658010Y-114545894I-10603J-49886D01*
G01*
X150470889Y-115426226D01*
G75*
G02*
X150410400Y-115465509I-49886J10603D01*
G01*
G37*
G36*
G01*
X151096508Y-112237621D02*
X149922731Y-111988127D01*
G75*
G02*
X149883448Y-111927638I10603J49886D01*
G01*
X150070569Y-111047306D01*
G75*
G02*
X150131058Y-111008023I49886J-10603D01*
G01*
X151304835Y-111257517D01*
G75*
G02*
X151344118Y-111318006I-10603J-49886D01*
G01*
X151156997Y-112198338D01*
G75*
G02*
X151096508Y-112237621I-49886J10603D01*
G01*
G37*
G36*
G01*
X155766537Y-136079538D02*
X154592760Y-135830044D01*
G75*
G02*
X154553477Y-135769555I10603J49886D01*
G01*
X154740598Y-134889223D01*
G75*
G02*
X154801087Y-134849940I49886J-10603D01*
G01*
X155974864Y-135099434D01*
G75*
G02*
X156014147Y-135159923I-10603J-49886D01*
G01*
X155827026Y-136040255D01*
G75*
G02*
X155766537Y-136079538I-49886J10603D01*
G01*
G37*
G36*
G01*
X156452645Y-132851650D02*
X155278868Y-132602156D01*
G75*
G02*
X155239585Y-132541667I10603J49886D01*
G01*
X155426706Y-131661335D01*
G75*
G02*
X155487195Y-131622052I49886J-10603D01*
G01*
X156660972Y-131871546D01*
G75*
G02*
X156700255Y-131932035I-10603J-49886D01*
G01*
X156513134Y-132812367D01*
G75*
G02*
X156452645Y-132851650I-49886J10603D01*
G01*
G37*
G36*
G01*
X157634315Y-58574177D02*
X156460538Y-58324683D01*
G75*
G02*
X156421255Y-58264194I10603J49886D01*
G01*
X156608376Y-57383862D01*
G75*
G02*
X156668865Y-57344579I49886J-10603D01*
G01*
X157842642Y-57594073D01*
G75*
G02*
X157881925Y-57654562I-10603J-49886D01*
G01*
X157694804Y-58534894D01*
G75*
G02*
X157634315Y-58574177I-49886J10603D01*
G01*
G37*
G36*
G01*
X158320423Y-55346289D02*
X157146646Y-55096795D01*
G75*
G02*
X157107363Y-55036306I10603J49886D01*
G01*
X157294484Y-54155974D01*
G75*
G02*
X157354973Y-54116691I49886J-10603D01*
G01*
X158528750Y-54366185D01*
G75*
G02*
X158568033Y-54426674I-10603J-49886D01*
G01*
X158380912Y-55307006D01*
G75*
G02*
X158320423Y-55346289I-49886J10603D01*
G01*
G37*
G36*
G01*
X182897529Y-80278776D02*
X181723752Y-80528270D01*
G75*
G02*
X181663263Y-80488987I-10603J49886D01*
G01*
X181476142Y-79608655D01*
G75*
G02*
X181515425Y-79548166I49886J10603D01*
G01*
X182689202Y-79298672D01*
G75*
G02*
X182749691Y-79337955I10603J-49886D01*
G01*
X182936812Y-80218287D01*
G75*
G02*
X182897529Y-80278776I-49886J-10603D01*
G01*
G37*
G36*
G01*
X182211421Y-77050888D02*
X181037644Y-77300382D01*
G75*
G02*
X180977155Y-77261099I-10603J49886D01*
G01*
X180790034Y-76380767D01*
G75*
G02*
X180829317Y-76320278I49886J10603D01*
G01*
X182003094Y-76070784D01*
G75*
G02*
X182063583Y-76110067I10603J-49886D01*
G01*
X182250704Y-76990399D01*
G75*
G02*
X182211421Y-77050888I-49886J-10603D01*
G01*
G37*
G36*
G01*
X191516650Y-97922328D02*
X190342873Y-98171822D01*
G75*
G02*
X190282384Y-98132539I-10603J49886D01*
G01*
X190095263Y-97252207D01*
G75*
G02*
X190134546Y-97191718I49886J10603D01*
G01*
X191308323Y-96942224D01*
G75*
G02*
X191368812Y-96981507I10603J-49886D01*
G01*
X191555933Y-97861839D01*
G75*
G02*
X191516650Y-97922328I-49886J-10603D01*
G01*
G37*
G36*
G01*
X190830542Y-94694440D02*
X189656765Y-94943934D01*
G75*
G02*
X189596276Y-94904651I-10603J49886D01*
G01*
X189409155Y-94024319D01*
G75*
G02*
X189448438Y-93963830I49886J10603D01*
G01*
X190622215Y-93714336D01*
G75*
G02*
X190682704Y-93753619I10603J-49886D01*
G01*
X190869825Y-94633951D01*
G75*
G02*
X190830542Y-94694440I-49886J-10603D01*
G01*
G37*
G36*
G01*
X200135771Y-115565880D02*
X198961994Y-115815374D01*
G75*
G02*
X198901505Y-115776091I-10603J49886D01*
G01*
X198714384Y-114895759D01*
G75*
G02*
X198753667Y-114835270I49886J10603D01*
G01*
X199927444Y-114585776D01*
G75*
G02*
X199987933Y-114625059I10603J-49886D01*
G01*
X200175054Y-115505391D01*
G75*
G02*
X200135771Y-115565880I-49886J-10603D01*
G01*
G37*
G36*
G01*
X199449663Y-112337992D02*
X198275886Y-112587486D01*
G75*
G02*
X198215397Y-112548203I-10603J49886D01*
G01*
X198028276Y-111667871D01*
G75*
G02*
X198067559Y-111607382I49886J10603D01*
G01*
X199241336Y-111357888D01*
G75*
G02*
X199301825Y-111397171I10603J-49886D01*
G01*
X199488946Y-112277503D01*
G75*
G02*
X199449663Y-112337992I-49886J-10603D01*
G01*
G37*
G36*
G01*
X188253756Y-59664677D02*
X187079979Y-59914171D01*
G75*
G02*
X187019490Y-59874888I-10603J49886D01*
G01*
X186832369Y-58994556D01*
G75*
G02*
X186871652Y-58934067I49886J10603D01*
G01*
X188045429Y-58684573D01*
G75*
G02*
X188105918Y-58723856I10603J-49886D01*
G01*
X188293039Y-59604188D01*
G75*
G02*
X188253756Y-59664677I-49886J-10603D01*
G01*
G37*
G36*
G01*
X187567648Y-56436789D02*
X186393871Y-56686283D01*
G75*
G02*
X186333382Y-56647000I-10603J49886D01*
G01*
X186146261Y-55766668D01*
G75*
G02*
X186185544Y-55706179I49886J10603D01*
G01*
X187359321Y-55456685D01*
G75*
G02*
X187419810Y-55495968I10603J-49886D01*
G01*
X187606931Y-56376300D01*
G75*
G02*
X187567648Y-56436789I-49886J-10603D01*
G01*
G37*
G36*
G01*
X201531240Y-76318058D02*
X200357463Y-76567552D01*
G75*
G02*
X200296974Y-76528269I-10603J49886D01*
G01*
X200109853Y-75647937D01*
G75*
G02*
X200149136Y-75587448I49886J10603D01*
G01*
X201322913Y-75337954D01*
G75*
G02*
X201383402Y-75377237I10603J-49886D01*
G01*
X201570523Y-76257569D01*
G75*
G02*
X201531240Y-76318058I-49886J-10603D01*
G01*
G37*
G36*
G01*
X200845132Y-73090170D02*
X199671355Y-73339664D01*
G75*
G02*
X199610866Y-73300381I-10603J49886D01*
G01*
X199423745Y-72420049D01*
G75*
G02*
X199463028Y-72359560I49886J10603D01*
G01*
X200636805Y-72110066D01*
G75*
G02*
X200697294Y-72149349I10603J-49886D01*
G01*
X200884415Y-73029681D01*
G75*
G02*
X200845132Y-73090170I-49886J-10603D01*
G01*
G37*
G36*
G01*
X210150361Y-93961610D02*
X208976584Y-94211104D01*
G75*
G02*
X208916095Y-94171821I-10603J49886D01*
G01*
X208728974Y-93291489D01*
G75*
G02*
X208768257Y-93231000I49886J10603D01*
G01*
X209942034Y-92981506D01*
G75*
G02*
X210002523Y-93020789I10603J-49886D01*
G01*
X210189644Y-93901121D01*
G75*
G02*
X210150361Y-93961610I-49886J-10603D01*
G01*
G37*
G36*
G01*
X209464253Y-90733722D02*
X208290476Y-90983216D01*
G75*
G02*
X208229987Y-90943933I-10603J49886D01*
G01*
X208042866Y-90063601D01*
G75*
G02*
X208082149Y-90003112I49886J10603D01*
G01*
X209255926Y-89753618D01*
G75*
G02*
X209316415Y-89792901I10603J-49886D01*
G01*
X209503536Y-90673233D01*
G75*
G02*
X209464253Y-90733722I-49886J-10603D01*
G01*
G37*
G36*
G01*
X218769483Y-111605162D02*
X217595706Y-111854656D01*
G75*
G02*
X217535217Y-111815373I-10603J49886D01*
G01*
X217348096Y-110935041D01*
G75*
G02*
X217387379Y-110874552I49886J10603D01*
G01*
X218561156Y-110625058D01*
G75*
G02*
X218621645Y-110664341I10603J-49886D01*
G01*
X218808766Y-111544673D01*
G75*
G02*
X218769483Y-111605162I-49886J-10603D01*
G01*
G37*
G36*
G01*
X218083375Y-108377274D02*
X216909598Y-108626768D01*
G75*
G02*
X216849109Y-108587485I-10603J49886D01*
G01*
X216661988Y-107707153D01*
G75*
G02*
X216701271Y-107646664I49886J10603D01*
G01*
X217875048Y-107397170D01*
G75*
G02*
X217935537Y-107436453I10603J-49886D01*
G01*
X218122658Y-108316785D01*
G75*
G02*
X218083375Y-108377274I-49886J-10603D01*
G01*
G37*
G36*
G01*
X211084172Y-132714287D02*
X209910395Y-132963781D01*
G75*
G02*
X209849906Y-132924498I-10603J49886D01*
G01*
X209662785Y-132044166D01*
G75*
G02*
X209702068Y-131983677I49886J10603D01*
G01*
X210875845Y-131734183D01*
G75*
G02*
X210936334Y-131773466I10603J-49886D01*
G01*
X211123455Y-132653798D01*
G75*
G02*
X211084172Y-132714287I-49886J-10603D01*
G01*
G37*
G36*
G01*
X210398064Y-129486399D02*
X209224287Y-129735893D01*
G75*
G02*
X209163798Y-129696610I-10603J49886D01*
G01*
X208976677Y-128816278D01*
G75*
G02*
X209015960Y-128755789I49886J10603D01*
G01*
X210189737Y-128506295D01*
G75*
G02*
X210250226Y-128545578I10603J-49886D01*
G01*
X210437347Y-129425910D01*
G75*
G02*
X210398064Y-129486399I-49886J-10603D01*
G01*
G37*
G36*
G01*
X206887468Y-55703959D02*
X205713691Y-55953453D01*
G75*
G02*
X205653202Y-55914170I-10603J49886D01*
G01*
X205466081Y-55033838D01*
G75*
G02*
X205505364Y-54973349I49886J10603D01*
G01*
X206679141Y-54723855D01*
G75*
G02*
X206739630Y-54763138I10603J-49886D01*
G01*
X206926751Y-55643470D01*
G75*
G02*
X206887468Y-55703959I-49886J-10603D01*
G01*
G37*
G36*
G01*
X206201360Y-52476071D02*
X205027583Y-52725565D01*
G75*
G02*
X204967094Y-52686282I-10603J49886D01*
G01*
X204779973Y-51805950D01*
G75*
G02*
X204819256Y-51745461I49886J10603D01*
G01*
X205993033Y-51495967D01*
G75*
G02*
X206053522Y-51535250I10603J-49886D01*
G01*
X206240643Y-52415582D01*
G75*
G02*
X206201360Y-52476071I-49886J-10603D01*
G01*
G37*
G36*
G01*
X220164952Y-72357341D02*
X218991175Y-72606835D01*
G75*
G02*
X218930686Y-72567552I-10603J49886D01*
G01*
X218743565Y-71687220D01*
G75*
G02*
X218782848Y-71626731I49886J10603D01*
G01*
X219956625Y-71377237D01*
G75*
G02*
X220017114Y-71416520I10603J-49886D01*
G01*
X220204235Y-72296852D01*
G75*
G02*
X220164952Y-72357341I-49886J-10603D01*
G01*
G37*
G36*
G01*
X219478844Y-69129453D02*
X218305067Y-69378947D01*
G75*
G02*
X218244578Y-69339664I-10603J49886D01*
G01*
X218057457Y-68459332D01*
G75*
G02*
X218096740Y-68398843I49886J10603D01*
G01*
X219270517Y-68149349D01*
G75*
G02*
X219331006Y-68188632I10603J-49886D01*
G01*
X219518127Y-69068964D01*
G75*
G02*
X219478844Y-69129453I-49886J-10603D01*
G01*
G37*
G36*
G01*
X228784073Y-90000893D02*
X227610296Y-90250387D01*
G75*
G02*
X227549807Y-90211104I-10603J49886D01*
G01*
X227362686Y-89330772D01*
G75*
G02*
X227401969Y-89270283I49886J10603D01*
G01*
X228575746Y-89020789D01*
G75*
G02*
X228636235Y-89060072I10603J-49886D01*
G01*
X228823356Y-89940404D01*
G75*
G02*
X228784073Y-90000893I-49886J-10603D01*
G01*
G37*
G36*
G01*
X228097965Y-86773005D02*
X226924188Y-87022499D01*
G75*
G02*
X226863699Y-86983216I-10603J49886D01*
G01*
X226676578Y-86102884D01*
G75*
G02*
X226715861Y-86042395I49886J10603D01*
G01*
X227889638Y-85792901D01*
G75*
G02*
X227950127Y-85832184I10603J-49886D01*
G01*
X228137248Y-86712516D01*
G75*
G02*
X228097965Y-86773005I-49886J-10603D01*
G01*
G37*
G36*
G01*
X237403194Y-107644445D02*
X236229417Y-107893939D01*
G75*
G02*
X236168928Y-107854656I-10603J49886D01*
G01*
X235981807Y-106974324D01*
G75*
G02*
X236021090Y-106913835I49886J10603D01*
G01*
X237194867Y-106664341D01*
G75*
G02*
X237255356Y-106703624I10603J-49886D01*
G01*
X237442477Y-107583956D01*
G75*
G02*
X237403194Y-107644445I-49886J-10603D01*
G01*
G37*
G36*
G01*
X236717086Y-104416557D02*
X235543309Y-104666051D01*
G75*
G02*
X235482820Y-104626768I-10603J49886D01*
G01*
X235295699Y-103746436D01*
G75*
G02*
X235334982Y-103685947I49886J10603D01*
G01*
X236508759Y-103436453D01*
G75*
G02*
X236569248Y-103475736I10603J-49886D01*
G01*
X236756369Y-104356068D01*
G75*
G02*
X236717086Y-104416557I-49886J-10603D01*
G01*
G37*
G36*
G01*
X225521180Y-51743242D02*
X224347403Y-51992736D01*
G75*
G02*
X224286914Y-51953453I-10603J49886D01*
G01*
X224099793Y-51073121D01*
G75*
G02*
X224139076Y-51012632I49886J10603D01*
G01*
X225312853Y-50763138D01*
G75*
G02*
X225373342Y-50802421I10603J-49886D01*
G01*
X225560463Y-51682753D01*
G75*
G02*
X225521180Y-51743242I-49886J-10603D01*
G01*
G37*
G36*
G01*
X224835072Y-48515354D02*
X223661295Y-48764848D01*
G75*
G02*
X223600806Y-48725565I-10603J49886D01*
G01*
X223413685Y-47845233D01*
G75*
G02*
X223452968Y-47784744I49886J10603D01*
G01*
X224626745Y-47535250D01*
G75*
G02*
X224687234Y-47574533I10603J-49886D01*
G01*
X224874355Y-48454865D01*
G75*
G02*
X224835072Y-48515354I-49886J-10603D01*
G01*
G37*
G36*
G01*
X238798664Y-68396623D02*
X237624887Y-68646117D01*
G75*
G02*
X237564398Y-68606834I-10603J49886D01*
G01*
X237377277Y-67726502D01*
G75*
G02*
X237416560Y-67666013I49886J10603D01*
G01*
X238590337Y-67416519D01*
G75*
G02*
X238650826Y-67455802I10603J-49886D01*
G01*
X238837947Y-68336134D01*
G75*
G02*
X238798664Y-68396623I-49886J-10603D01*
G01*
G37*
G36*
G01*
X238112556Y-65168735D02*
X236938779Y-65418229D01*
G75*
G02*
X236878290Y-65378946I-10603J49886D01*
G01*
X236691169Y-64498614D01*
G75*
G02*
X236730452Y-64438125I49886J10603D01*
G01*
X237904229Y-64188631D01*
G75*
G02*
X237964718Y-64227914I10603J-49886D01*
G01*
X238151839Y-65108246D01*
G75*
G02*
X238112556Y-65168735I-49886J-10603D01*
G01*
G37*
G36*
G01*
X247417785Y-86040175D02*
X246244008Y-86289669D01*
G75*
G02*
X246183519Y-86250386I-10603J49886D01*
G01*
X245996398Y-85370054D01*
G75*
G02*
X246035681Y-85309565I49886J10603D01*
G01*
X247209458Y-85060071D01*
G75*
G02*
X247269947Y-85099354I10603J-49886D01*
G01*
X247457068Y-85979686D01*
G75*
G02*
X247417785Y-86040175I-49886J-10603D01*
G01*
G37*
G36*
G01*
X246731677Y-82812287D02*
X245557900Y-83061781D01*
G75*
G02*
X245497411Y-83022498I-10603J49886D01*
G01*
X245310290Y-82142166D01*
G75*
G02*
X245349573Y-82081677I49886J10603D01*
G01*
X246523350Y-81832183D01*
G75*
G02*
X246583839Y-81871466I10603J-49886D01*
G01*
X246770960Y-82751798D01*
G75*
G02*
X246731677Y-82812287I-49886J-10603D01*
G01*
G37*
G36*
G01*
X256036906Y-103683727D02*
X254863129Y-103933221D01*
G75*
G02*
X254802640Y-103893938I-10603J49886D01*
G01*
X254615519Y-103013606D01*
G75*
G02*
X254654802Y-102953117I49886J10603D01*
G01*
X255828579Y-102703623D01*
G75*
G02*
X255889068Y-102742906I10603J-49886D01*
G01*
X256076189Y-103623238D01*
G75*
G02*
X256036906Y-103683727I-49886J-10603D01*
G01*
G37*
G36*
G01*
X255350798Y-100455839D02*
X254177021Y-100705333D01*
G75*
G02*
X254116532Y-100666050I-10603J49886D01*
G01*
X253929411Y-99785718D01*
G75*
G02*
X253968694Y-99725229I49886J10603D01*
G01*
X255142471Y-99475735D01*
G75*
G02*
X255202960Y-99515018I10603J-49886D01*
G01*
X255390081Y-100395350D01*
G75*
G02*
X255350798Y-100455839I-49886J-10603D01*
G01*
G37*
G36*
G01*
X250680808Y-124297775D02*
X249507031Y-124547269D01*
G75*
G02*
X249446542Y-124507986I-10603J49886D01*
G01*
X249259421Y-123627654D01*
G75*
G02*
X249298704Y-123567165I49886J10603D01*
G01*
X250472481Y-123317671D01*
G75*
G02*
X250532970Y-123356954I10603J-49886D01*
G01*
X250720091Y-124237286D01*
G75*
G02*
X250680808Y-124297775I-49886J-10603D01*
G01*
G37*
G36*
G01*
X249994700Y-121069887D02*
X248820923Y-121319381D01*
G75*
G02*
X248760434Y-121280098I-10603J49886D01*
G01*
X248573313Y-120399766D01*
G75*
G02*
X248612596Y-120339277I49886J10603D01*
G01*
X249786373Y-120089783D01*
G75*
G02*
X249846862Y-120129066I10603J-49886D01*
G01*
X250033983Y-121009398D01*
G75*
G02*
X249994700Y-121069887I-49886J-10603D01*
G01*
G37*
G36*
G01*
X244154891Y-47782524D02*
X242981114Y-48032018D01*
G75*
G02*
X242920625Y-47992735I-10603J49886D01*
G01*
X242733504Y-47112403D01*
G75*
G02*
X242772787Y-47051914I49886J10603D01*
G01*
X243946564Y-46802420D01*
G75*
G02*
X244007053Y-46841703I10603J-49886D01*
G01*
X244194174Y-47722035D01*
G75*
G02*
X244154891Y-47782524I-49886J-10603D01*
G01*
G37*
G36*
G01*
X243468783Y-44554636D02*
X242295006Y-44804130D01*
G75*
G02*
X242234517Y-44764847I-10603J49886D01*
G01*
X242047396Y-43884515D01*
G75*
G02*
X242086679Y-43824026I49886J10603D01*
G01*
X243260456Y-43574532D01*
G75*
G02*
X243320945Y-43613815I10603J-49886D01*
G01*
X243508066Y-44494147D01*
G75*
G02*
X243468783Y-44554636I-49886J-10603D01*
G01*
G37*
G36*
G01*
X257432376Y-64435905D02*
X256258599Y-64685399D01*
G75*
G02*
X256198110Y-64646116I-10603J49886D01*
G01*
X256010989Y-63765784D01*
G75*
G02*
X256050272Y-63705295I49886J10603D01*
G01*
X257224049Y-63455801D01*
G75*
G02*
X257284538Y-63495084I10603J-49886D01*
G01*
X257471659Y-64375416D01*
G75*
G02*
X257432376Y-64435905I-49886J-10603D01*
G01*
G37*
G36*
G01*
X256746268Y-61208017D02*
X255572491Y-61457511D01*
G75*
G02*
X255512002Y-61418228I-10603J49886D01*
G01*
X255324881Y-60537896D01*
G75*
G02*
X255364164Y-60477407I49886J10603D01*
G01*
X256537941Y-60227913D01*
G75*
G02*
X256598430Y-60267196I10603J-49886D01*
G01*
X256785551Y-61147528D01*
G75*
G02*
X256746268Y-61208017I-49886J-10603D01*
G01*
G37*
G36*
G01*
X266625000Y-82746000D02*
X265425000Y-82746000D01*
G75*
G02*
X265374000Y-82695000I0J51000D01*
G01*
X265374000Y-81795000D01*
G75*
G02*
X265425000Y-81744000I51000J0D01*
G01*
X266625000Y-81744000D01*
G75*
G02*
X266676000Y-81795000I0J-51000D01*
G01*
X266676000Y-82695000D01*
G75*
G02*
X266625000Y-82746000I-51000J0D01*
G01*
G37*
G36*
G01*
X266625000Y-79446000D02*
X265425000Y-79446000D01*
G75*
G02*
X265374000Y-79395000I0J51000D01*
G01*
X265374000Y-78495000D01*
G75*
G02*
X265425000Y-78444000I51000J0D01*
G01*
X266625000Y-78444000D01*
G75*
G02*
X266676000Y-78495000I0J-51000D01*
G01*
X266676000Y-79395000D01*
G75*
G02*
X266625000Y-79446000I-51000J0D01*
G01*
G37*
G36*
G01*
X276150019Y-101795998D02*
X274950019Y-101795998D01*
G75*
G02*
X274899019Y-101744998I0J51000D01*
G01*
X274899019Y-100844998D01*
G75*
G02*
X274950019Y-100793998I51000J0D01*
G01*
X276150019Y-100793998D01*
G75*
G02*
X276201019Y-100844998I0J-51000D01*
G01*
X276201019Y-101744998D01*
G75*
G02*
X276150019Y-101795998I-51000J0D01*
G01*
G37*
G36*
G01*
X276150019Y-98495998D02*
X274950019Y-98495998D01*
G75*
G02*
X274899019Y-98444998I0J51000D01*
G01*
X274899019Y-97544998D01*
G75*
G02*
X274950019Y-97493998I51000J0D01*
G01*
X276150019Y-97493998D01*
G75*
G02*
X276201019Y-97544998I0J-51000D01*
G01*
X276201019Y-98444998D01*
G75*
G02*
X276150019Y-98495998I-51000J0D01*
G01*
G37*
G36*
G01*
X262945000Y-43145615D02*
X261745000Y-43145615D01*
G75*
G02*
X261694000Y-43094615I0J51000D01*
G01*
X261694000Y-42194615D01*
G75*
G02*
X261745000Y-42143615I51000J0D01*
G01*
X262945000Y-42143615D01*
G75*
G02*
X262996000Y-42194615I0J-51000D01*
G01*
X262996000Y-43094615D01*
G75*
G02*
X262945000Y-43145615I-51000J0D01*
G01*
G37*
G36*
G01*
X262945000Y-39845615D02*
X261745000Y-39845615D01*
G75*
G02*
X261694000Y-39794615I0J51000D01*
G01*
X261694000Y-38894615D01*
G75*
G02*
X261745000Y-38843615I51000J0D01*
G01*
X262945000Y-38843615D01*
G75*
G02*
X262996000Y-38894615I0J-51000D01*
G01*
X262996000Y-39794615D01*
G75*
G02*
X262945000Y-39845615I-51000J0D01*
G01*
G37*
G36*
G01*
X276635000Y-63696000D02*
X275435000Y-63696000D01*
G75*
G02*
X275384000Y-63645000I0J51000D01*
G01*
X275384000Y-62745000D01*
G75*
G02*
X275435000Y-62694000I51000J0D01*
G01*
X276635000Y-62694000D01*
G75*
G02*
X276686000Y-62745000I0J-51000D01*
G01*
X276686000Y-63645000D01*
G75*
G02*
X276635000Y-63696000I-51000J0D01*
G01*
G37*
G36*
G01*
X276635000Y-60396000D02*
X275435000Y-60396000D01*
G75*
G02*
X275384000Y-60345000I0J51000D01*
G01*
X275384000Y-59445000D01*
G75*
G02*
X275435000Y-59394000I51000J0D01*
G01*
X276635000Y-59394000D01*
G75*
G02*
X276686000Y-59445000I0J-51000D01*
G01*
X276686000Y-60345000D01*
G75*
G02*
X276635000Y-60396000I-51000J0D01*
G01*
G37*
G36*
G01*
X285675000Y-82746000D02*
X284475000Y-82746000D01*
G75*
G02*
X284424000Y-82695000I0J51000D01*
G01*
X284424000Y-81795000D01*
G75*
G02*
X284475000Y-81744000I51000J0D01*
G01*
X285675000Y-81744000D01*
G75*
G02*
X285726000Y-81795000I0J-51000D01*
G01*
X285726000Y-82695000D01*
G75*
G02*
X285675000Y-82746000I-51000J0D01*
G01*
G37*
G36*
G01*
X285675000Y-79446000D02*
X284475000Y-79446000D01*
G75*
G02*
X284424000Y-79395000I0J51000D01*
G01*
X284424000Y-78495000D01*
G75*
G02*
X284475000Y-78444000I51000J0D01*
G01*
X285675000Y-78444000D01*
G75*
G02*
X285726000Y-78495000I0J-51000D01*
G01*
X285726000Y-79395000D01*
G75*
G02*
X285675000Y-79446000I-51000J0D01*
G01*
G37*
G36*
G01*
X302343769Y-101795998D02*
X301143769Y-101795998D01*
G75*
G02*
X301092769Y-101744998I0J51000D01*
G01*
X301092769Y-100844998D01*
G75*
G02*
X301143769Y-100793998I51000J0D01*
G01*
X302343769Y-100793998D01*
G75*
G02*
X302394769Y-100844998I0J-51000D01*
G01*
X302394769Y-101744998D01*
G75*
G02*
X302343769Y-101795998I-51000J0D01*
G01*
G37*
G36*
G01*
X302343769Y-98495998D02*
X301143769Y-98495998D01*
G75*
G02*
X301092769Y-98444998I0J51000D01*
G01*
X301092769Y-97544998D01*
G75*
G02*
X301143769Y-97493998I51000J0D01*
G01*
X302343769Y-97493998D01*
G75*
G02*
X302394769Y-97544998I0J-51000D01*
G01*
X302394769Y-98444998D01*
G75*
G02*
X302343769Y-98495998I-51000J0D01*
G01*
G37*
G36*
G01*
X281995000Y-44646000D02*
X280795000Y-44646000D01*
G75*
G02*
X280744000Y-44595000I0J51000D01*
G01*
X280744000Y-43695000D01*
G75*
G02*
X280795000Y-43644000I51000J0D01*
G01*
X281995000Y-43644000D01*
G75*
G02*
X282046000Y-43695000I0J-51000D01*
G01*
X282046000Y-44595000D01*
G75*
G02*
X281995000Y-44646000I-51000J0D01*
G01*
G37*
G36*
G01*
X281995000Y-41346000D02*
X280795000Y-41346000D01*
G75*
G02*
X280744000Y-41295000I0J51000D01*
G01*
X280744000Y-40395000D01*
G75*
G02*
X280795000Y-40344000I51000J0D01*
G01*
X281995000Y-40344000D01*
G75*
G02*
X282046000Y-40395000I0J-51000D01*
G01*
X282046000Y-41295000D01*
G75*
G02*
X281995000Y-41346000I-51000J0D01*
G01*
G37*
G36*
G01*
X295685000Y-63696000D02*
X294485000Y-63696000D01*
G75*
G02*
X294434000Y-63645000I0J51000D01*
G01*
X294434000Y-62745000D01*
G75*
G02*
X294485000Y-62694000I51000J0D01*
G01*
X295685000Y-62694000D01*
G75*
G02*
X295736000Y-62745000I0J-51000D01*
G01*
X295736000Y-63645000D01*
G75*
G02*
X295685000Y-63696000I-51000J0D01*
G01*
G37*
G36*
G01*
X295685000Y-60396000D02*
X294485000Y-60396000D01*
G75*
G02*
X294434000Y-60345000I0J51000D01*
G01*
X294434000Y-59445000D01*
G75*
G02*
X294485000Y-59394000I51000J0D01*
G01*
X295685000Y-59394000D01*
G75*
G02*
X295736000Y-59445000I0J-51000D01*
G01*
X295736000Y-60345000D01*
G75*
G02*
X295685000Y-60396000I-51000J0D01*
G01*
G37*
G36*
G01*
X316631250Y-82746000D02*
X315431250Y-82746000D01*
G75*
G02*
X315380250Y-82695000I0J51000D01*
G01*
X315380250Y-81795000D01*
G75*
G02*
X315431250Y-81744000I51000J0D01*
G01*
X316631250Y-81744000D01*
G75*
G02*
X316682250Y-81795000I0J-51000D01*
G01*
X316682250Y-82695000D01*
G75*
G02*
X316631250Y-82746000I-51000J0D01*
G01*
G37*
G36*
G01*
X316631250Y-79446000D02*
X315431250Y-79446000D01*
G75*
G02*
X315380250Y-79395000I0J51000D01*
G01*
X315380250Y-78495000D01*
G75*
G02*
X315431250Y-78444000I51000J0D01*
G01*
X316631250Y-78444000D01*
G75*
G02*
X316682250Y-78495000I0J-51000D01*
G01*
X316682250Y-79395000D01*
G75*
G02*
X316631250Y-79446000I-51000J0D01*
G01*
G37*
G36*
G01*
X314249949Y-125608503D02*
X313049949Y-125608503D01*
G75*
G02*
X312998949Y-125557503I0J51000D01*
G01*
X312998949Y-124657503D01*
G75*
G02*
X313049949Y-124606503I51000J0D01*
G01*
X314249949Y-124606503D01*
G75*
G02*
X314300949Y-124657503I0J-51000D01*
G01*
X314300949Y-125557503D01*
G75*
G02*
X314249949Y-125608503I-51000J0D01*
G01*
G37*
G36*
G01*
X314249949Y-122308503D02*
X313049949Y-122308503D01*
G75*
G02*
X312998949Y-122257503I0J51000D01*
G01*
X312998949Y-121357503D01*
G75*
G02*
X313049949Y-121306503I51000J0D01*
G01*
X314249949Y-121306503D01*
G75*
G02*
X314300949Y-121357503I0J-51000D01*
G01*
X314300949Y-122257503D01*
G75*
G02*
X314249949Y-122308503I-51000J0D01*
G01*
G37*
G36*
G01*
X301045000Y-44646000D02*
X299845000Y-44646000D01*
G75*
G02*
X299794000Y-44595000I0J51000D01*
G01*
X299794000Y-43695000D01*
G75*
G02*
X299845000Y-43644000I51000J0D01*
G01*
X301045000Y-43644000D01*
G75*
G02*
X301096000Y-43695000I0J-51000D01*
G01*
X301096000Y-44595000D01*
G75*
G02*
X301045000Y-44646000I-51000J0D01*
G01*
G37*
G36*
G01*
X301045000Y-41346000D02*
X299845000Y-41346000D01*
G75*
G02*
X299794000Y-41295000I0J51000D01*
G01*
X299794000Y-40395000D01*
G75*
G02*
X299845000Y-40344000I51000J0D01*
G01*
X301045000Y-40344000D01*
G75*
G02*
X301096000Y-40395000I0J-51000D01*
G01*
X301096000Y-41295000D01*
G75*
G02*
X301045000Y-41346000I-51000J0D01*
G01*
G37*
G36*
G01*
X319505000Y-63696000D02*
X318305000Y-63696000D01*
G75*
G02*
X318254000Y-63645000I0J51000D01*
G01*
X318254000Y-62745000D01*
G75*
G02*
X318305000Y-62694000I51000J0D01*
G01*
X319505000Y-62694000D01*
G75*
G02*
X319556000Y-62745000I0J-51000D01*
G01*
X319556000Y-63645000D01*
G75*
G02*
X319505000Y-63696000I-51000J0D01*
G01*
G37*
G36*
G01*
X319505000Y-60396000D02*
X318305000Y-60396000D01*
G75*
G02*
X318254000Y-60345000I0J51000D01*
G01*
X318254000Y-59445000D01*
G75*
G02*
X318305000Y-59394000I51000J0D01*
G01*
X319505000Y-59394000D01*
G75*
G02*
X319556000Y-59445000I0J-51000D01*
G01*
X319556000Y-60345000D01*
G75*
G02*
X319505000Y-60396000I-51000J0D01*
G01*
G37*
G36*
G01*
X333299949Y-106558503D02*
X332099949Y-106558503D01*
G75*
G02*
X332048949Y-106507503I0J51000D01*
G01*
X332048949Y-105607503D01*
G75*
G02*
X332099949Y-105556503I51000J0D01*
G01*
X333299949Y-105556503D01*
G75*
G02*
X333350949Y-105607503I0J-51000D01*
G01*
X333350949Y-106507503D01*
G75*
G02*
X333299949Y-106558503I-51000J0D01*
G01*
G37*
G36*
G01*
X333299949Y-103258503D02*
X332099949Y-103258503D01*
G75*
G02*
X332048949Y-103207503I0J51000D01*
G01*
X332048949Y-102307503D01*
G75*
G02*
X332099949Y-102256503I51000J0D01*
G01*
X333299949Y-102256503D01*
G75*
G02*
X333350949Y-102307503I0J-51000D01*
G01*
X333350949Y-103207503D01*
G75*
G02*
X333299949Y-103258503I-51000J0D01*
G01*
G37*
G36*
G01*
X333299949Y-125608503D02*
X332099949Y-125608503D01*
G75*
G02*
X332048949Y-125557503I0J51000D01*
G01*
X332048949Y-124657503D01*
G75*
G02*
X332099949Y-124606503I51000J0D01*
G01*
X333299949Y-124606503D01*
G75*
G02*
X333350949Y-124657503I0J-51000D01*
G01*
X333350949Y-125557503D01*
G75*
G02*
X333299949Y-125608503I-51000J0D01*
G01*
G37*
G36*
G01*
X333299949Y-122308503D02*
X332099949Y-122308503D01*
G75*
G02*
X332048949Y-122257503I0J51000D01*
G01*
X332048949Y-121357503D01*
G75*
G02*
X332099949Y-121306503I51000J0D01*
G01*
X333299949Y-121306503D01*
G75*
G02*
X333350949Y-121357503I0J-51000D01*
G01*
X333350949Y-122257503D01*
G75*
G02*
X333299949Y-122308503I-51000J0D01*
G01*
G37*
G36*
G01*
X320095000Y-44646000D02*
X318895000Y-44646000D01*
G75*
G02*
X318844000Y-44595000I0J51000D01*
G01*
X318844000Y-43695000D01*
G75*
G02*
X318895000Y-43644000I51000J0D01*
G01*
X320095000Y-43644000D01*
G75*
G02*
X320146000Y-43695000I0J-51000D01*
G01*
X320146000Y-44595000D01*
G75*
G02*
X320095000Y-44646000I-51000J0D01*
G01*
G37*
G36*
G01*
X320095000Y-41346000D02*
X318895000Y-41346000D01*
G75*
G02*
X318844000Y-41295000I0J51000D01*
G01*
X318844000Y-40395000D01*
G75*
G02*
X318895000Y-40344000I51000J0D01*
G01*
X320095000Y-40344000D01*
G75*
G02*
X320146000Y-40395000I0J-51000D01*
G01*
X320146000Y-41295000D01*
G75*
G02*
X320095000Y-41346000I-51000J0D01*
G01*
G37*
G36*
G01*
X343907542Y-39883509D02*
X342707542Y-39883509D01*
G75*
G02*
X342656542Y-39832509I0J51000D01*
G01*
X342656542Y-38932509D01*
G75*
G02*
X342707542Y-38881509I51000J0D01*
G01*
X343907542Y-38881509D01*
G75*
G02*
X343958542Y-38932509I0J-51000D01*
G01*
X343958542Y-39832509D01*
G75*
G02*
X343907542Y-39883509I-51000J0D01*
G01*
G37*
G36*
G01*
X343907542Y-36583509D02*
X342707542Y-36583509D01*
G75*
G02*
X342656542Y-36532509I0J51000D01*
G01*
X342656542Y-35632509D01*
G75*
G02*
X342707542Y-35581509I51000J0D01*
G01*
X343907542Y-35581509D01*
G75*
G02*
X343958542Y-35632509I0J-51000D01*
G01*
X343958542Y-36532509D01*
G75*
G02*
X343907542Y-36583509I-51000J0D01*
G01*
G37*
G36*
G01*
X348080000Y-58933516D02*
X346880000Y-58933516D01*
G75*
G02*
X346829000Y-58882516I0J51000D01*
G01*
X346829000Y-57982516D01*
G75*
G02*
X346880000Y-57931516I51000J0D01*
G01*
X348080000Y-57931516D01*
G75*
G02*
X348131000Y-57982516I0J-51000D01*
G01*
X348131000Y-58882516D01*
G75*
G02*
X348080000Y-58933516I-51000J0D01*
G01*
G37*
G36*
G01*
X348080000Y-55633516D02*
X346880000Y-55633516D01*
G75*
G02*
X346829000Y-55582516I0J51000D01*
G01*
X346829000Y-54682516D01*
G75*
G02*
X346880000Y-54631516I51000J0D01*
G01*
X348080000Y-54631516D01*
G75*
G02*
X348131000Y-54682516I0J-51000D01*
G01*
X348131000Y-55582516D01*
G75*
G02*
X348080000Y-55633516I-51000J0D01*
G01*
G37*
G36*
G01*
X352349949Y-77983519D02*
X351149949Y-77983519D01*
G75*
G02*
X351098949Y-77932519I0J51000D01*
G01*
X351098949Y-77032519D01*
G75*
G02*
X351149949Y-76981519I51000J0D01*
G01*
X352349949Y-76981519D01*
G75*
G02*
X352400949Y-77032519I0J-51000D01*
G01*
X352400949Y-77932519D01*
G75*
G02*
X352349949Y-77983519I-51000J0D01*
G01*
G37*
G36*
G01*
X352349949Y-74683519D02*
X351149949Y-74683519D01*
G75*
G02*
X351098949Y-74632519I0J51000D01*
G01*
X351098949Y-73732519D01*
G75*
G02*
X351149949Y-73681519I51000J0D01*
G01*
X352349949Y-73681519D01*
G75*
G02*
X352400949Y-73732519I0J-51000D01*
G01*
X352400949Y-74632519D01*
G75*
G02*
X352349949Y-74683519I-51000J0D01*
G01*
G37*
G36*
G01*
X352349949Y-125608503D02*
X351149949Y-125608503D01*
G75*
G02*
X351098949Y-125557503I0J51000D01*
G01*
X351098949Y-124657503D01*
G75*
G02*
X351149949Y-124606503I51000J0D01*
G01*
X352349949Y-124606503D01*
G75*
G02*
X352400949Y-124657503I0J-51000D01*
G01*
X352400949Y-125557503D01*
G75*
G02*
X352349949Y-125608503I-51000J0D01*
G01*
G37*
G36*
G01*
X352349949Y-122308503D02*
X351149949Y-122308503D01*
G75*
G02*
X351098949Y-122257503I0J51000D01*
G01*
X351098949Y-121357503D01*
G75*
G02*
X351149949Y-121306503I51000J0D01*
G01*
X352349949Y-121306503D01*
G75*
G02*
X352400949Y-121357503I0J-51000D01*
G01*
X352400949Y-122257503D01*
G75*
G02*
X352349949Y-122308503I-51000J0D01*
G01*
G37*
G36*
G01*
X219825000Y-27266000D02*
X219825000Y-25566000D01*
G75*
G02*
X219876000Y-25515000I51000J0D01*
G01*
X221576000Y-25515000D01*
G75*
G02*
X221627000Y-25566000I0J-51000D01*
G01*
X221627000Y-27266000D01*
G75*
G02*
X221576000Y-27317000I-51000J0D01*
G01*
X219876000Y-27317000D01*
G75*
G02*
X219825000Y-27266000I0J51000D01*
G01*
G37*
G36*
G01*
X217285000Y-27266000D02*
X217285000Y-25566000D01*
G75*
G02*
X217336000Y-25515000I51000J0D01*
G01*
X219036000Y-25515000D01*
G75*
G02*
X219087000Y-25566000I0J-51000D01*
G01*
X219087000Y-27266000D01*
G75*
G02*
X219036000Y-27317000I-51000J0D01*
G01*
X217336000Y-27317000D01*
G75*
G02*
X217285000Y-27266000I0J51000D01*
G01*
G37*
G36*
G01*
X214745000Y-27266000D02*
X214745000Y-25566000D01*
G75*
G02*
X214796000Y-25515000I51000J0D01*
G01*
X216496000Y-25515000D01*
G75*
G02*
X216547000Y-25566000I0J-51000D01*
G01*
X216547000Y-27266000D01*
G75*
G02*
X216496000Y-27317000I-51000J0D01*
G01*
X214796000Y-27317000D01*
G75*
G02*
X214745000Y-27266000I0J51000D01*
G01*
G37*
G36*
G01*
X212205000Y-27266000D02*
X212205000Y-25566000D01*
G75*
G02*
X212256000Y-25515000I51000J0D01*
G01*
X213956000Y-25515000D01*
G75*
G02*
X214007000Y-25566000I0J-51000D01*
G01*
X214007000Y-27266000D01*
G75*
G02*
X213956000Y-27317000I-51000J0D01*
G01*
X212256000Y-27317000D01*
G75*
G02*
X212205000Y-27266000I0J51000D01*
G01*
G37*
G36*
G01*
X209665000Y-27266000D02*
X209665000Y-25566000D01*
G75*
G02*
X209716000Y-25515000I51000J0D01*
G01*
X211416000Y-25515000D01*
G75*
G02*
X211467000Y-25566000I0J-51000D01*
G01*
X211467000Y-27266000D01*
G75*
G02*
X211416000Y-27317000I-51000J0D01*
G01*
X209716000Y-27317000D01*
G75*
G02*
X209665000Y-27266000I0J51000D01*
G01*
G37*
G36*
G01*
X207125000Y-27266000D02*
X207125000Y-25566000D01*
G75*
G02*
X207176000Y-25515000I51000J0D01*
G01*
X208876000Y-25515000D01*
G75*
G02*
X208927000Y-25566000I0J-51000D01*
G01*
X208927000Y-27266000D01*
G75*
G02*
X208876000Y-27317000I-51000J0D01*
G01*
X207176000Y-27317000D01*
G75*
G02*
X207125000Y-27266000I0J51000D01*
G01*
G37*
G36*
G01*
X140323000Y-27266000D02*
X140323000Y-25566000D01*
G75*
G02*
X140374000Y-25515000I51000J0D01*
G01*
X142074000Y-25515000D01*
G75*
G02*
X142125000Y-25566000I0J-51000D01*
G01*
X142125000Y-27266000D01*
G75*
G02*
X142074000Y-27317000I-51000J0D01*
G01*
X140374000Y-27317000D01*
G75*
G02*
X140323000Y-27266000I0J51000D01*
G01*
G37*
G36*
G01*
X137783000Y-27266000D02*
X137783000Y-25566000D01*
G75*
G02*
X137834000Y-25515000I51000J0D01*
G01*
X139534000Y-25515000D01*
G75*
G02*
X139585000Y-25566000I0J-51000D01*
G01*
X139585000Y-27266000D01*
G75*
G02*
X139534000Y-27317000I-51000J0D01*
G01*
X137834000Y-27317000D01*
G75*
G02*
X137783000Y-27266000I0J51000D01*
G01*
G37*
G36*
G01*
X135243000Y-27266000D02*
X135243000Y-25566000D01*
G75*
G02*
X135294000Y-25515000I51000J0D01*
G01*
X136994000Y-25515000D01*
G75*
G02*
X137045000Y-25566000I0J-51000D01*
G01*
X137045000Y-27266000D01*
G75*
G02*
X136994000Y-27317000I-51000J0D01*
G01*
X135294000Y-27317000D01*
G75*
G02*
X135243000Y-27266000I0J51000D01*
G01*
G37*
G36*
G01*
X132703000Y-27266000D02*
X132703000Y-25566000D01*
G75*
G02*
X132754000Y-25515000I51000J0D01*
G01*
X134454000Y-25515000D01*
G75*
G02*
X134505000Y-25566000I0J-51000D01*
G01*
X134505000Y-27266000D01*
G75*
G02*
X134454000Y-27317000I-51000J0D01*
G01*
X132754000Y-27317000D01*
G75*
G02*
X132703000Y-27266000I0J51000D01*
G01*
G37*
G36*
G01*
X161331000Y-32146000D02*
X161331000Y-30846000D01*
G75*
G02*
X161382000Y-30795000I51000J0D01*
G01*
X162882000Y-30795000D01*
G75*
G02*
X162933000Y-30846000I0J-51000D01*
G01*
X162933000Y-32146000D01*
G75*
G02*
X162882000Y-32197000I-51000J0D01*
G01*
X161382000Y-32197000D01*
G75*
G02*
X161331000Y-32146000I0J51000D01*
G01*
G37*
G36*
G01*
X158631000Y-32146000D02*
X158631000Y-30846000D01*
G75*
G02*
X158682000Y-30795000I51000J0D01*
G01*
X160182000Y-30795000D01*
G75*
G02*
X160233000Y-30846000I0J-51000D01*
G01*
X160233000Y-32146000D01*
G75*
G02*
X160182000Y-32197000I-51000J0D01*
G01*
X158682000Y-32197000D01*
G75*
G02*
X158631000Y-32146000I0J51000D01*
G01*
G37*
G36*
G01*
X158631000Y-30114000D02*
X158631000Y-28814000D01*
G75*
G02*
X158682000Y-28763000I51000J0D01*
G01*
X160182000Y-28763000D01*
G75*
G02*
X160233000Y-28814000I0J-51000D01*
G01*
X160233000Y-30114000D01*
G75*
G02*
X160182000Y-30165000I-51000J0D01*
G01*
X158682000Y-30165000D01*
G75*
G02*
X158631000Y-30114000I0J51000D01*
G01*
G37*
G36*
G01*
X161331000Y-30114000D02*
X161331000Y-28814000D01*
G75*
G02*
X161382000Y-28763000I51000J0D01*
G01*
X162882000Y-28763000D01*
G75*
G02*
X162933000Y-28814000I0J-51000D01*
G01*
X162933000Y-30114000D01*
G75*
G02*
X162882000Y-30165000I-51000J0D01*
G01*
X161382000Y-30165000D01*
G75*
G02*
X161331000Y-30114000I0J51000D01*
G01*
G37*
G36*
G01*
X193660000Y-26805000D02*
X194960000Y-26805000D01*
G75*
G02*
X195011000Y-26856000I0J-51000D01*
G01*
X195011000Y-28356000D01*
G75*
G02*
X194960000Y-28407000I-51000J0D01*
G01*
X193660000Y-28407000D01*
G75*
G02*
X193609000Y-28356000I0J51000D01*
G01*
X193609000Y-26856000D01*
G75*
G02*
X193660000Y-26805000I51000J0D01*
G01*
G37*
G36*
G01*
X193660000Y-29505000D02*
X194960000Y-29505000D01*
G75*
G02*
X195011000Y-29556000I0J-51000D01*
G01*
X195011000Y-31056000D01*
G75*
G02*
X194960000Y-31107000I-51000J0D01*
G01*
X193660000Y-31107000D01*
G75*
G02*
X193609000Y-31056000I0J51000D01*
G01*
X193609000Y-29556000D01*
G75*
G02*
X193660000Y-29505000I51000J0D01*
G01*
G37*
G36*
G01*
X169022000Y-49585000D02*
X170322000Y-49585000D01*
G75*
G02*
X170373000Y-49636000I0J-51000D01*
G01*
X170373000Y-51136000D01*
G75*
G02*
X170322000Y-51187000I-51000J0D01*
G01*
X169022000Y-51187000D01*
G75*
G02*
X168971000Y-51136000I0J51000D01*
G01*
X168971000Y-49636000D01*
G75*
G02*
X169022000Y-49585000I51000J0D01*
G01*
G37*
G36*
G01*
X169022000Y-52285000D02*
X170322000Y-52285000D01*
G75*
G02*
X170373000Y-52336000I0J-51000D01*
G01*
X170373000Y-53836000D01*
G75*
G02*
X170322000Y-53887000I-51000J0D01*
G01*
X169022000Y-53887000D01*
G75*
G02*
X168971000Y-53836000I0J51000D01*
G01*
X168971000Y-52336000D01*
G75*
G02*
X169022000Y-52285000I51000J0D01*
G01*
G37*
D14*
X49880000Y-33640000D03*
X43530000Y-36180000D03*
D15*
X47340000Y-38720000D03*
D16*
X42260000Y-38720000D03*
X52420000Y-38720000D03*
X53020000Y-57770000D03*
X42860000Y-57770000D03*
D15*
X47940000Y-57770000D03*
D14*
X44130000Y-55230000D03*
X50480000Y-52690000D03*
D16*
X51336250Y-76820000D03*
X41176250Y-76820000D03*
D15*
X46256250Y-76820000D03*
D14*
X42446250Y-74280000D03*
X48796250Y-71740000D03*
D17*
X58743750Y-88870000D03*
X34943750Y-88870000D03*
D15*
X34943750Y-104110000D03*
X58743750Y-104110000D03*
D16*
X51923750Y-95870000D03*
X41763750Y-95870000D03*
D15*
X46843750Y-95870000D03*
D14*
X43033750Y-93330000D03*
X49383750Y-90790000D03*
D16*
X44790000Y-114920000D03*
X34630000Y-114920000D03*
D15*
X39710000Y-114920000D03*
D14*
X35900000Y-112380000D03*
X42250000Y-109840000D03*
X68930000Y-33640000D03*
X62580000Y-36180000D03*
D15*
X66390000Y-38720000D03*
D16*
X61310000Y-38720000D03*
X71470000Y-38720000D03*
D14*
X74290000Y-52690000D03*
X67940000Y-55230000D03*
D15*
X71750000Y-57770000D03*
D16*
X66670000Y-57770000D03*
X76830000Y-57770000D03*
D14*
X74990000Y-71740000D03*
X68640000Y-74280000D03*
D15*
X72450000Y-76820000D03*
D16*
X67370000Y-76820000D03*
X77530000Y-76820000D03*
D14*
X80340000Y-90790000D03*
X73990000Y-93330000D03*
D15*
X77800000Y-95870000D03*
D16*
X72720000Y-95870000D03*
X82880000Y-95870000D03*
D14*
X87980000Y-32139615D03*
X81630000Y-34679615D03*
D15*
X85440000Y-37219615D03*
D16*
X80360000Y-37219615D03*
X90520000Y-37219615D03*
D14*
X95793034Y-53652945D03*
X89053701Y-54817200D03*
D15*
X92252348Y-58093839D03*
D16*
X87283358Y-57037647D03*
X97221338Y-59150030D03*
D14*
X96490701Y-73276838D03*
X89751368Y-74441093D03*
D15*
X92950015Y-77717732D03*
D16*
X87981025Y-76661540D03*
X97919005Y-78773923D03*
D14*
X101846783Y-93890907D03*
X95107450Y-95055162D03*
D15*
X98306097Y-98331801D03*
D16*
X93337107Y-97275609D03*
X103275087Y-99387992D03*
X103972788Y-119011881D03*
X94034808Y-116899498D03*
D15*
X99003798Y-117955689D03*
D14*
X95805151Y-114679051D03*
X102544484Y-113514795D03*
X109070692Y-36999602D03*
X102331359Y-38163857D03*
D15*
X105530006Y-41440496D03*
D16*
X100561016Y-40384304D03*
X110498996Y-42496687D03*
D14*
X114426744Y-57613671D03*
X107687411Y-58777926D03*
D15*
X110886058Y-62054565D03*
D16*
X105917068Y-60998373D03*
X115855048Y-63110756D03*
D14*
X115124411Y-77237565D03*
X108385078Y-78401820D03*
D15*
X111583725Y-81678459D03*
D16*
X106614735Y-80622267D03*
X116552715Y-82734650D03*
D14*
X120480493Y-97851633D03*
X113741160Y-99015888D03*
D15*
X116939807Y-102292527D03*
D16*
X111970817Y-101236335D03*
X121908797Y-103348718D03*
D14*
X127704403Y-40960320D03*
X120965070Y-42124575D03*
D15*
X124163717Y-45401214D03*
D16*
X119194727Y-44345022D03*
X129132707Y-46457405D03*
D14*
X133060454Y-61574398D03*
X126321121Y-62738653D03*
D15*
X129519768Y-66015292D03*
D16*
X124550778Y-64959100D03*
X134488758Y-67071483D03*
D14*
X133758121Y-81198292D03*
X127018788Y-82362547D03*
D15*
X130217435Y-85639186D03*
D16*
X125248445Y-84582994D03*
X135186425Y-86695377D03*
D14*
X139114202Y-101812360D03*
X132374869Y-102976615D03*
D15*
X135573516Y-106253254D03*
D16*
X130604526Y-105197062D03*
X140542506Y-107309445D03*
D17*
X141797364Y-134208124D03*
X118517451Y-129259826D03*
D15*
X121686025Y-114352856D03*
X144965938Y-119301154D03*
D16*
X136581779Y-125943133D03*
X126643799Y-123830750D03*
D15*
X131612789Y-124886942D03*
D14*
X128414142Y-121610303D03*
X135153475Y-120446047D03*
X146338115Y-44921038D03*
X139598782Y-46085293D03*
D15*
X142797429Y-49361932D03*
D16*
X137828439Y-48305740D03*
X147766419Y-50418123D03*
D14*
X151694164Y-65535125D03*
X144954831Y-66699380D03*
D15*
X148153478Y-69976019D03*
D16*
X143184488Y-68919827D03*
X153122468Y-71032210D03*
D14*
X152391831Y-85159019D03*
X145652498Y-86323274D03*
D15*
X148851145Y-89599913D03*
D16*
X143882155Y-88543721D03*
X153820135Y-90656104D03*
D14*
X157747912Y-105773087D03*
X151008579Y-106937342D03*
D15*
X154207226Y-110213981D03*
D16*
X149238236Y-109157789D03*
X159176216Y-111270172D03*
D14*
X163104049Y-126387116D03*
X156364716Y-127551371D03*
D15*
X159563363Y-130828010D03*
D16*
X154594373Y-129771818D03*
X164532353Y-131884201D03*
D14*
X164971827Y-48881755D03*
X158232494Y-50046010D03*
D15*
X161431141Y-53322649D03*
D16*
X156462151Y-52266457D03*
X166400131Y-54378840D03*
D14*
X185660941Y-68438939D03*
X179977800Y-72243673D03*
D15*
X184232638Y-73936024D03*
D16*
X179263648Y-74992215D03*
X189201628Y-72879833D03*
D14*
X194280062Y-86082491D03*
X188596921Y-89887225D03*
D15*
X192851759Y-91579576D03*
D16*
X187882769Y-92635767D03*
X197820749Y-90523385D03*
D14*
X202899183Y-103726043D03*
X197216042Y-107530777D03*
D15*
X201470880Y-109223128D03*
D16*
X196501890Y-110279319D03*
X206439870Y-108166937D03*
D14*
X191017168Y-47824840D03*
X185334027Y-51629574D03*
D15*
X189588865Y-53321925D03*
D16*
X184619875Y-54378116D03*
X194557855Y-52265734D03*
D14*
X204294652Y-64478221D03*
X198611511Y-68282955D03*
D15*
X202866349Y-69975306D03*
D16*
X197897359Y-71031497D03*
X207835339Y-68919115D03*
D14*
X212913773Y-82121773D03*
X207230632Y-85926507D03*
D15*
X211485470Y-87618858D03*
D16*
X206516480Y-88675049D03*
X216454460Y-86562667D03*
D14*
X221532895Y-99765325D03*
X215849754Y-103570059D03*
D15*
X220104592Y-105262410D03*
D16*
X215135602Y-106318601D03*
X225073582Y-104206219D03*
D17*
X225514604Y-130744422D03*
X202234691Y-135692720D03*
D15*
X199066117Y-120785751D03*
X222346030Y-115837453D03*
D16*
X217388255Y-125315347D03*
X207450276Y-127427729D03*
D15*
X212419266Y-126371538D03*
D14*
X208164428Y-124679187D03*
X213847569Y-120874453D03*
X209650880Y-43864122D03*
X203967739Y-47668856D03*
D15*
X208222577Y-49361207D03*
D16*
X203253587Y-50417398D03*
X213191567Y-48305016D03*
D14*
X222928364Y-60517504D03*
X217245223Y-64322238D03*
D15*
X221500061Y-66014589D03*
D16*
X216531071Y-67070780D03*
X226469051Y-64958398D03*
D14*
X231547485Y-78161056D03*
X225864344Y-81965790D03*
D15*
X230119182Y-83658141D03*
D16*
X225150192Y-84714332D03*
X235088172Y-82601950D03*
D14*
X240166606Y-95804608D03*
X234483465Y-99609342D03*
D15*
X238738303Y-101301693D03*
D16*
X233769313Y-102357884D03*
X243707293Y-100245502D03*
D14*
X228284592Y-39903405D03*
X222601451Y-43708139D03*
D15*
X226856289Y-45400490D03*
D16*
X221887299Y-46456681D03*
X231825279Y-44344299D03*
D14*
X241562076Y-56556786D03*
X235878935Y-60361520D03*
D15*
X240133773Y-62053871D03*
D16*
X235164783Y-63110062D03*
X245102763Y-60997680D03*
D14*
X250181197Y-74200338D03*
X244498056Y-78005072D03*
D15*
X248752894Y-79697423D03*
D16*
X243783904Y-80753614D03*
X253721884Y-78641232D03*
D14*
X258800318Y-91843890D03*
X253117177Y-95648624D03*
D15*
X257372015Y-97340975D03*
D16*
X252403025Y-98397166D03*
X262341005Y-96284784D03*
X256984892Y-116898834D03*
X247046912Y-119011217D03*
D15*
X252015902Y-117955026D03*
D14*
X247761064Y-116262674D03*
X253444205Y-112457940D03*
X246918303Y-35942687D03*
X241235162Y-39747421D03*
D15*
X245490000Y-41439772D03*
D16*
X240521010Y-42495963D03*
X250458990Y-40383581D03*
D14*
X260195788Y-52596068D03*
X254512647Y-56400802D03*
D15*
X258767485Y-58093153D03*
D16*
X253798495Y-59149344D03*
X263736475Y-57036962D03*
D14*
X271790000Y-71740000D03*
X265440000Y-74280000D03*
D15*
X269250000Y-76820000D03*
D16*
X264170000Y-76820000D03*
X274330000Y-76820000D03*
D14*
X281315019Y-90789998D03*
X274965019Y-93329998D03*
D15*
X278775019Y-95869998D03*
D16*
X273695019Y-95869998D03*
X283855019Y-95869998D03*
D14*
X268110000Y-32139615D03*
X261760000Y-34679615D03*
D15*
X265570000Y-37219615D03*
D16*
X260490000Y-37219615D03*
X270650000Y-37219615D03*
D14*
X281800000Y-52690000D03*
X275450000Y-55230000D03*
D15*
X279260000Y-57770000D03*
D16*
X274180000Y-57770000D03*
X284340000Y-57770000D03*
D14*
X290840000Y-71740000D03*
X284490000Y-74280000D03*
D15*
X288300000Y-76820000D03*
D16*
X283220000Y-76820000D03*
X293380000Y-76820000D03*
X310048769Y-95869998D03*
X299888769Y-95869998D03*
D15*
X304968769Y-95869998D03*
D14*
X301158769Y-93329998D03*
X307508769Y-90789998D03*
X287160000Y-33640000D03*
X280810000Y-36180000D03*
D15*
X284620000Y-38720000D03*
D16*
X279540000Y-38720000D03*
X289700000Y-38720000D03*
D14*
X300850000Y-52690000D03*
X294500000Y-55230000D03*
D15*
X298310000Y-57770000D03*
D16*
X293230000Y-57770000D03*
X303390000Y-57770000D03*
D17*
X331156250Y-83820000D03*
X307356250Y-83820000D03*
D15*
X307356250Y-68580000D03*
X331156250Y-68580000D03*
D16*
X324336250Y-76820000D03*
X314176250Y-76820000D03*
D15*
X319256250Y-76820000D03*
D14*
X315446250Y-74280000D03*
X321796250Y-71740000D03*
X319414949Y-114602503D03*
X313064949Y-117142503D03*
D15*
X316874949Y-119682503D03*
D16*
X311794949Y-119682503D03*
X321954949Y-119682503D03*
D14*
X306210000Y-33640000D03*
X299860000Y-36180000D03*
D15*
X303670000Y-38720000D03*
D16*
X298590000Y-38720000D03*
X308750000Y-38720000D03*
X327210000Y-57770000D03*
X317050000Y-57770000D03*
D15*
X322130000Y-57770000D03*
D14*
X318320000Y-55230000D03*
X324670000Y-52690000D03*
X338464949Y-95552503D03*
X332114949Y-98092503D03*
D15*
X335924949Y-100632503D03*
D16*
X330844949Y-100632503D03*
X341004949Y-100632503D03*
D14*
X338464949Y-114602503D03*
X332114949Y-117142503D03*
D15*
X335924949Y-119682503D03*
D16*
X330844949Y-119682503D03*
X341004949Y-119682503D03*
D14*
X325260000Y-33640000D03*
X318910000Y-36180000D03*
D15*
X322720000Y-38720000D03*
D16*
X317640000Y-38720000D03*
X327800000Y-38720000D03*
D14*
X349072542Y-28877509D03*
X342722542Y-31417509D03*
D15*
X346532542Y-33957509D03*
D16*
X341452542Y-33957509D03*
X351612542Y-33957509D03*
D14*
X353245000Y-47927516D03*
X346895000Y-50467516D03*
D15*
X350705000Y-53007516D03*
D16*
X345625000Y-53007516D03*
X355785000Y-53007516D03*
D14*
X357514949Y-66977519D03*
X351164949Y-69517519D03*
D15*
X354974949Y-72057519D03*
D16*
X349894949Y-72057519D03*
X360054949Y-72057519D03*
D14*
X357514949Y-114602503D03*
X351164949Y-117142503D03*
D15*
X354974949Y-119682503D03*
D16*
X349894949Y-119682503D03*
X360054949Y-119682503D03*
G36*
G01*
X205219000Y-26556000D02*
X205219000Y-27556000D01*
G75*
G02*
X205168000Y-27607000I-51000J0D01*
G01*
X203468000Y-27607000D01*
G75*
G02*
X203417000Y-27556000I0J51000D01*
G01*
X203417000Y-26556000D01*
G75*
G02*
X203468000Y-26505000I51000J0D01*
G01*
X205168000Y-26505000D01*
G75*
G02*
X205219000Y-26556000I0J-51000D01*
G01*
G37*
G36*
G01*
X198919000Y-26556000D02*
X198919000Y-27556000D01*
G75*
G02*
X198868000Y-27607000I-51000J0D01*
G01*
X197168000Y-27607000D01*
G75*
G02*
X197117000Y-27556000I0J51000D01*
G01*
X197117000Y-26556000D01*
G75*
G02*
X197168000Y-26505000I51000J0D01*
G01*
X198868000Y-26505000D01*
G75*
G02*
X198919000Y-26556000I0J-51000D01*
G01*
G37*
G36*
G01*
X205219000Y-30356000D02*
X205219000Y-31356000D01*
G75*
G02*
X205168000Y-31407000I-51000J0D01*
G01*
X203468000Y-31407000D01*
G75*
G02*
X203417000Y-31356000I0J51000D01*
G01*
X203417000Y-30356000D01*
G75*
G02*
X203468000Y-30305000I51000J0D01*
G01*
X205168000Y-30305000D01*
G75*
G02*
X205219000Y-30356000I0J-51000D01*
G01*
G37*
G36*
G01*
X198919000Y-30356000D02*
X198919000Y-31356000D01*
G75*
G02*
X198868000Y-31407000I-51000J0D01*
G01*
X197168000Y-31407000D01*
G75*
G02*
X197117000Y-31356000I0J51000D01*
G01*
X197117000Y-30356000D01*
G75*
G02*
X197168000Y-30305000I51000J0D01*
G01*
X198868000Y-30305000D01*
G75*
G02*
X198919000Y-30356000I0J-51000D01*
G01*
G37*
G36*
G01*
X195403231Y-41072705D02*
X194503231Y-42631551D01*
G75*
G02*
X194433564Y-42650218I-44167J25500D01*
G01*
X192614910Y-41600218D01*
G75*
G02*
X192596243Y-41530551I25500J44167D01*
G01*
X193496243Y-39971705D01*
G75*
G02*
X193565910Y-39953038I44167J-25500D01*
G01*
X195384564Y-41003038D01*
G75*
G02*
X195403231Y-41072705I-25500J-44167D01*
G01*
G37*
G36*
G01*
X192891757Y-39622705D02*
X191991757Y-41181551D01*
G75*
G02*
X191922090Y-41200218I-44167J25500D01*
G01*
X190103436Y-40150218D01*
G75*
G02*
X190084769Y-40080551I25500J44167D01*
G01*
X190984769Y-38521705D01*
G75*
G02*
X191054436Y-38503038I44167J-25500D01*
G01*
X192873090Y-39553038D01*
G75*
G02*
X192891757Y-39622705I-25500J-44167D01*
G01*
G37*
G36*
G01*
X193991757Y-37717449D02*
X193091757Y-39276295D01*
G75*
G02*
X193022090Y-39294962I-44167J25500D01*
G01*
X191203436Y-38244962D01*
G75*
G02*
X191184769Y-38175295I25500J44167D01*
G01*
X192084769Y-36616449D01*
G75*
G02*
X192154436Y-36597782I44167J-25500D01*
G01*
X193973090Y-37647782D01*
G75*
G02*
X193991757Y-37717449I-25500J-44167D01*
G01*
G37*
G36*
G01*
X196503231Y-39167449D02*
X195603231Y-40726295D01*
G75*
G02*
X195533564Y-40744962I-44167J25500D01*
G01*
X193714910Y-39694962D01*
G75*
G02*
X193696243Y-39625295I25500J44167D01*
G01*
X194596243Y-38066449D01*
G75*
G02*
X194665910Y-38047782I44167J-25500D01*
G01*
X196484564Y-39097782D01*
G75*
G02*
X196503231Y-39167449I-25500J-44167D01*
G01*
G37*
G36*
G01*
X167143000Y-30805001D02*
X167143000Y-30154999D01*
G75*
G02*
X167193999Y-30104000I50999J0D01*
G01*
X168754001Y-30104000D01*
G75*
G02*
X168805000Y-30154999I0J-50999D01*
G01*
X168805000Y-30805001D01*
G75*
G02*
X168754001Y-30856000I-50999J0D01*
G01*
X167193999Y-30856000D01*
G75*
G02*
X167143000Y-30805001I0J50999D01*
G01*
G37*
G36*
G01*
X167143000Y-31755001D02*
X167143000Y-31104999D01*
G75*
G02*
X167193999Y-31054000I50999J0D01*
G01*
X168754001Y-31054000D01*
G75*
G02*
X168805000Y-31104999I0J-50999D01*
G01*
X168805000Y-31755001D01*
G75*
G02*
X168754001Y-31806000I-50999J0D01*
G01*
X167193999Y-31806000D01*
G75*
G02*
X167143000Y-31755001I0J50999D01*
G01*
G37*
G36*
G01*
X167143000Y-29855001D02*
X167143000Y-29204999D01*
G75*
G02*
X167193999Y-29154000I50999J0D01*
G01*
X168754001Y-29154000D01*
G75*
G02*
X168805000Y-29204999I0J-50999D01*
G01*
X168805000Y-29855001D01*
G75*
G02*
X168754001Y-29906000I-50999J0D01*
G01*
X167193999Y-29906000D01*
G75*
G02*
X167143000Y-29855001I0J50999D01*
G01*
G37*
G36*
G01*
X164443000Y-29855001D02*
X164443000Y-29204999D01*
G75*
G02*
X164493999Y-29154000I50999J0D01*
G01*
X166054001Y-29154000D01*
G75*
G02*
X166105000Y-29204999I0J-50999D01*
G01*
X166105000Y-29855001D01*
G75*
G02*
X166054001Y-29906000I-50999J0D01*
G01*
X164493999Y-29906000D01*
G75*
G02*
X164443000Y-29855001I0J50999D01*
G01*
G37*
G36*
G01*
X164443000Y-30805001D02*
X164443000Y-30154999D01*
G75*
G02*
X164493999Y-30104000I50999J0D01*
G01*
X166054001Y-30104000D01*
G75*
G02*
X166105000Y-30154999I0J-50999D01*
G01*
X166105000Y-30805001D01*
G75*
G02*
X166054001Y-30856000I-50999J0D01*
G01*
X164493999Y-30856000D01*
G75*
G02*
X164443000Y-30805001I0J50999D01*
G01*
G37*
G36*
G01*
X164443000Y-31755001D02*
X164443000Y-31104999D01*
G75*
G02*
X164493999Y-31054000I50999J0D01*
G01*
X166054001Y-31054000D01*
G75*
G02*
X166105000Y-31104999I0J-50999D01*
G01*
X166105000Y-31755001D01*
G75*
G02*
X166054001Y-31806000I-50999J0D01*
G01*
X164493999Y-31806000D01*
G75*
G02*
X164443000Y-31755001I0J50999D01*
G01*
G37*
G36*
G01*
X171239000Y-35663000D02*
X171789000Y-35663000D01*
G75*
G02*
X171840000Y-35714000I0J-51000D01*
G01*
X171840000Y-37214000D01*
G75*
G02*
X171789000Y-37265000I-51000J0D01*
G01*
X171239000Y-37265000D01*
G75*
G02*
X171188000Y-37214000I0J51000D01*
G01*
X171188000Y-35714000D01*
G75*
G02*
X171239000Y-35663000I51000J0D01*
G01*
G37*
G36*
G01*
X172039000Y-35663000D02*
X172589000Y-35663000D01*
G75*
G02*
X172640000Y-35714000I0J-51000D01*
G01*
X172640000Y-37214000D01*
G75*
G02*
X172589000Y-37265000I-51000J0D01*
G01*
X172039000Y-37265000D01*
G75*
G02*
X171988000Y-37214000I0J51000D01*
G01*
X171988000Y-35714000D01*
G75*
G02*
X172039000Y-35663000I51000J0D01*
G01*
G37*
G36*
G01*
X172839000Y-35663000D02*
X173389000Y-35663000D01*
G75*
G02*
X173440000Y-35714000I0J-51000D01*
G01*
X173440000Y-37214000D01*
G75*
G02*
X173389000Y-37265000I-51000J0D01*
G01*
X172839000Y-37265000D01*
G75*
G02*
X172788000Y-37214000I0J51000D01*
G01*
X172788000Y-35714000D01*
G75*
G02*
X172839000Y-35663000I51000J0D01*
G01*
G37*
G36*
G01*
X173639000Y-35663000D02*
X174189000Y-35663000D01*
G75*
G02*
X174240000Y-35714000I0J-51000D01*
G01*
X174240000Y-37214000D01*
G75*
G02*
X174189000Y-37265000I-51000J0D01*
G01*
X173639000Y-37265000D01*
G75*
G02*
X173588000Y-37214000I0J51000D01*
G01*
X173588000Y-35714000D01*
G75*
G02*
X173639000Y-35663000I51000J0D01*
G01*
G37*
G36*
G01*
X174439000Y-35663000D02*
X174989000Y-35663000D01*
G75*
G02*
X175040000Y-35714000I0J-51000D01*
G01*
X175040000Y-37214000D01*
G75*
G02*
X174989000Y-37265000I-51000J0D01*
G01*
X174439000Y-37265000D01*
G75*
G02*
X174388000Y-37214000I0J51000D01*
G01*
X174388000Y-35714000D01*
G75*
G02*
X174439000Y-35663000I51000J0D01*
G01*
G37*
G36*
G01*
X175239000Y-35663000D02*
X175789000Y-35663000D01*
G75*
G02*
X175840000Y-35714000I0J-51000D01*
G01*
X175840000Y-37214000D01*
G75*
G02*
X175789000Y-37265000I-51000J0D01*
G01*
X175239000Y-37265000D01*
G75*
G02*
X175188000Y-37214000I0J51000D01*
G01*
X175188000Y-35714000D01*
G75*
G02*
X175239000Y-35663000I51000J0D01*
G01*
G37*
G36*
G01*
X176039000Y-35663000D02*
X176589000Y-35663000D01*
G75*
G02*
X176640000Y-35714000I0J-51000D01*
G01*
X176640000Y-37214000D01*
G75*
G02*
X176589000Y-37265000I-51000J0D01*
G01*
X176039000Y-37265000D01*
G75*
G02*
X175988000Y-37214000I0J51000D01*
G01*
X175988000Y-35714000D01*
G75*
G02*
X176039000Y-35663000I51000J0D01*
G01*
G37*
G36*
G01*
X176839000Y-35663000D02*
X177389000Y-35663000D01*
G75*
G02*
X177440000Y-35714000I0J-51000D01*
G01*
X177440000Y-37214000D01*
G75*
G02*
X177389000Y-37265000I-51000J0D01*
G01*
X176839000Y-37265000D01*
G75*
G02*
X176788000Y-37214000I0J51000D01*
G01*
X176788000Y-35714000D01*
G75*
G02*
X176839000Y-35663000I51000J0D01*
G01*
G37*
G36*
G01*
X177639000Y-35663000D02*
X178189000Y-35663000D01*
G75*
G02*
X178240000Y-35714000I0J-51000D01*
G01*
X178240000Y-37214000D01*
G75*
G02*
X178189000Y-37265000I-51000J0D01*
G01*
X177639000Y-37265000D01*
G75*
G02*
X177588000Y-37214000I0J51000D01*
G01*
X177588000Y-35714000D01*
G75*
G02*
X177639000Y-35663000I51000J0D01*
G01*
G37*
G36*
G01*
X178439000Y-35663000D02*
X178989000Y-35663000D01*
G75*
G02*
X179040000Y-35714000I0J-51000D01*
G01*
X179040000Y-37214000D01*
G75*
G02*
X178989000Y-37265000I-51000J0D01*
G01*
X178439000Y-37265000D01*
G75*
G02*
X178388000Y-37214000I0J51000D01*
G01*
X178388000Y-35714000D01*
G75*
G02*
X178439000Y-35663000I51000J0D01*
G01*
G37*
G36*
G01*
X179239000Y-35663000D02*
X179789000Y-35663000D01*
G75*
G02*
X179840000Y-35714000I0J-51000D01*
G01*
X179840000Y-37214000D01*
G75*
G02*
X179789000Y-37265000I-51000J0D01*
G01*
X179239000Y-37265000D01*
G75*
G02*
X179188000Y-37214000I0J51000D01*
G01*
X179188000Y-35714000D01*
G75*
G02*
X179239000Y-35663000I51000J0D01*
G01*
G37*
G36*
G01*
X182015000Y-37889000D02*
X182015000Y-38439000D01*
G75*
G02*
X181964000Y-38490000I-51000J0D01*
G01*
X180464000Y-38490000D01*
G75*
G02*
X180413000Y-38439000I0J51000D01*
G01*
X180413000Y-37889000D01*
G75*
G02*
X180464000Y-37838000I51000J0D01*
G01*
X181964000Y-37838000D01*
G75*
G02*
X182015000Y-37889000I0J-51000D01*
G01*
G37*
G36*
G01*
X182015000Y-38689000D02*
X182015000Y-39239000D01*
G75*
G02*
X181964000Y-39290000I-51000J0D01*
G01*
X180464000Y-39290000D01*
G75*
G02*
X180413000Y-39239000I0J51000D01*
G01*
X180413000Y-38689000D01*
G75*
G02*
X180464000Y-38638000I51000J0D01*
G01*
X181964000Y-38638000D01*
G75*
G02*
X182015000Y-38689000I0J-51000D01*
G01*
G37*
G36*
G01*
X182015000Y-39489000D02*
X182015000Y-40039000D01*
G75*
G02*
X181964000Y-40090000I-51000J0D01*
G01*
X180464000Y-40090000D01*
G75*
G02*
X180413000Y-40039000I0J51000D01*
G01*
X180413000Y-39489000D01*
G75*
G02*
X180464000Y-39438000I51000J0D01*
G01*
X181964000Y-39438000D01*
G75*
G02*
X182015000Y-39489000I0J-51000D01*
G01*
G37*
G36*
G01*
X182015000Y-40289000D02*
X182015000Y-40839000D01*
G75*
G02*
X181964000Y-40890000I-51000J0D01*
G01*
X180464000Y-40890000D01*
G75*
G02*
X180413000Y-40839000I0J51000D01*
G01*
X180413000Y-40289000D01*
G75*
G02*
X180464000Y-40238000I51000J0D01*
G01*
X181964000Y-40238000D01*
G75*
G02*
X182015000Y-40289000I0J-51000D01*
G01*
G37*
G36*
G01*
X182015000Y-41089000D02*
X182015000Y-41639000D01*
G75*
G02*
X181964000Y-41690000I-51000J0D01*
G01*
X180464000Y-41690000D01*
G75*
G02*
X180413000Y-41639000I0J51000D01*
G01*
X180413000Y-41089000D01*
G75*
G02*
X180464000Y-41038000I51000J0D01*
G01*
X181964000Y-41038000D01*
G75*
G02*
X182015000Y-41089000I0J-51000D01*
G01*
G37*
G36*
G01*
X182015000Y-41889000D02*
X182015000Y-42439000D01*
G75*
G02*
X181964000Y-42490000I-51000J0D01*
G01*
X180464000Y-42490000D01*
G75*
G02*
X180413000Y-42439000I0J51000D01*
G01*
X180413000Y-41889000D01*
G75*
G02*
X180464000Y-41838000I51000J0D01*
G01*
X181964000Y-41838000D01*
G75*
G02*
X182015000Y-41889000I0J-51000D01*
G01*
G37*
G36*
G01*
X182015000Y-42689000D02*
X182015000Y-43239000D01*
G75*
G02*
X181964000Y-43290000I-51000J0D01*
G01*
X180464000Y-43290000D01*
G75*
G02*
X180413000Y-43239000I0J51000D01*
G01*
X180413000Y-42689000D01*
G75*
G02*
X180464000Y-42638000I51000J0D01*
G01*
X181964000Y-42638000D01*
G75*
G02*
X182015000Y-42689000I0J-51000D01*
G01*
G37*
G36*
G01*
X182015000Y-43489000D02*
X182015000Y-44039000D01*
G75*
G02*
X181964000Y-44090000I-51000J0D01*
G01*
X180464000Y-44090000D01*
G75*
G02*
X180413000Y-44039000I0J51000D01*
G01*
X180413000Y-43489000D01*
G75*
G02*
X180464000Y-43438000I51000J0D01*
G01*
X181964000Y-43438000D01*
G75*
G02*
X182015000Y-43489000I0J-51000D01*
G01*
G37*
G36*
G01*
X182015000Y-44289000D02*
X182015000Y-44839000D01*
G75*
G02*
X181964000Y-44890000I-51000J0D01*
G01*
X180464000Y-44890000D01*
G75*
G02*
X180413000Y-44839000I0J51000D01*
G01*
X180413000Y-44289000D01*
G75*
G02*
X180464000Y-44238000I51000J0D01*
G01*
X181964000Y-44238000D01*
G75*
G02*
X182015000Y-44289000I0J-51000D01*
G01*
G37*
G36*
G01*
X182015000Y-45089000D02*
X182015000Y-45639000D01*
G75*
G02*
X181964000Y-45690000I-51000J0D01*
G01*
X180464000Y-45690000D01*
G75*
G02*
X180413000Y-45639000I0J51000D01*
G01*
X180413000Y-45089000D01*
G75*
G02*
X180464000Y-45038000I51000J0D01*
G01*
X181964000Y-45038000D01*
G75*
G02*
X182015000Y-45089000I0J-51000D01*
G01*
G37*
G36*
G01*
X182015000Y-45889000D02*
X182015000Y-46439000D01*
G75*
G02*
X181964000Y-46490000I-51000J0D01*
G01*
X180464000Y-46490000D01*
G75*
G02*
X180413000Y-46439000I0J51000D01*
G01*
X180413000Y-45889000D01*
G75*
G02*
X180464000Y-45838000I51000J0D01*
G01*
X181964000Y-45838000D01*
G75*
G02*
X182015000Y-45889000I0J-51000D01*
G01*
G37*
G36*
G01*
X179239000Y-47063000D02*
X179789000Y-47063000D01*
G75*
G02*
X179840000Y-47114000I0J-51000D01*
G01*
X179840000Y-48614000D01*
G75*
G02*
X179789000Y-48665000I-51000J0D01*
G01*
X179239000Y-48665000D01*
G75*
G02*
X179188000Y-48614000I0J51000D01*
G01*
X179188000Y-47114000D01*
G75*
G02*
X179239000Y-47063000I51000J0D01*
G01*
G37*
G36*
G01*
X178439000Y-47063000D02*
X178989000Y-47063000D01*
G75*
G02*
X179040000Y-47114000I0J-51000D01*
G01*
X179040000Y-48614000D01*
G75*
G02*
X178989000Y-48665000I-51000J0D01*
G01*
X178439000Y-48665000D01*
G75*
G02*
X178388000Y-48614000I0J51000D01*
G01*
X178388000Y-47114000D01*
G75*
G02*
X178439000Y-47063000I51000J0D01*
G01*
G37*
G36*
G01*
X177639000Y-47063000D02*
X178189000Y-47063000D01*
G75*
G02*
X178240000Y-47114000I0J-51000D01*
G01*
X178240000Y-48614000D01*
G75*
G02*
X178189000Y-48665000I-51000J0D01*
G01*
X177639000Y-48665000D01*
G75*
G02*
X177588000Y-48614000I0J51000D01*
G01*
X177588000Y-47114000D01*
G75*
G02*
X177639000Y-47063000I51000J0D01*
G01*
G37*
G36*
G01*
X176839000Y-47063000D02*
X177389000Y-47063000D01*
G75*
G02*
X177440000Y-47114000I0J-51000D01*
G01*
X177440000Y-48614000D01*
G75*
G02*
X177389000Y-48665000I-51000J0D01*
G01*
X176839000Y-48665000D01*
G75*
G02*
X176788000Y-48614000I0J51000D01*
G01*
X176788000Y-47114000D01*
G75*
G02*
X176839000Y-47063000I51000J0D01*
G01*
G37*
G36*
G01*
X176039000Y-47063000D02*
X176589000Y-47063000D01*
G75*
G02*
X176640000Y-47114000I0J-51000D01*
G01*
X176640000Y-48614000D01*
G75*
G02*
X176589000Y-48665000I-51000J0D01*
G01*
X176039000Y-48665000D01*
G75*
G02*
X175988000Y-48614000I0J51000D01*
G01*
X175988000Y-47114000D01*
G75*
G02*
X176039000Y-47063000I51000J0D01*
G01*
G37*
G36*
G01*
X175239000Y-47063000D02*
X175789000Y-47063000D01*
G75*
G02*
X175840000Y-47114000I0J-51000D01*
G01*
X175840000Y-48614000D01*
G75*
G02*
X175789000Y-48665000I-51000J0D01*
G01*
X175239000Y-48665000D01*
G75*
G02*
X175188000Y-48614000I0J51000D01*
G01*
X175188000Y-47114000D01*
G75*
G02*
X175239000Y-47063000I51000J0D01*
G01*
G37*
G36*
G01*
X174439000Y-47063000D02*
X174989000Y-47063000D01*
G75*
G02*
X175040000Y-47114000I0J-51000D01*
G01*
X175040000Y-48614000D01*
G75*
G02*
X174989000Y-48665000I-51000J0D01*
G01*
X174439000Y-48665000D01*
G75*
G02*
X174388000Y-48614000I0J51000D01*
G01*
X174388000Y-47114000D01*
G75*
G02*
X174439000Y-47063000I51000J0D01*
G01*
G37*
G36*
G01*
X173639000Y-47063000D02*
X174189000Y-47063000D01*
G75*
G02*
X174240000Y-47114000I0J-51000D01*
G01*
X174240000Y-48614000D01*
G75*
G02*
X174189000Y-48665000I-51000J0D01*
G01*
X173639000Y-48665000D01*
G75*
G02*
X173588000Y-48614000I0J51000D01*
G01*
X173588000Y-47114000D01*
G75*
G02*
X173639000Y-47063000I51000J0D01*
G01*
G37*
G36*
G01*
X172839000Y-47063000D02*
X173389000Y-47063000D01*
G75*
G02*
X173440000Y-47114000I0J-51000D01*
G01*
X173440000Y-48614000D01*
G75*
G02*
X173389000Y-48665000I-51000J0D01*
G01*
X172839000Y-48665000D01*
G75*
G02*
X172788000Y-48614000I0J51000D01*
G01*
X172788000Y-47114000D01*
G75*
G02*
X172839000Y-47063000I51000J0D01*
G01*
G37*
G36*
G01*
X172039000Y-47063000D02*
X172589000Y-47063000D01*
G75*
G02*
X172640000Y-47114000I0J-51000D01*
G01*
X172640000Y-48614000D01*
G75*
G02*
X172589000Y-48665000I-51000J0D01*
G01*
X172039000Y-48665000D01*
G75*
G02*
X171988000Y-48614000I0J51000D01*
G01*
X171988000Y-47114000D01*
G75*
G02*
X172039000Y-47063000I51000J0D01*
G01*
G37*
G36*
G01*
X171239000Y-47063000D02*
X171789000Y-47063000D01*
G75*
G02*
X171840000Y-47114000I0J-51000D01*
G01*
X171840000Y-48614000D01*
G75*
G02*
X171789000Y-48665000I-51000J0D01*
G01*
X171239000Y-48665000D01*
G75*
G02*
X171188000Y-48614000I0J51000D01*
G01*
X171188000Y-47114000D01*
G75*
G02*
X171239000Y-47063000I51000J0D01*
G01*
G37*
G36*
G01*
X170615000Y-45889000D02*
X170615000Y-46439000D01*
G75*
G02*
X170564000Y-46490000I-51000J0D01*
G01*
X169064000Y-46490000D01*
G75*
G02*
X169013000Y-46439000I0J51000D01*
G01*
X169013000Y-45889000D01*
G75*
G02*
X169064000Y-45838000I51000J0D01*
G01*
X170564000Y-45838000D01*
G75*
G02*
X170615000Y-45889000I0J-51000D01*
G01*
G37*
G36*
G01*
X170615000Y-45089000D02*
X170615000Y-45639000D01*
G75*
G02*
X170564000Y-45690000I-51000J0D01*
G01*
X169064000Y-45690000D01*
G75*
G02*
X169013000Y-45639000I0J51000D01*
G01*
X169013000Y-45089000D01*
G75*
G02*
X169064000Y-45038000I51000J0D01*
G01*
X170564000Y-45038000D01*
G75*
G02*
X170615000Y-45089000I0J-51000D01*
G01*
G37*
G36*
G01*
X170615000Y-44289000D02*
X170615000Y-44839000D01*
G75*
G02*
X170564000Y-44890000I-51000J0D01*
G01*
X169064000Y-44890000D01*
G75*
G02*
X169013000Y-44839000I0J51000D01*
G01*
X169013000Y-44289000D01*
G75*
G02*
X169064000Y-44238000I51000J0D01*
G01*
X170564000Y-44238000D01*
G75*
G02*
X170615000Y-44289000I0J-51000D01*
G01*
G37*
G36*
G01*
X170615000Y-43489000D02*
X170615000Y-44039000D01*
G75*
G02*
X170564000Y-44090000I-51000J0D01*
G01*
X169064000Y-44090000D01*
G75*
G02*
X169013000Y-44039000I0J51000D01*
G01*
X169013000Y-43489000D01*
G75*
G02*
X169064000Y-43438000I51000J0D01*
G01*
X170564000Y-43438000D01*
G75*
G02*
X170615000Y-43489000I0J-51000D01*
G01*
G37*
G36*
G01*
X170615000Y-42689000D02*
X170615000Y-43239000D01*
G75*
G02*
X170564000Y-43290000I-51000J0D01*
G01*
X169064000Y-43290000D01*
G75*
G02*
X169013000Y-43239000I0J51000D01*
G01*
X169013000Y-42689000D01*
G75*
G02*
X169064000Y-42638000I51000J0D01*
G01*
X170564000Y-42638000D01*
G75*
G02*
X170615000Y-42689000I0J-51000D01*
G01*
G37*
G36*
G01*
X170615000Y-41889000D02*
X170615000Y-42439000D01*
G75*
G02*
X170564000Y-42490000I-51000J0D01*
G01*
X169064000Y-42490000D01*
G75*
G02*
X169013000Y-42439000I0J51000D01*
G01*
X169013000Y-41889000D01*
G75*
G02*
X169064000Y-41838000I51000J0D01*
G01*
X170564000Y-41838000D01*
G75*
G02*
X170615000Y-41889000I0J-51000D01*
G01*
G37*
G36*
G01*
X170615000Y-41089000D02*
X170615000Y-41639000D01*
G75*
G02*
X170564000Y-41690000I-51000J0D01*
G01*
X169064000Y-41690000D01*
G75*
G02*
X169013000Y-41639000I0J51000D01*
G01*
X169013000Y-41089000D01*
G75*
G02*
X169064000Y-41038000I51000J0D01*
G01*
X170564000Y-41038000D01*
G75*
G02*
X170615000Y-41089000I0J-51000D01*
G01*
G37*
G36*
G01*
X170615000Y-40289000D02*
X170615000Y-40839000D01*
G75*
G02*
X170564000Y-40890000I-51000J0D01*
G01*
X169064000Y-40890000D01*
G75*
G02*
X169013000Y-40839000I0J51000D01*
G01*
X169013000Y-40289000D01*
G75*
G02*
X169064000Y-40238000I51000J0D01*
G01*
X170564000Y-40238000D01*
G75*
G02*
X170615000Y-40289000I0J-51000D01*
G01*
G37*
G36*
G01*
X170615000Y-39489000D02*
X170615000Y-40039000D01*
G75*
G02*
X170564000Y-40090000I-51000J0D01*
G01*
X169064000Y-40090000D01*
G75*
G02*
X169013000Y-40039000I0J51000D01*
G01*
X169013000Y-39489000D01*
G75*
G02*
X169064000Y-39438000I51000J0D01*
G01*
X170564000Y-39438000D01*
G75*
G02*
X170615000Y-39489000I0J-51000D01*
G01*
G37*
G36*
G01*
X170615000Y-38689000D02*
X170615000Y-39239000D01*
G75*
G02*
X170564000Y-39290000I-51000J0D01*
G01*
X169064000Y-39290000D01*
G75*
G02*
X169013000Y-39239000I0J51000D01*
G01*
X169013000Y-38689000D01*
G75*
G02*
X169064000Y-38638000I51000J0D01*
G01*
X170564000Y-38638000D01*
G75*
G02*
X170615000Y-38689000I0J-51000D01*
G01*
G37*
G36*
G01*
X170615000Y-37889000D02*
X170615000Y-38439000D01*
G75*
G02*
X170564000Y-38490000I-51000J0D01*
G01*
X169064000Y-38490000D01*
G75*
G02*
X169013000Y-38439000I0J51000D01*
G01*
X169013000Y-37889000D01*
G75*
G02*
X169064000Y-37838000I51000J0D01*
G01*
X170564000Y-37838000D01*
G75*
G02*
X170615000Y-37889000I0J-51000D01*
G01*
G37*
G36*
G01*
X150483000Y-27266000D02*
X150483000Y-25566000D01*
G75*
G02*
X150534000Y-25515000I51000J0D01*
G01*
X152234000Y-25515000D01*
G75*
G02*
X152285000Y-25566000I0J-51000D01*
G01*
X152285000Y-27266000D01*
G75*
G02*
X152234000Y-27317000I-51000J0D01*
G01*
X150534000Y-27317000D01*
G75*
G02*
X150483000Y-27266000I0J51000D01*
G01*
G37*
G36*
G01*
X147943000Y-27266000D02*
X147943000Y-25566000D01*
G75*
G02*
X147994000Y-25515000I51000J0D01*
G01*
X149694000Y-25515000D01*
G75*
G02*
X149745000Y-25566000I0J-51000D01*
G01*
X149745000Y-27266000D01*
G75*
G02*
X149694000Y-27317000I-51000J0D01*
G01*
X147994000Y-27317000D01*
G75*
G02*
X147943000Y-27266000I0J51000D01*
G01*
G37*
G36*
G01*
X142863000Y-27266000D02*
X142863000Y-25566000D01*
G75*
G02*
X142914000Y-25515000I51000J0D01*
G01*
X144614000Y-25515000D01*
G75*
G02*
X144665000Y-25566000I0J-51000D01*
G01*
X144665000Y-27266000D01*
G75*
G02*
X144614000Y-27317000I-51000J0D01*
G01*
X142914000Y-27317000D01*
G75*
G02*
X142863000Y-27266000I0J51000D01*
G01*
G37*
D13*
X56865000Y-48245000D03*
X51197500Y-114920000D03*
X121827220Y-27932509D03*
X109959436Y-120609368D03*
X229192785Y-27932509D03*
X341180000Y-43482516D03*
D18*
G36*
X156025166Y-135108081D02*
G01*
X156026750Y-135110037D01*
X156026750Y-135110038D01*
X156026706Y-135110454D01*
X156005981Y-135207959D01*
X156005899Y-135208344D01*
X156000097Y-135235640D01*
X156000060Y-135235817D01*
X156000058Y-135235824D01*
X155959563Y-135426336D01*
X155959564Y-135426336D01*
X155959465Y-135426803D01*
X155959464Y-135426804D01*
X155923093Y-135597915D01*
X155897972Y-135716100D01*
X155897849Y-135716678D01*
X155818379Y-136090558D01*
X155816007Y-136092098D01*
X154542458Y-135821397D01*
X154540874Y-135819441D01*
X154540874Y-135819440D01*
X154540918Y-135819024D01*
X154541156Y-135817900D01*
X154545246Y-135817900D01*
X155814882Y-136087769D01*
X155893937Y-135715846D01*
X155894060Y-135715268D01*
X155919181Y-135597083D01*
X155955552Y-135425973D01*
X155955551Y-135425973D01*
X155955650Y-135425506D01*
X155955651Y-135425505D01*
X155996144Y-135234999D01*
X155996181Y-135234822D01*
X155996183Y-135234815D01*
X156001987Y-135207512D01*
X156002069Y-135207127D01*
X156022378Y-135111578D01*
X154752742Y-134841709D01*
X154674811Y-135208344D01*
X154668970Y-135235824D01*
X154628475Y-135426336D01*
X154628476Y-135426336D01*
X154628377Y-135426803D01*
X154628376Y-135426804D01*
X154604602Y-135538650D01*
X154604603Y-135538650D01*
X154604591Y-135538708D01*
X154604588Y-135538719D01*
X154592005Y-135597914D01*
X154592006Y-135597914D01*
X154591893Y-135598447D01*
X154591892Y-135598448D01*
X154566884Y-135716100D01*
X154566761Y-135716678D01*
X154554078Y-135776349D01*
X154553950Y-135776951D01*
X154545246Y-135817900D01*
X154541156Y-135817900D01*
X154550038Y-135776119D01*
X154550166Y-135775517D01*
X154562849Y-135715846D01*
X154562972Y-135715268D01*
X154587980Y-135597617D01*
X154587979Y-135597617D01*
X154588092Y-135597084D01*
X154588093Y-135597083D01*
X154600674Y-135537898D01*
X154600673Y-135537898D01*
X154600685Y-135537840D01*
X154600688Y-135537829D01*
X154624464Y-135425973D01*
X154624463Y-135425973D01*
X154624562Y-135425506D01*
X154624563Y-135425505D01*
X154665058Y-135234992D01*
X154670899Y-135207512D01*
X154749245Y-134838920D01*
X154751617Y-134837380D01*
X156025166Y-135108081D01*
G37*
G36*
X210927217Y-131722241D02*
G01*
X210927687Y-131723163D01*
X211014881Y-132133381D01*
X211017421Y-132145331D01*
X211040002Y-132251566D01*
X211040125Y-132252144D01*
X211052808Y-132311815D01*
X211052936Y-132312417D01*
X211074324Y-132413038D01*
X211083241Y-132454989D01*
X211083242Y-132454992D01*
X211083322Y-132455373D01*
X211109770Y-132579800D01*
X211109771Y-132579801D01*
X211109870Y-132580268D01*
X211109869Y-132580268D01*
X211112180Y-132591136D01*
X211112180Y-132591137D01*
X211121691Y-132635882D01*
X211121692Y-132635883D01*
X211121805Y-132636416D01*
X211121804Y-132636416D01*
X211122417Y-132639297D01*
X211122545Y-132639899D01*
X211130614Y-132677863D01*
X211130615Y-132677864D01*
X211130728Y-132678397D01*
X211130727Y-132678397D01*
X211135228Y-132699570D01*
X211135351Y-132700148D01*
X211136014Y-132703267D01*
X211136058Y-132703683D01*
X211136058Y-132703684D01*
X211134474Y-132705640D01*
X209860925Y-132976341D01*
X209859023Y-132975723D01*
X209858553Y-132974801D01*
X209817419Y-132781278D01*
X209787417Y-132640129D01*
X209786691Y-132636714D01*
X209777180Y-132591969D01*
X209777180Y-132591968D01*
X209748241Y-132455821D01*
X209739324Y-132413870D01*
X209739323Y-132413869D01*
X209739224Y-132413402D01*
X209739225Y-132413402D01*
X209717046Y-132309059D01*
X209705125Y-132252976D01*
X209705002Y-132252398D01*
X209682421Y-132146163D01*
X209682420Y-132146158D01*
X209682383Y-132145982D01*
X209679994Y-132134746D01*
X209679993Y-132134745D01*
X209679880Y-132134212D01*
X209678893Y-132129566D01*
X209678894Y-132129566D01*
X209678812Y-132129183D01*
X209650465Y-131995821D01*
X209654554Y-131995821D01*
X209682724Y-132128350D01*
X209682806Y-132128735D01*
X209683793Y-132133381D01*
X209683794Y-132133382D01*
X209683907Y-132133915D01*
X209683906Y-132133915D01*
X209686296Y-132145155D01*
X209686297Y-132145160D01*
X209686333Y-132145331D01*
X209708914Y-132251566D01*
X209709037Y-132252144D01*
X209720958Y-132308227D01*
X209743137Y-132412571D01*
X209743138Y-132412572D01*
X209743237Y-132413039D01*
X209743236Y-132413039D01*
X209752153Y-132454989D01*
X209781092Y-132591136D01*
X209781092Y-132591137D01*
X209790603Y-132635882D01*
X209791329Y-132639297D01*
X209821331Y-132780446D01*
X209862050Y-132972012D01*
X211131686Y-132702143D01*
X211131439Y-132700980D01*
X211131316Y-132700402D01*
X211126815Y-132679228D01*
X211126814Y-132679227D01*
X211126701Y-132678694D01*
X211126702Y-132678694D01*
X211118633Y-132640731D01*
X211118505Y-132640129D01*
X211117892Y-132637247D01*
X211117891Y-132637246D01*
X211117778Y-132636713D01*
X211117779Y-132636713D01*
X211108268Y-132591969D01*
X211108268Y-132591968D01*
X211105957Y-132581099D01*
X211105956Y-132581098D01*
X211105857Y-132580631D01*
X211105858Y-132580631D01*
X211079410Y-132456205D01*
X211079409Y-132456202D01*
X211079328Y-132455818D01*
X211070412Y-132413870D01*
X211049024Y-132313249D01*
X211048896Y-132312647D01*
X211036213Y-132252976D01*
X211036090Y-132252398D01*
X211013509Y-132146163D01*
X211010969Y-132134213D01*
X210924190Y-131725952D01*
X209654554Y-131995821D01*
X209650465Y-131995821D01*
X209650226Y-131994698D01*
X209650182Y-131994281D01*
X209650182Y-131994280D01*
X209651766Y-131992324D01*
X210925315Y-131721623D01*
X210927217Y-131722241D01*
G37*
G36*
X156711274Y-131880193D02*
G01*
X156712858Y-131882149D01*
X156712858Y-131882150D01*
X156712814Y-131882566D01*
X156695795Y-131962635D01*
X156695795Y-131962638D01*
X156695695Y-131963105D01*
X156695694Y-131963105D01*
X156693619Y-131972872D01*
X156693615Y-131972893D01*
X156693602Y-131972951D01*
X156688980Y-131994696D01*
X156688980Y-131994697D01*
X156660394Y-132129182D01*
X156660312Y-132129567D01*
X156659325Y-132134213D01*
X156659325Y-132134215D01*
X156659211Y-132134748D01*
X156656822Y-132145987D01*
X156656786Y-132146158D01*
X156656785Y-132146163D01*
X156634204Y-132252398D01*
X156634081Y-132252976D01*
X156622160Y-132309059D01*
X156622160Y-132309060D01*
X156622099Y-132309346D01*
X156599981Y-132413403D01*
X156590883Y-132456205D01*
X156551661Y-132640731D01*
X156504487Y-132862670D01*
X156503149Y-132864156D01*
X156502115Y-132864210D01*
X155228566Y-132593509D01*
X155226982Y-132591553D01*
X155226982Y-132591552D01*
X155227026Y-132591136D01*
X155227264Y-132590012D01*
X155231354Y-132590012D01*
X156500990Y-132859881D01*
X156547749Y-132639899D01*
X156586971Y-132455373D01*
X156596069Y-132412571D01*
X156618187Y-132308513D01*
X156618187Y-132308512D01*
X156618248Y-132308226D01*
X156630169Y-132252144D01*
X156630292Y-132251566D01*
X156652873Y-132145331D01*
X156652909Y-132145160D01*
X156652910Y-132145155D01*
X156655299Y-132133914D01*
X156655299Y-132133912D01*
X156655413Y-132133379D01*
X156656400Y-132128735D01*
X156656400Y-132128734D01*
X156656482Y-132128349D01*
X156685068Y-131993864D01*
X156689694Y-131972098D01*
X156689698Y-131972077D01*
X156689711Y-131972019D01*
X156691783Y-131962270D01*
X156691783Y-131962267D01*
X156691883Y-131961800D01*
X156691884Y-131961800D01*
X156708486Y-131883690D01*
X155438850Y-131613821D01*
X155364707Y-131962635D01*
X155362531Y-131972872D01*
X155357892Y-131994696D01*
X155357892Y-131994697D01*
X155328237Y-132134213D01*
X155325734Y-132145987D01*
X155325698Y-132146158D01*
X155325697Y-132146163D01*
X155303116Y-132252398D01*
X155302993Y-132252976D01*
X155291072Y-132309059D01*
X155290310Y-132312647D01*
X155290182Y-132313249D01*
X155268893Y-132413402D01*
X155268894Y-132413402D01*
X155268795Y-132413869D01*
X155268794Y-132413870D01*
X155259877Y-132455821D01*
X155259877Y-132455823D01*
X155259795Y-132456207D01*
X155233348Y-132580632D01*
X155233348Y-132580635D01*
X155233248Y-132581102D01*
X155233247Y-132581102D01*
X155231354Y-132590012D01*
X155227264Y-132590012D01*
X155229336Y-132580267D01*
X155229336Y-132580264D01*
X155229436Y-132579797D01*
X155229437Y-132579797D01*
X155255883Y-132455373D01*
X155255883Y-132455371D01*
X155255965Y-132454987D01*
X155264882Y-132413039D01*
X155264881Y-132413039D01*
X155264980Y-132412572D01*
X155264981Y-132412571D01*
X155286270Y-132312417D01*
X155286398Y-132311815D01*
X155287160Y-132308227D01*
X155299081Y-132252144D01*
X155299204Y-132251566D01*
X155321785Y-132145331D01*
X155321821Y-132145160D01*
X155321822Y-132145155D01*
X155324325Y-132133381D01*
X155353980Y-131993865D01*
X155353980Y-131993864D01*
X155358619Y-131972040D01*
X155360795Y-131961803D01*
X155435353Y-131611032D01*
X155437725Y-131609492D01*
X156711274Y-131880193D01*
G37*
G36*
X210241109Y-128494353D02*
G01*
X210241579Y-128495275D01*
X210306758Y-128801921D01*
X210322364Y-128875342D01*
X210343928Y-128976791D01*
X210343929Y-128976792D01*
X210344042Y-128977325D01*
X210344041Y-128977325D01*
X210364786Y-129074920D01*
X210364787Y-129074921D01*
X210364886Y-129075388D01*
X210364885Y-129075388D01*
X210371178Y-129104993D01*
X210384693Y-129168575D01*
X210384693Y-129168576D01*
X210386185Y-129175595D01*
X210386313Y-129176197D01*
X210391333Y-129199814D01*
X210391334Y-129199817D01*
X210391414Y-129200198D01*
X210398996Y-129235868D01*
X210399119Y-129236446D01*
X210400431Y-129242617D01*
X210422549Y-129346673D01*
X210422610Y-129346959D01*
X210422610Y-129346960D01*
X210424127Y-129354098D01*
X210424240Y-129354631D01*
X210436823Y-129413827D01*
X210436826Y-129413838D01*
X210436838Y-129413896D01*
X210436837Y-129413896D01*
X210449906Y-129475379D01*
X210449950Y-129475795D01*
X210449950Y-129475796D01*
X210448366Y-129477752D01*
X209174817Y-129748453D01*
X209172915Y-129747835D01*
X209172445Y-129746913D01*
X209089127Y-129354930D01*
X209087610Y-129347792D01*
X209087549Y-129347507D01*
X209087549Y-129347506D01*
X209065431Y-129243449D01*
X209065430Y-129243448D01*
X209065331Y-129242981D01*
X209065332Y-129242981D01*
X209056333Y-129200646D01*
X209051313Y-129177029D01*
X209051185Y-129176427D01*
X209049693Y-129169408D01*
X209049693Y-129169407D01*
X209036178Y-129105825D01*
X209036175Y-129105814D01*
X209036163Y-129105756D01*
X209036164Y-129105756D01*
X209029885Y-129076219D01*
X209029884Y-129076218D01*
X209029785Y-129075751D01*
X209029786Y-129075751D01*
X209017965Y-129020138D01*
X209009041Y-128978156D01*
X209009040Y-128978155D01*
X209008927Y-128977622D01*
X209008928Y-128977622D01*
X208994684Y-128910609D01*
X208994561Y-128910031D01*
X208992154Y-128898707D01*
X208992154Y-128898706D01*
X208987364Y-128876174D01*
X208987363Y-128876171D01*
X208987236Y-128875570D01*
X208985270Y-128866320D01*
X208985147Y-128865741D01*
X208971796Y-128802930D01*
X208971759Y-128802757D01*
X208971758Y-128802753D01*
X208968602Y-128787904D01*
X208968474Y-128787302D01*
X208964357Y-128767933D01*
X208968446Y-128767933D01*
X208972386Y-128786470D01*
X208972514Y-128787072D01*
X208975669Y-128801917D01*
X208975707Y-128802094D01*
X208975708Y-128802098D01*
X208989059Y-128864909D01*
X208989182Y-128865488D01*
X208991149Y-128874741D01*
X208991150Y-128874744D01*
X208991276Y-128875342D01*
X208996066Y-128897874D01*
X208996066Y-128897875D01*
X208998473Y-128909199D01*
X208998596Y-128909777D01*
X209012840Y-128976791D01*
X209012841Y-128976792D01*
X209012954Y-128977325D01*
X209012953Y-128977325D01*
X209021877Y-129019306D01*
X209033698Y-129074920D01*
X209033699Y-129074921D01*
X209033798Y-129075388D01*
X209033797Y-129075388D01*
X209040078Y-129104935D01*
X209040081Y-129104946D01*
X209040093Y-129105004D01*
X209040092Y-129105004D01*
X209053605Y-129168575D01*
X209053605Y-129168576D01*
X209055097Y-129175595D01*
X209055225Y-129176197D01*
X209060245Y-129199814D01*
X209069244Y-129242150D01*
X209069245Y-129242151D01*
X209069344Y-129242618D01*
X209069343Y-129242618D01*
X209091461Y-129346673D01*
X209091522Y-129346959D01*
X209091522Y-129346960D01*
X209093039Y-129354098D01*
X209175942Y-129744124D01*
X210445578Y-129474255D01*
X210432923Y-129414717D01*
X210432920Y-129414706D01*
X210432908Y-129414648D01*
X210432909Y-129414648D01*
X210420328Y-129355463D01*
X210420327Y-129355462D01*
X210420214Y-129354929D01*
X210418697Y-129347791D01*
X210418698Y-129347791D01*
X210418637Y-129347507D01*
X210418637Y-129347506D01*
X210396519Y-129243449D01*
X210395207Y-129237278D01*
X210395084Y-129236700D01*
X210387502Y-129201030D01*
X210387501Y-129201027D01*
X210387420Y-129200643D01*
X210382401Y-129177029D01*
X210382273Y-129176427D01*
X210380781Y-129169408D01*
X210380781Y-129169407D01*
X210367266Y-129105825D01*
X210360973Y-129076219D01*
X210360972Y-129076218D01*
X210360873Y-129075751D01*
X210360874Y-129075751D01*
X210340129Y-128978156D01*
X210340128Y-128978155D01*
X210340015Y-128977622D01*
X210340016Y-128977622D01*
X210318452Y-128876174D01*
X210302846Y-128802753D01*
X210238082Y-128498064D01*
X208968446Y-128767933D01*
X208964357Y-128767933D01*
X208964118Y-128766809D01*
X208964074Y-128766393D01*
X208964074Y-128766392D01*
X208965658Y-128764436D01*
X210239207Y-128493735D01*
X210241109Y-128494353D01*
G37*
G36*
X199292708Y-111345946D02*
G01*
X199293178Y-111346868D01*
X199357482Y-111649397D01*
X199389283Y-111799009D01*
X199398200Y-111840960D01*
X199410140Y-111897134D01*
X199413926Y-111914946D01*
X199413987Y-111915233D01*
X199424729Y-111965771D01*
X199427139Y-111977107D01*
X199427139Y-111977108D01*
X199436650Y-112021853D01*
X199436651Y-112021854D01*
X199436764Y-112022387D01*
X199436763Y-112022387D01*
X199441669Y-112045466D01*
X199445573Y-112063834D01*
X199458236Y-112123406D01*
X199458238Y-112123413D01*
X199458275Y-112123590D01*
X199459931Y-112131381D01*
X199460054Y-112131959D01*
X199462137Y-112141759D01*
X199462138Y-112141760D01*
X199462251Y-112142293D01*
X199462250Y-112142293D01*
X199467250Y-112165816D01*
X199467378Y-112166417D01*
X199469345Y-112175671D01*
X199469468Y-112176250D01*
X199484678Y-112247808D01*
X199484678Y-112247809D01*
X199486013Y-112254087D01*
X199486141Y-112254689D01*
X199488708Y-112266766D01*
X199488711Y-112266777D01*
X199488723Y-112266835D01*
X199488722Y-112266835D01*
X199498021Y-112310581D01*
X199498144Y-112311160D01*
X199498145Y-112311162D01*
X199498178Y-112311318D01*
X199498177Y-112311318D01*
X199498305Y-112311918D01*
X199501505Y-112326972D01*
X199501549Y-112327388D01*
X199501549Y-112327389D01*
X199499965Y-112329345D01*
X198226416Y-112600046D01*
X198224514Y-112599428D01*
X198224044Y-112598506D01*
X198170287Y-112345596D01*
X198153708Y-112267598D01*
X198151141Y-112255521D01*
X198151013Y-112254919D01*
X198134468Y-112177082D01*
X198134345Y-112176503D01*
X198132378Y-112167249D01*
X198127250Y-112143124D01*
X198127249Y-112143123D01*
X198127136Y-112142590D01*
X198127137Y-112142590D01*
X198125054Y-112132791D01*
X198124931Y-112132213D01*
X198123236Y-112124238D01*
X198110687Y-112065199D01*
X198106707Y-112046475D01*
X198106670Y-112046302D01*
X198106669Y-112046298D01*
X198101650Y-112022685D01*
X198092139Y-111977940D01*
X198092139Y-111977939D01*
X198089829Y-111967070D01*
X198078987Y-111916065D01*
X198078926Y-111915778D01*
X198075140Y-111897966D01*
X198075139Y-111897964D01*
X198075040Y-111897496D01*
X198075041Y-111897496D01*
X198068277Y-111865676D01*
X198068277Y-111865675D01*
X198063282Y-111842176D01*
X198063200Y-111841794D01*
X198063200Y-111841792D01*
X198062421Y-111838125D01*
X198062360Y-111837838D01*
X198054283Y-111799841D01*
X198054184Y-111799374D01*
X198039131Y-111728554D01*
X198039049Y-111728170D01*
X198032066Y-111695317D01*
X198032005Y-111695031D01*
X198022564Y-111650615D01*
X198022482Y-111650230D01*
X198015956Y-111619526D01*
X198020045Y-111619526D01*
X198026394Y-111649397D01*
X198026476Y-111649782D01*
X198035917Y-111694197D01*
X198035978Y-111694483D01*
X198035978Y-111694484D01*
X198042961Y-111727337D01*
X198043043Y-111727722D01*
X198058096Y-111798542D01*
X198058097Y-111798543D01*
X198058196Y-111799010D01*
X198058195Y-111799010D01*
X198066272Y-111837006D01*
X198066333Y-111837293D01*
X198067112Y-111840958D01*
X198067194Y-111841342D01*
X198067194Y-111841344D01*
X198072189Y-111864843D01*
X198072189Y-111864844D01*
X198078953Y-111896666D01*
X198078954Y-111896668D01*
X198079053Y-111897136D01*
X198079052Y-111897136D01*
X198082838Y-111914946D01*
X198082899Y-111915233D01*
X198093741Y-111966238D01*
X198096051Y-111977107D01*
X198096051Y-111977108D01*
X198105562Y-112021853D01*
X198110580Y-112045462D01*
X198110618Y-112045639D01*
X198110619Y-112045643D01*
X198114599Y-112064367D01*
X198127148Y-112123406D01*
X198128843Y-112131381D01*
X198128966Y-112131959D01*
X198131049Y-112141759D01*
X198131050Y-112141760D01*
X198131163Y-112142293D01*
X198131162Y-112142293D01*
X198136290Y-112166417D01*
X198138257Y-112175671D01*
X198138380Y-112176250D01*
X198154925Y-112254087D01*
X198155053Y-112254689D01*
X198157620Y-112266766D01*
X198174199Y-112344764D01*
X198227541Y-112595717D01*
X199497177Y-112325848D01*
X199494393Y-112312750D01*
X199494265Y-112312148D01*
X199494264Y-112312146D01*
X199494231Y-112311990D01*
X199494232Y-112311990D01*
X199494109Y-112311413D01*
X199484808Y-112267656D01*
X199484805Y-112267645D01*
X199484793Y-112267587D01*
X199484794Y-112267587D01*
X199482229Y-112255521D01*
X199482101Y-112254919D01*
X199480766Y-112248641D01*
X199480766Y-112248640D01*
X199465556Y-112177082D01*
X199465433Y-112176503D01*
X199463466Y-112167249D01*
X199463338Y-112166648D01*
X199458338Y-112143124D01*
X199458337Y-112143123D01*
X199458224Y-112142590D01*
X199458225Y-112142590D01*
X199456142Y-112132791D01*
X199456019Y-112132213D01*
X199454361Y-112124415D01*
X199454359Y-112124408D01*
X199454322Y-112124231D01*
X199441661Y-112064666D01*
X199437757Y-112046298D01*
X199432851Y-112023218D01*
X199432850Y-112023217D01*
X199432737Y-112022684D01*
X199432738Y-112022684D01*
X199423227Y-111977940D01*
X199423227Y-111977939D01*
X199420817Y-111966603D01*
X199410075Y-111916065D01*
X199410014Y-111915778D01*
X199406228Y-111897966D01*
X199394288Y-111841792D01*
X199385371Y-111799841D01*
X199353570Y-111650229D01*
X199289681Y-111349657D01*
X198020045Y-111619526D01*
X198015956Y-111619526D01*
X198015717Y-111618403D01*
X198015673Y-111617986D01*
X198015673Y-111617985D01*
X198017257Y-111616029D01*
X199290806Y-111345328D01*
X199292708Y-111345946D01*
G37*
G36*
X218612528Y-110613116D02*
G01*
X218612998Y-110614038D01*
X218663257Y-110850491D01*
X218682377Y-110940444D01*
X218682500Y-110941022D01*
X218689804Y-110975385D01*
X218694399Y-110997003D01*
X218710662Y-111073514D01*
X218725029Y-111141106D01*
X218733603Y-111181443D01*
X218741355Y-111217914D01*
X218741416Y-111218201D01*
X218744801Y-111234126D01*
X218744929Y-111234728D01*
X218746957Y-111244268D01*
X218746957Y-111244269D01*
X218750988Y-111263234D01*
X218751116Y-111263836D01*
X218751938Y-111267704D01*
X218754158Y-111278146D01*
X218754281Y-111278724D01*
X218761368Y-111312066D01*
X218761496Y-111312668D01*
X218768765Y-111346868D01*
X218768765Y-111346869D01*
X218770847Y-111356664D01*
X218771134Y-111358011D01*
X218771137Y-111358022D01*
X218771149Y-111358080D01*
X218771148Y-111358080D01*
X218772625Y-111365025D01*
X218789078Y-111442433D01*
X218789191Y-111442965D01*
X218799157Y-111489849D01*
X218799158Y-111489850D01*
X218799257Y-111490317D01*
X218799256Y-111490317D01*
X218804358Y-111514321D01*
X218804440Y-111514706D01*
X218804496Y-111514969D01*
X218804496Y-111514970D01*
X218807929Y-111531120D01*
X218807967Y-111531296D01*
X218807968Y-111531302D01*
X218815722Y-111567786D01*
X218815723Y-111567786D01*
X218815823Y-111568253D01*
X218815823Y-111568256D01*
X218819323Y-111584722D01*
X218819324Y-111584725D01*
X218819404Y-111585106D01*
X218821325Y-111594142D01*
X218821369Y-111594558D01*
X218821369Y-111594559D01*
X218819785Y-111596515D01*
X217546236Y-111867216D01*
X217544334Y-111866598D01*
X217543864Y-111865676D01*
X217480823Y-111569088D01*
X217472968Y-111532134D01*
X217464157Y-111490681D01*
X217437625Y-111365857D01*
X217436134Y-111358843D01*
X217435725Y-111356918D01*
X217426496Y-111313500D01*
X217426368Y-111312898D01*
X217419281Y-111279556D01*
X217419158Y-111278978D01*
X217416939Y-111268537D01*
X217411957Y-111245101D01*
X217411957Y-111245100D01*
X217409929Y-111235560D01*
X217399444Y-111186229D01*
X217399321Y-111185650D01*
X217398603Y-111182275D01*
X217397354Y-111176396D01*
X217397226Y-111175795D01*
X217390029Y-111141938D01*
X217375662Y-111074346D01*
X217375661Y-111074345D01*
X217375548Y-111073812D01*
X217375549Y-111073812D01*
X217366739Y-111032365D01*
X217366738Y-111032364D01*
X217366625Y-111031831D01*
X217366626Y-111031831D01*
X217361819Y-111009218D01*
X217361782Y-111009048D01*
X217361781Y-111009042D01*
X217359400Y-110997836D01*
X217359399Y-110997835D01*
X217356857Y-110985874D01*
X217356729Y-110985272D01*
X217354804Y-110976217D01*
X217354803Y-110976216D01*
X217354704Y-110975749D01*
X217354705Y-110975749D01*
X217347500Y-110941854D01*
X217347377Y-110941276D01*
X217335776Y-110886696D01*
X217339865Y-110886696D01*
X217351289Y-110940444D01*
X217351412Y-110941022D01*
X217358617Y-110974918D01*
X217358618Y-110974919D01*
X217358717Y-110975386D01*
X217358716Y-110975386D01*
X217360641Y-110984440D01*
X217360769Y-110985042D01*
X217363311Y-110997002D01*
X217363312Y-110997004D01*
X217365692Y-111008204D01*
X217365730Y-111008380D01*
X217365731Y-111008386D01*
X217370538Y-111031000D01*
X217370539Y-111031001D01*
X217370652Y-111031534D01*
X217370651Y-111031534D01*
X217379461Y-111072981D01*
X217379462Y-111072982D01*
X217379575Y-111073515D01*
X217379574Y-111073515D01*
X217393941Y-111141106D01*
X217401138Y-111174963D01*
X217401266Y-111175564D01*
X217402515Y-111181443D01*
X217403233Y-111184818D01*
X217403356Y-111185397D01*
X217413841Y-111234728D01*
X217415869Y-111244268D01*
X217415869Y-111244269D01*
X217420851Y-111267705D01*
X217423070Y-111278146D01*
X217423193Y-111278724D01*
X217430280Y-111312066D01*
X217430408Y-111312668D01*
X217439637Y-111356086D01*
X217440046Y-111358011D01*
X217441537Y-111365025D01*
X217468069Y-111489849D01*
X217476880Y-111531302D01*
X217484735Y-111568256D01*
X217547361Y-111862887D01*
X218816997Y-111593018D01*
X218815492Y-111585938D01*
X218815491Y-111585935D01*
X218815410Y-111585551D01*
X218811912Y-111569091D01*
X218811911Y-111569091D01*
X218811811Y-111568624D01*
X218811811Y-111568621D01*
X218804056Y-111532134D01*
X218804019Y-111531964D01*
X218804018Y-111531958D01*
X218800584Y-111515802D01*
X218800528Y-111515539D01*
X218800446Y-111515154D01*
X218795344Y-111491149D01*
X218795343Y-111491147D01*
X218795244Y-111490680D01*
X218795245Y-111490680D01*
X218785279Y-111443797D01*
X218785166Y-111443265D01*
X218768713Y-111365857D01*
X218767234Y-111358901D01*
X218767231Y-111358890D01*
X218767219Y-111358832D01*
X218766935Y-111357497D01*
X218764853Y-111347702D01*
X218764853Y-111347700D01*
X218757584Y-111313500D01*
X218757456Y-111312898D01*
X218750369Y-111279556D01*
X218750246Y-111278978D01*
X218748026Y-111268536D01*
X218747204Y-111264668D01*
X218747076Y-111264066D01*
X218743045Y-111245101D01*
X218743045Y-111245100D01*
X218741017Y-111235560D01*
X218740889Y-111234958D01*
X218737504Y-111219033D01*
X218737443Y-111218746D01*
X218729691Y-111182275D01*
X218721117Y-111141938D01*
X218706750Y-111074346D01*
X218690487Y-110997835D01*
X218685892Y-110976217D01*
X218678588Y-110941854D01*
X218678465Y-110941276D01*
X218659345Y-110851323D01*
X218609501Y-110616827D01*
X217339865Y-110886696D01*
X217335776Y-110886696D01*
X217335537Y-110885572D01*
X217335493Y-110885156D01*
X217335493Y-110885155D01*
X217337077Y-110883199D01*
X218610626Y-110612498D01*
X218612528Y-110613116D01*
G37*
G36*
X132721427Y-107305437D02*
G01*
X132723011Y-107307393D01*
X132723011Y-107307394D01*
X132722967Y-107307810D01*
X132709165Y-107372741D01*
X132709166Y-107372741D01*
X132709053Y-107373274D01*
X132709052Y-107373275D01*
X132706138Y-107386982D01*
X132706138Y-107386983D01*
X132703772Y-107398116D01*
X132703768Y-107398137D01*
X132703755Y-107398195D01*
X132700242Y-107414723D01*
X132700129Y-107415256D01*
X132699466Y-107418375D01*
X132699462Y-107418396D01*
X132699449Y-107418454D01*
X132688307Y-107470870D01*
X132688308Y-107470870D01*
X132688209Y-107471337D01*
X132688208Y-107471338D01*
X132686356Y-107480049D01*
X132686295Y-107480336D01*
X132670547Y-107554426D01*
X132670465Y-107554811D01*
X132670409Y-107555074D01*
X132670409Y-107555075D01*
X132666975Y-107571231D01*
X132666939Y-107571402D01*
X132666938Y-107571407D01*
X132661760Y-107595765D01*
X132653578Y-107634258D01*
X132652662Y-107638567D01*
X132651505Y-107644011D01*
X132648599Y-107657683D01*
X132648599Y-107657684D01*
X132646500Y-107667560D01*
X132646418Y-107667945D01*
X132632313Y-107734303D01*
X132632313Y-107734304D01*
X132632252Y-107734590D01*
X132630544Y-107742625D01*
X132612604Y-107827025D01*
X132612605Y-107827025D01*
X132612506Y-107827492D01*
X132612505Y-107827493D01*
X132610134Y-107838647D01*
X132604504Y-107865134D01*
X132601036Y-107881449D01*
X132596039Y-107904959D01*
X132592331Y-107922403D01*
X132575020Y-108003846D01*
X132567506Y-108039196D01*
X132514640Y-108287914D01*
X132512268Y-108289454D01*
X131238719Y-108018753D01*
X131237135Y-108016797D01*
X131237135Y-108016796D01*
X131237179Y-108016380D01*
X131237417Y-108015256D01*
X131241507Y-108015256D01*
X132511143Y-108285125D01*
X132563594Y-108038364D01*
X132571108Y-108003014D01*
X132588419Y-107921571D01*
X132592127Y-107904127D01*
X132597124Y-107880617D01*
X132600592Y-107864302D01*
X132606222Y-107837815D01*
X132608593Y-107826662D01*
X132608592Y-107826662D01*
X132608691Y-107826195D01*
X132608692Y-107826194D01*
X132626632Y-107741793D01*
X132628340Y-107733757D01*
X132628340Y-107733756D01*
X132628401Y-107733470D01*
X132642506Y-107667113D01*
X132642588Y-107666728D01*
X132644687Y-107656852D01*
X132644687Y-107656851D01*
X132647593Y-107643179D01*
X132648750Y-107637735D01*
X132649666Y-107633426D01*
X132657848Y-107594933D01*
X132663026Y-107570575D01*
X132663062Y-107570404D01*
X132663063Y-107570399D01*
X132666497Y-107554243D01*
X132666497Y-107554241D01*
X132666553Y-107553978D01*
X132666635Y-107553593D01*
X132682383Y-107479503D01*
X132682444Y-107479216D01*
X132684296Y-107470507D01*
X132684295Y-107470507D01*
X132684394Y-107470040D01*
X132684395Y-107470039D01*
X132695541Y-107417601D01*
X132695545Y-107417580D01*
X132695558Y-107417522D01*
X132696217Y-107414425D01*
X132696216Y-107414425D01*
X132696329Y-107413892D01*
X132699846Y-107397343D01*
X132699851Y-107397321D01*
X132699864Y-107397263D01*
X132702226Y-107386151D01*
X132702226Y-107386150D01*
X132705140Y-107372444D01*
X132705139Y-107372444D01*
X132705252Y-107371911D01*
X132705253Y-107371910D01*
X132718639Y-107308934D01*
X131449003Y-107039065D01*
X131399641Y-107271293D01*
X131377964Y-107373275D01*
X131372684Y-107398116D01*
X131369154Y-107414723D01*
X131357120Y-107471338D01*
X131335887Y-107571231D01*
X131335851Y-107571402D01*
X131335850Y-107571407D01*
X131330591Y-107596149D01*
X131322491Y-107634257D01*
X131321674Y-107638100D01*
X131320430Y-107643953D01*
X131317511Y-107657683D01*
X131317511Y-107657684D01*
X131315412Y-107667560D01*
X131315330Y-107667945D01*
X131301225Y-107734303D01*
X131299456Y-107742625D01*
X131281516Y-107827025D01*
X131281517Y-107827025D01*
X131281418Y-107827492D01*
X131281417Y-107827493D01*
X131279046Y-107838646D01*
X131279047Y-107838646D01*
X131278948Y-107839113D01*
X131278947Y-107839114D01*
X131273418Y-107865127D01*
X131273381Y-107865304D01*
X131273379Y-107865311D01*
X131270030Y-107881065D01*
X131270030Y-107881067D01*
X131269948Y-107881451D01*
X131264951Y-107904958D01*
X131264771Y-107905806D01*
X131264735Y-107905978D01*
X131264734Y-107905983D01*
X131262231Y-107917758D01*
X131262103Y-107918360D01*
X131261243Y-107922403D01*
X131261163Y-107922784D01*
X131261162Y-107922788D01*
X131254885Y-107952317D01*
X131254772Y-107952849D01*
X131243932Y-108003846D01*
X131243809Y-108004425D01*
X131243501Y-108005876D01*
X131243501Y-108005879D01*
X131243401Y-108006346D01*
X131243400Y-108006346D01*
X131241507Y-108015256D01*
X131237417Y-108015256D01*
X131239489Y-108005511D01*
X131239489Y-108005508D01*
X131239589Y-108005041D01*
X131239590Y-108005041D01*
X131239897Y-108003594D01*
X131240020Y-108003015D01*
X131250860Y-107952018D01*
X131250973Y-107951486D01*
X131257250Y-107921957D01*
X131257330Y-107921575D01*
X131257331Y-107921571D01*
X131258191Y-107917528D01*
X131258319Y-107916926D01*
X131260822Y-107905151D01*
X131260858Y-107904980D01*
X131260859Y-107904976D01*
X131261039Y-107904128D01*
X131261039Y-107904126D01*
X131266036Y-107880617D01*
X131266036Y-107880615D01*
X131266118Y-107880231D01*
X131269465Y-107864486D01*
X131269502Y-107864309D01*
X131269504Y-107864302D01*
X131275035Y-107838283D01*
X131275034Y-107838283D01*
X131275133Y-107837816D01*
X131275134Y-107837815D01*
X131277505Y-107826662D01*
X131277504Y-107826662D01*
X131277603Y-107826195D01*
X131277604Y-107826194D01*
X131295544Y-107741793D01*
X131297313Y-107733471D01*
X131311418Y-107667113D01*
X131311500Y-107666728D01*
X131313599Y-107656852D01*
X131313599Y-107656851D01*
X131316518Y-107643121D01*
X131317762Y-107637268D01*
X131318579Y-107633425D01*
X131326679Y-107595317D01*
X131331938Y-107570575D01*
X131331974Y-107570404D01*
X131331975Y-107570399D01*
X131353208Y-107470506D01*
X131365242Y-107413891D01*
X131368772Y-107397284D01*
X131374052Y-107372443D01*
X131395729Y-107270461D01*
X131445506Y-107036276D01*
X131447878Y-107034736D01*
X132721427Y-107305437D01*
G37*
G36*
X237246239Y-106652399D02*
G01*
X237246709Y-106653321D01*
X237302995Y-106918129D01*
X237323515Y-107014667D01*
X237328108Y-107036276D01*
X237330490Y-107047483D01*
X237335336Y-107070282D01*
X237344373Y-107112796D01*
X237358617Y-107179810D01*
X237358740Y-107180388D01*
X237358995Y-107181588D01*
X237359123Y-107182190D01*
X237362110Y-107196243D01*
X237366064Y-107214846D01*
X237367029Y-107219386D01*
X237367090Y-107219673D01*
X237367312Y-107220716D01*
X237367315Y-107220727D01*
X237367327Y-107220785D01*
X237367326Y-107220785D01*
X237368031Y-107224100D01*
X237368154Y-107224679D01*
X237375668Y-107260027D01*
X237375791Y-107260606D01*
X237377758Y-107269860D01*
X237377972Y-107270867D01*
X237380666Y-107283541D01*
X237380666Y-107283542D01*
X237384699Y-107302516D01*
X237384827Y-107303118D01*
X237385082Y-107304318D01*
X237385205Y-107304896D01*
X237385647Y-107306977D01*
X237399449Y-107371910D01*
X237402476Y-107386150D01*
X237402476Y-107386151D01*
X237404843Y-107397284D01*
X237404846Y-107397295D01*
X237404858Y-107397353D01*
X237404857Y-107397353D01*
X237408486Y-107414424D01*
X237409149Y-107417543D01*
X237409152Y-107417554D01*
X237409164Y-107417612D01*
X237409163Y-107417612D01*
X237420307Y-107470039D01*
X237420308Y-107470040D01*
X237420407Y-107470507D01*
X237420406Y-107470507D01*
X237422258Y-107479217D01*
X237422319Y-107479504D01*
X237438067Y-107553594D01*
X237438149Y-107553979D01*
X237438205Y-107554242D01*
X237438205Y-107554243D01*
X237441638Y-107570393D01*
X237441676Y-107570569D01*
X237441677Y-107570575D01*
X237446854Y-107594931D01*
X237446936Y-107595315D01*
X237446936Y-107595317D01*
X237455036Y-107633425D01*
X237455080Y-107633841D01*
X237455080Y-107633842D01*
X237453496Y-107635798D01*
X236179947Y-107906499D01*
X236178045Y-107905881D01*
X236177575Y-107904959D01*
X236122097Y-107643953D01*
X236120853Y-107638100D01*
X236111936Y-107596149D01*
X236106677Y-107571407D01*
X236074149Y-107418375D01*
X236073486Y-107415256D01*
X236069855Y-107398174D01*
X236069852Y-107398163D01*
X236069840Y-107398105D01*
X236069841Y-107398105D01*
X236067476Y-107386982D01*
X236050648Y-107307810D01*
X236050205Y-107305728D01*
X236050082Y-107305150D01*
X236049827Y-107303950D01*
X236049699Y-107303348D01*
X236045666Y-107284374D01*
X236045666Y-107284373D01*
X236043010Y-107271876D01*
X236042973Y-107271703D01*
X236042971Y-107271697D01*
X236042885Y-107271291D01*
X236042758Y-107270693D01*
X236040791Y-107261439D01*
X236040791Y-107261438D01*
X236040668Y-107260859D01*
X236032312Y-107221548D01*
X236030937Y-107215077D01*
X236027148Y-107197252D01*
X236027111Y-107197079D01*
X236027110Y-107197075D01*
X236024123Y-107183022D01*
X236023995Y-107182420D01*
X236023740Y-107181220D01*
X236023617Y-107180642D01*
X236009373Y-107113628D01*
X236009372Y-107113627D01*
X236009259Y-107113094D01*
X236009260Y-107113094D01*
X236000450Y-107071647D01*
X236000336Y-107071116D01*
X236000336Y-107071114D01*
X235995971Y-107050576D01*
X235995968Y-107050565D01*
X235995956Y-107050507D01*
X235995957Y-107050507D01*
X235995528Y-107048491D01*
X235995491Y-107048321D01*
X235995490Y-107048315D01*
X235993108Y-107037109D01*
X235993108Y-107037108D01*
X235988515Y-107015499D01*
X235988514Y-107015498D01*
X235988415Y-107015031D01*
X235988416Y-107015031D01*
X235982862Y-106988902D01*
X235982801Y-106988615D01*
X235969487Y-106925979D01*
X235973576Y-106925979D01*
X235986713Y-106987783D01*
X235986774Y-106988070D01*
X235992328Y-107014200D01*
X235992329Y-107014201D01*
X235992428Y-107014668D01*
X235992427Y-107014668D01*
X235997020Y-107036276D01*
X235997020Y-107036277D01*
X235999401Y-107047477D01*
X235999439Y-107047653D01*
X235999440Y-107047659D01*
X235999871Y-107049686D01*
X235999874Y-107049697D01*
X235999886Y-107049755D01*
X235999885Y-107049755D01*
X236004248Y-107070280D01*
X236004362Y-107070813D01*
X236004362Y-107070815D01*
X236013172Y-107112263D01*
X236013173Y-107112264D01*
X236013286Y-107112797D01*
X236013285Y-107112797D01*
X236027529Y-107179810D01*
X236027652Y-107180388D01*
X236027907Y-107181588D01*
X236028035Y-107182190D01*
X236031021Y-107196239D01*
X236031059Y-107196416D01*
X236031060Y-107196420D01*
X236034849Y-107214245D01*
X236036224Y-107220716D01*
X236044580Y-107260027D01*
X236044703Y-107260606D01*
X236046670Y-107269860D01*
X236046798Y-107270461D01*
X236046799Y-107270463D01*
X236046885Y-107270869D01*
X236046884Y-107270869D01*
X236046921Y-107271040D01*
X236046922Y-107271044D01*
X236049578Y-107283541D01*
X236049578Y-107283542D01*
X236053611Y-107302516D01*
X236053739Y-107303118D01*
X236053994Y-107304318D01*
X236054117Y-107304896D01*
X236054560Y-107306978D01*
X236071388Y-107386150D01*
X236073755Y-107397284D01*
X236073758Y-107397295D01*
X236073770Y-107397353D01*
X236073769Y-107397353D01*
X236077398Y-107414424D01*
X236078061Y-107417543D01*
X236110589Y-107570575D01*
X236115848Y-107595317D01*
X236124765Y-107637268D01*
X236126009Y-107643121D01*
X236181072Y-107902170D01*
X237450708Y-107632301D01*
X237443024Y-107596149D01*
X237442942Y-107595767D01*
X237442942Y-107595765D01*
X237437765Y-107571407D01*
X237437728Y-107571237D01*
X237437727Y-107571231D01*
X237434293Y-107555075D01*
X237434237Y-107554812D01*
X237434155Y-107554427D01*
X237418407Y-107480337D01*
X237418346Y-107480050D01*
X237416494Y-107471339D01*
X237416493Y-107471337D01*
X237416394Y-107470870D01*
X237416395Y-107470870D01*
X237405249Y-107418433D01*
X237405246Y-107418422D01*
X237405234Y-107418364D01*
X237405235Y-107418364D01*
X237404574Y-107415256D01*
X237400943Y-107398174D01*
X237400940Y-107398163D01*
X237400928Y-107398105D01*
X237400929Y-107398105D01*
X237398564Y-107386983D01*
X237398564Y-107386982D01*
X237395537Y-107372742D01*
X237381735Y-107307809D01*
X237381293Y-107305728D01*
X237381170Y-107305150D01*
X237380915Y-107303950D01*
X237380787Y-107303348D01*
X237376754Y-107284374D01*
X237376754Y-107284373D01*
X237374060Y-107271699D01*
X237373846Y-107270692D01*
X237371879Y-107261438D01*
X237371756Y-107260859D01*
X237364242Y-107225511D01*
X237364119Y-107224932D01*
X237363412Y-107221606D01*
X237363409Y-107221595D01*
X237363397Y-107221537D01*
X237363398Y-107221537D01*
X237363178Y-107220505D01*
X237363117Y-107220218D01*
X237362152Y-107215678D01*
X237358198Y-107197075D01*
X237355211Y-107183022D01*
X237355083Y-107182420D01*
X237354828Y-107181220D01*
X237354705Y-107180642D01*
X237340461Y-107113628D01*
X237331424Y-107071114D01*
X237326578Y-107048315D01*
X237324196Y-107037108D01*
X237319603Y-107015499D01*
X237299083Y-106918961D01*
X237243212Y-106656110D01*
X235973576Y-106925979D01*
X235969487Y-106925979D01*
X235969248Y-106924855D01*
X235969204Y-106924439D01*
X235969204Y-106924438D01*
X235970788Y-106922482D01*
X237244337Y-106651781D01*
X237246239Y-106652399D01*
G37*
G36*
X145301389Y-71028202D02*
G01*
X145302973Y-71030158D01*
X145302973Y-71030159D01*
X145302929Y-71030575D01*
X145290064Y-71091100D01*
X145290003Y-71091387D01*
X145288463Y-71098631D01*
X145288335Y-71099233D01*
X145283887Y-71120157D01*
X145283888Y-71120157D01*
X145283876Y-71120215D01*
X145283873Y-71120225D01*
X145283734Y-71120880D01*
X145283730Y-71120902D01*
X145283717Y-71120960D01*
X145279106Y-71142651D01*
X145278985Y-71143226D01*
X145278984Y-71143229D01*
X145275148Y-71161274D01*
X145275020Y-71161875D01*
X145267824Y-71195732D01*
X145267701Y-71196310D01*
X145267376Y-71197838D01*
X145267315Y-71198125D01*
X145260753Y-71228998D01*
X145260640Y-71229530D01*
X145253457Y-71263324D01*
X145253457Y-71263326D01*
X145253343Y-71263859D01*
X145250661Y-71276478D01*
X145250579Y-71276863D01*
X145250579Y-71276864D01*
X145250509Y-71277192D01*
X145250427Y-71277577D01*
X145250371Y-71277840D01*
X145247089Y-71293283D01*
X145247088Y-71293289D01*
X145247050Y-71293465D01*
X145246937Y-71293995D01*
X145246901Y-71294167D01*
X145246900Y-71294172D01*
X145234008Y-71354821D01*
X145232499Y-71361920D01*
X145231409Y-71367049D01*
X145231409Y-71367050D01*
X145223029Y-71406475D01*
X145212366Y-71456641D01*
X145212366Y-71456642D01*
X145212275Y-71457069D01*
X145212214Y-71457355D01*
X145211070Y-71462738D01*
X145205970Y-71486731D01*
X145200113Y-71514287D01*
X145190096Y-71561412D01*
X145180998Y-71604214D01*
X145173870Y-71637750D01*
X145160317Y-71701511D01*
X145160256Y-71701798D01*
X145154702Y-71727928D01*
X145094602Y-72010679D01*
X145093264Y-72012165D01*
X145092230Y-72012219D01*
X143818681Y-71741518D01*
X143817097Y-71739562D01*
X143817097Y-71739561D01*
X143817141Y-71739145D01*
X143817379Y-71738021D01*
X143821469Y-71738021D01*
X145091105Y-72007890D01*
X145150790Y-71727096D01*
X145156344Y-71700966D01*
X145156405Y-71700679D01*
X145169958Y-71636918D01*
X145177086Y-71603382D01*
X145186184Y-71560580D01*
X145196201Y-71513455D01*
X145202058Y-71485899D01*
X145207158Y-71461906D01*
X145208302Y-71456522D01*
X145208302Y-71456521D01*
X145208363Y-71456235D01*
X145208454Y-71455808D01*
X145219117Y-71405643D01*
X145227497Y-71366218D01*
X145227497Y-71366217D01*
X145228587Y-71361088D01*
X145230096Y-71353989D01*
X145242988Y-71293340D01*
X145243024Y-71293169D01*
X145243025Y-71293165D01*
X145243139Y-71292628D01*
X145243140Y-71292621D01*
X145243178Y-71292445D01*
X145246459Y-71277008D01*
X145246459Y-71277006D01*
X145246515Y-71276743D01*
X145246597Y-71276358D01*
X145246667Y-71276030D01*
X145246749Y-71275645D01*
X145249431Y-71263024D01*
X145249431Y-71263023D01*
X145249545Y-71262490D01*
X145256728Y-71228698D01*
X145256841Y-71228166D01*
X145263403Y-71197293D01*
X145263464Y-71197006D01*
X145263789Y-71195478D01*
X145263912Y-71194900D01*
X145271108Y-71161043D01*
X145271236Y-71160442D01*
X145275072Y-71142397D01*
X145275193Y-71141822D01*
X145275194Y-71141819D01*
X145279809Y-71120107D01*
X145279813Y-71120086D01*
X145279826Y-71120028D01*
X145279827Y-71120028D01*
X145279959Y-71119405D01*
X145279958Y-71119405D01*
X145279970Y-71119347D01*
X145279973Y-71119336D01*
X145284423Y-71098401D01*
X145284551Y-71097799D01*
X145286091Y-71090555D01*
X145286152Y-71090268D01*
X145298601Y-71031699D01*
X144028965Y-70761830D01*
X143976084Y-71010614D01*
X143952646Y-71120881D01*
X143936736Y-71195732D01*
X143936613Y-71196310D01*
X143929665Y-71228998D01*
X143929552Y-71229530D01*
X143922369Y-71263324D01*
X143919573Y-71276478D01*
X143919491Y-71276863D01*
X143916001Y-71293283D01*
X143916001Y-71293284D01*
X143915849Y-71293997D01*
X143915813Y-71294167D01*
X143915812Y-71294172D01*
X143903020Y-71354354D01*
X143901511Y-71361453D01*
X143900321Y-71367050D01*
X143891979Y-71406298D01*
X143891978Y-71406302D01*
X143891940Y-71406479D01*
X143881339Y-71456355D01*
X143881339Y-71456356D01*
X143881278Y-71456642D01*
X143881187Y-71457069D01*
X143880020Y-71462561D01*
X143880019Y-71462565D01*
X143879981Y-71462742D01*
X143874964Y-71486347D01*
X143874964Y-71486349D01*
X143874882Y-71486733D01*
X143869107Y-71513902D01*
X143869025Y-71514287D01*
X143859160Y-71560698D01*
X143859161Y-71560698D01*
X143859062Y-71561165D01*
X143859060Y-71561171D01*
X143859008Y-71561411D01*
X143859009Y-71561411D01*
X143858910Y-71561878D01*
X143858909Y-71561879D01*
X143850144Y-71603117D01*
X143850144Y-71603119D01*
X143850062Y-71603503D01*
X143849992Y-71603830D01*
X143849992Y-71603832D01*
X143849910Y-71604216D01*
X143844942Y-71627587D01*
X143844943Y-71627587D01*
X143844931Y-71627645D01*
X143844928Y-71627656D01*
X143843748Y-71633207D01*
X143843748Y-71633208D01*
X143843687Y-71633494D01*
X143842782Y-71637750D01*
X143842782Y-71637751D01*
X143829229Y-71701511D01*
X143829168Y-71701798D01*
X143823614Y-71727927D01*
X143823615Y-71727927D01*
X143823516Y-71728394D01*
X143823464Y-71728639D01*
X143823463Y-71728644D01*
X143823363Y-71729111D01*
X143823362Y-71729111D01*
X143821469Y-71738021D01*
X143817379Y-71738021D01*
X143819451Y-71728276D01*
X143819451Y-71728273D01*
X143819551Y-71727806D01*
X143819602Y-71727565D01*
X143819602Y-71727564D01*
X143819701Y-71727097D01*
X143819702Y-71727096D01*
X143825256Y-71700966D01*
X143825317Y-71700679D01*
X143838870Y-71636919D01*
X143838870Y-71636918D01*
X143839775Y-71632661D01*
X143839775Y-71632660D01*
X143839836Y-71632374D01*
X143841014Y-71626835D01*
X143841013Y-71626835D01*
X143841025Y-71626777D01*
X143841028Y-71626766D01*
X143845998Y-71603382D01*
X143845998Y-71603380D01*
X143846080Y-71602996D01*
X143846150Y-71602669D01*
X143846150Y-71602667D01*
X143846232Y-71602283D01*
X143854997Y-71561048D01*
X143854996Y-71561048D01*
X143855095Y-71560581D01*
X143855097Y-71560575D01*
X143855149Y-71560335D01*
X143855148Y-71560335D01*
X143855247Y-71559868D01*
X143855248Y-71559867D01*
X143865113Y-71513455D01*
X143865195Y-71513070D01*
X143870970Y-71485899D01*
X143870970Y-71485897D01*
X143871052Y-71485513D01*
X143876070Y-71461906D01*
X143876071Y-71461902D01*
X143876109Y-71461725D01*
X143877275Y-71456236D01*
X143877275Y-71456235D01*
X143877366Y-71455808D01*
X143877427Y-71455522D01*
X143888029Y-71405643D01*
X143888030Y-71405639D01*
X143888068Y-71405462D01*
X143896409Y-71366218D01*
X143897599Y-71360621D01*
X143899108Y-71353522D01*
X143911900Y-71293340D01*
X143911936Y-71293169D01*
X143911937Y-71293163D01*
X143912089Y-71292450D01*
X143915579Y-71276031D01*
X143915661Y-71275646D01*
X143918457Y-71262492D01*
X143925640Y-71228698D01*
X143925753Y-71228166D01*
X143932701Y-71195478D01*
X143932824Y-71194900D01*
X143948734Y-71120049D01*
X143972172Y-71009782D01*
X144025468Y-70759041D01*
X144026806Y-70757555D01*
X144027840Y-70757501D01*
X145301389Y-71028202D01*
G37*
G36*
X219321889Y-68137407D02*
G01*
X219322359Y-68138329D01*
X219366818Y-68347495D01*
X219375735Y-68389446D01*
X219376979Y-68395299D01*
X219381308Y-68415665D01*
X219424030Y-68616657D01*
X219426307Y-68627368D01*
X219426308Y-68627369D01*
X219426407Y-68627836D01*
X219426406Y-68627836D01*
X219432638Y-68657153D01*
X219432639Y-68657158D01*
X219432675Y-68657329D01*
X219432789Y-68657865D01*
X219436247Y-68674133D01*
X219436317Y-68674461D01*
X219436399Y-68674846D01*
X219436399Y-68674847D01*
X219457148Y-68772464D01*
X219458881Y-68780617D01*
X219460220Y-68786916D01*
X219468279Y-68824830D01*
X219468340Y-68825117D01*
X219469460Y-68830386D01*
X219469463Y-68830397D01*
X219469475Y-68830455D01*
X219469474Y-68830455D01*
X219469611Y-68831098D01*
X219469614Y-68831109D01*
X219469626Y-68831167D01*
X219469625Y-68831167D01*
X219500097Y-68974525D01*
X219500158Y-68974812D01*
X219501434Y-68980814D01*
X219501495Y-68981101D01*
X219506986Y-69006933D01*
X219506999Y-69006991D01*
X219507003Y-69007012D01*
X219507142Y-69007666D01*
X219507145Y-69007677D01*
X219507155Y-69007726D01*
X219507225Y-69008057D01*
X219507224Y-69008057D01*
X219507285Y-69008340D01*
X219507376Y-69008766D01*
X219507376Y-69008768D01*
X219507437Y-69009055D01*
X219508135Y-69012341D01*
X219508217Y-69012726D01*
X219530686Y-69118433D01*
X219530730Y-69118849D01*
X219530730Y-69118850D01*
X219529146Y-69120806D01*
X218255597Y-69391507D01*
X218253695Y-69390889D01*
X218253225Y-69389967D01*
X218208976Y-69181789D01*
X218206291Y-69169157D01*
X218172437Y-69009887D01*
X218172376Y-69009600D01*
X218172142Y-69008498D01*
X218172003Y-69007844D01*
X218134611Y-68831930D01*
X218134472Y-68831276D01*
X218134469Y-68831265D01*
X218134457Y-68831207D01*
X218134458Y-68831207D01*
X218133340Y-68825949D01*
X218133279Y-68825662D01*
X218125302Y-68788133D01*
X218125220Y-68787748D01*
X218123881Y-68781449D01*
X218123878Y-68781438D01*
X218123866Y-68781380D01*
X218123867Y-68781380D01*
X218122186Y-68773473D01*
X218122149Y-68773300D01*
X218122148Y-68773296D01*
X218101399Y-68675679D01*
X218101317Y-68675294D01*
X218101316Y-68675292D01*
X218101165Y-68674579D01*
X218101166Y-68674579D01*
X218097827Y-68658873D01*
X218097790Y-68658703D01*
X218097789Y-68658696D01*
X218097638Y-68657984D01*
X218097458Y-68657136D01*
X218091406Y-68628667D01*
X218091405Y-68628666D01*
X218091306Y-68628199D01*
X218091307Y-68628199D01*
X218089030Y-68617489D01*
X218089028Y-68617482D01*
X218088991Y-68617305D01*
X218075147Y-68552173D01*
X218075144Y-68552162D01*
X218075132Y-68552104D01*
X218075133Y-68552104D01*
X218064775Y-68503376D01*
X218064662Y-68502844D01*
X218063165Y-68495801D01*
X218063104Y-68495516D01*
X218063013Y-68495090D01*
X218063012Y-68495084D01*
X218062952Y-68494798D01*
X218046431Y-68417075D01*
X218046308Y-68416497D01*
X218045137Y-68410987D01*
X218049226Y-68410987D01*
X218050220Y-68415665D01*
X218050343Y-68416243D01*
X218066865Y-68493971D01*
X218066866Y-68493976D01*
X218066925Y-68494255D01*
X218067016Y-68494681D01*
X218067077Y-68494967D01*
X218067077Y-68494969D01*
X218068574Y-68502012D01*
X218068687Y-68502544D01*
X218079047Y-68551283D01*
X218079050Y-68551294D01*
X218079062Y-68551352D01*
X218079061Y-68551352D01*
X218092905Y-68616480D01*
X218092907Y-68616487D01*
X218092944Y-68616664D01*
X218095219Y-68627368D01*
X218095220Y-68627369D01*
X218095319Y-68627836D01*
X218095318Y-68627836D01*
X218101370Y-68656304D01*
X218101370Y-68656306D01*
X218101550Y-68657154D01*
X218101700Y-68657859D01*
X218101738Y-68658035D01*
X218101739Y-68658041D01*
X218105078Y-68673749D01*
X218105079Y-68673751D01*
X218105229Y-68674461D01*
X218105311Y-68674846D01*
X218126059Y-68772460D01*
X218126097Y-68772637D01*
X218126098Y-68772641D01*
X218127781Y-68780559D01*
X218127784Y-68780570D01*
X218127796Y-68780628D01*
X218127795Y-68780628D01*
X218129132Y-68786916D01*
X218129214Y-68787301D01*
X218137191Y-68824830D01*
X218137252Y-68825117D01*
X218138372Y-68830386D01*
X218138375Y-68830397D01*
X218138387Y-68830455D01*
X218138386Y-68830455D01*
X218138523Y-68831098D01*
X218175915Y-69007012D01*
X218176054Y-69007666D01*
X218176288Y-69008768D01*
X218176349Y-69009055D01*
X218210203Y-69168325D01*
X218212888Y-69180957D01*
X218256722Y-69387178D01*
X219526358Y-69117309D01*
X219504305Y-69013558D01*
X219504223Y-69013173D01*
X219503525Y-69009887D01*
X219503464Y-69009600D01*
X219503373Y-69009176D01*
X219503373Y-69009174D01*
X219503312Y-69008887D01*
X219503311Y-69008885D01*
X219503241Y-69008554D01*
X219503239Y-69008545D01*
X219503227Y-69008487D01*
X219503228Y-69008487D01*
X219503095Y-69007865D01*
X219503082Y-69007807D01*
X219503078Y-69007786D01*
X219497583Y-68981933D01*
X219497522Y-68981646D01*
X219496246Y-68975644D01*
X219496185Y-68975357D01*
X219465711Y-68831988D01*
X219465708Y-68831977D01*
X219465696Y-68831919D01*
X219465697Y-68831919D01*
X219465560Y-68831276D01*
X219465557Y-68831265D01*
X219465545Y-68831207D01*
X219465546Y-68831207D01*
X219464428Y-68825949D01*
X219464367Y-68825662D01*
X219456308Y-68787748D01*
X219454969Y-68781449D01*
X219453236Y-68773296D01*
X219432487Y-68675679D01*
X219432405Y-68675294D01*
X219432335Y-68674967D01*
X219432335Y-68674966D01*
X219428877Y-68658697D01*
X219428763Y-68658161D01*
X219428762Y-68658156D01*
X219428725Y-68657980D01*
X219422494Y-68628667D01*
X219422493Y-68628666D01*
X219422394Y-68628199D01*
X219422395Y-68628199D01*
X219420118Y-68617489D01*
X219377396Y-68416497D01*
X219373067Y-68396131D01*
X219371823Y-68390278D01*
X219362906Y-68348327D01*
X219318862Y-68141118D01*
X218049226Y-68410987D01*
X218045137Y-68410987D01*
X218044898Y-68409863D01*
X218044854Y-68409447D01*
X218044854Y-68409446D01*
X218046438Y-68407490D01*
X219319987Y-68136789D01*
X219321889Y-68137407D01*
G37*
G36*
X206730513Y-54711913D02*
G01*
X206730983Y-54712835D01*
X206781242Y-54949288D01*
X206807789Y-55074182D01*
X206807943Y-55074906D01*
X206816853Y-55116824D01*
X206828647Y-55172311D01*
X206828801Y-55173035D01*
X206843014Y-55239903D01*
X206843045Y-55240049D01*
X206843168Y-55240627D01*
X206846208Y-55254928D01*
X206846336Y-55255530D01*
X206850492Y-55275085D01*
X206852459Y-55284339D01*
X206864801Y-55342402D01*
X206867793Y-55356477D01*
X206868345Y-55359075D01*
X206868406Y-55359362D01*
X206868973Y-55362031D01*
X206869101Y-55362632D01*
X206869127Y-55362754D01*
X206869255Y-55363356D01*
X206869255Y-55363357D01*
X206873918Y-55385295D01*
X206874031Y-55385827D01*
X206879363Y-55410912D01*
X206879491Y-55411514D01*
X206886750Y-55445665D01*
X206886750Y-55445666D01*
X206888720Y-55454932D01*
X206888843Y-55455510D01*
X206900562Y-55510648D01*
X206900563Y-55510648D01*
X206900663Y-55511115D01*
X206900663Y-55511118D01*
X206907074Y-55541279D01*
X206907187Y-55541811D01*
X206908202Y-55546586D01*
X206908203Y-55546590D01*
X206908283Y-55546971D01*
X206911801Y-55563521D01*
X206911839Y-55563698D01*
X206911840Y-55563702D01*
X206926591Y-55633100D01*
X206933719Y-55666635D01*
X206933720Y-55666636D01*
X206933819Y-55667103D01*
X206934477Y-55670200D01*
X206934476Y-55670200D01*
X206934558Y-55670583D01*
X206939310Y-55692938D01*
X206939354Y-55693355D01*
X206939354Y-55693356D01*
X206937770Y-55695312D01*
X205664221Y-55966013D01*
X205662319Y-55965395D01*
X205661849Y-55964473D01*
X205598719Y-55667467D01*
X205591591Y-55633932D01*
X205576840Y-55564534D01*
X205573202Y-55547418D01*
X205572187Y-55542643D01*
X205572074Y-55542111D01*
X205565663Y-55511950D01*
X205553843Y-55456342D01*
X205553720Y-55455764D01*
X205534255Y-55364189D01*
X205533406Y-55360194D01*
X205533345Y-55359907D01*
X205532793Y-55357309D01*
X205532793Y-55357308D01*
X205529801Y-55343234D01*
X205529798Y-55343223D01*
X205529786Y-55343165D01*
X205529787Y-55343165D01*
X205520688Y-55300358D01*
X205520565Y-55299780D01*
X205517429Y-55285026D01*
X205517306Y-55284447D01*
X205515365Y-55275316D01*
X205515364Y-55275314D01*
X205515338Y-55275191D01*
X205515211Y-55274593D01*
X205511336Y-55256363D01*
X205511208Y-55255761D01*
X205508168Y-55241460D01*
X205508045Y-55240882D01*
X205508045Y-55240880D01*
X205508014Y-55240734D01*
X205493801Y-55173866D01*
X205493688Y-55173333D01*
X205493648Y-55173147D01*
X205493646Y-55173142D01*
X205493533Y-55172609D01*
X205493534Y-55172609D01*
X205489097Y-55151734D01*
X205489060Y-55151561D01*
X205489059Y-55151557D01*
X205484878Y-55131886D01*
X205484877Y-55131885D01*
X205484764Y-55131352D01*
X205484765Y-55131352D01*
X205484725Y-55131166D01*
X205484723Y-55131161D01*
X205484610Y-55130628D01*
X205484611Y-55130628D01*
X205481853Y-55117656D01*
X205481850Y-55117645D01*
X205481838Y-55117587D01*
X205481839Y-55117587D01*
X205475254Y-55086608D01*
X205475253Y-55086607D01*
X205472943Y-55075738D01*
X205472942Y-55075737D01*
X205472843Y-55075270D01*
X205472789Y-55075017D01*
X205472788Y-55075013D01*
X205472689Y-55074546D01*
X205472690Y-55074546D01*
X205467272Y-55049056D01*
X205467144Y-55048454D01*
X205453761Y-54985493D01*
X205457850Y-54985493D01*
X205471056Y-55047622D01*
X205471184Y-55048224D01*
X205476602Y-55073715D01*
X205476603Y-55073716D01*
X205476701Y-55074179D01*
X205476756Y-55074436D01*
X205476757Y-55074440D01*
X205476856Y-55074907D01*
X205476855Y-55074907D01*
X205479165Y-55085774D01*
X205479166Y-55085776D01*
X205485753Y-55116766D01*
X205485756Y-55116777D01*
X205485768Y-55116835D01*
X205485767Y-55116835D01*
X205488523Y-55129797D01*
X205488524Y-55129798D01*
X205488637Y-55130331D01*
X205488636Y-55130331D01*
X205488676Y-55130517D01*
X205488678Y-55130522D01*
X205488791Y-55131055D01*
X205488790Y-55131055D01*
X205492970Y-55150721D01*
X205493008Y-55150898D01*
X205493009Y-55150902D01*
X205497446Y-55171778D01*
X205497447Y-55171779D01*
X205497560Y-55172312D01*
X205497559Y-55172312D01*
X205497599Y-55172498D01*
X205497601Y-55172503D01*
X205497714Y-55173036D01*
X205497713Y-55173036D01*
X205511926Y-55239903D01*
X205511957Y-55240049D01*
X205512080Y-55240627D01*
X205515120Y-55254928D01*
X205515248Y-55255530D01*
X205519123Y-55273760D01*
X205519251Y-55274361D01*
X205519252Y-55274363D01*
X205519278Y-55274486D01*
X205519277Y-55274486D01*
X205521218Y-55283615D01*
X205521341Y-55284194D01*
X205524477Y-55298948D01*
X205524600Y-55299526D01*
X205533701Y-55342344D01*
X205533704Y-55342355D01*
X205533716Y-55342413D01*
X205533715Y-55342413D01*
X205536705Y-55356476D01*
X205536705Y-55356477D01*
X205537257Y-55359075D01*
X205537318Y-55359362D01*
X205538167Y-55363357D01*
X205557632Y-55454932D01*
X205557755Y-55455510D01*
X205569575Y-55511118D01*
X205575986Y-55541279D01*
X205576099Y-55541811D01*
X205577114Y-55546586D01*
X205580752Y-55563702D01*
X205595503Y-55633100D01*
X205602631Y-55666635D01*
X205665346Y-55961684D01*
X206934982Y-55691815D01*
X206930646Y-55671416D01*
X206930564Y-55671031D01*
X206929906Y-55667934D01*
X206929905Y-55667933D01*
X206929806Y-55667466D01*
X206929807Y-55667466D01*
X206922679Y-55633932D01*
X206907928Y-55564534D01*
X206907891Y-55564361D01*
X206907890Y-55564357D01*
X206904371Y-55547803D01*
X206904370Y-55547799D01*
X206904289Y-55547414D01*
X206903275Y-55542643D01*
X206903162Y-55542111D01*
X206896752Y-55511953D01*
X206896751Y-55511953D01*
X206896651Y-55511486D01*
X206896651Y-55511483D01*
X206884931Y-55456342D01*
X206884808Y-55455764D01*
X206882838Y-55446498D01*
X206882838Y-55446497D01*
X206875579Y-55412346D01*
X206875451Y-55411744D01*
X206870119Y-55386659D01*
X206870006Y-55386127D01*
X206865343Y-55364189D01*
X206865215Y-55363587D01*
X206865189Y-55363466D01*
X206865061Y-55362864D01*
X206865061Y-55362863D01*
X206864494Y-55360194D01*
X206864433Y-55359907D01*
X206863881Y-55357309D01*
X206860889Y-55343234D01*
X206848547Y-55285171D01*
X206846580Y-55275917D01*
X206842424Y-55256362D01*
X206842296Y-55255760D01*
X206839256Y-55241459D01*
X206839133Y-55240881D01*
X206839102Y-55240735D01*
X206824889Y-55173867D01*
X206824735Y-55173143D01*
X206812941Y-55117656D01*
X206804031Y-55075738D01*
X206803877Y-55075014D01*
X206777330Y-54950120D01*
X206727486Y-54715624D01*
X205457850Y-54985493D01*
X205453761Y-54985493D01*
X205453522Y-54984369D01*
X205453478Y-54983953D01*
X205453478Y-54983952D01*
X205455062Y-54981996D01*
X206728611Y-54711295D01*
X206730513Y-54711913D01*
G37*
G36*
X179189732Y-47062000D02*
G01*
X179190000Y-47063000D01*
X179190000Y-48665000D01*
X179189000Y-48666732D01*
X179188000Y-48667000D01*
X179040000Y-48667000D01*
X179038268Y-48666000D01*
X179038000Y-48665000D01*
X179038000Y-47065000D01*
X178390000Y-47065000D01*
X178390000Y-48665000D01*
X178389000Y-48666732D01*
X178388000Y-48667000D01*
X178240000Y-48667000D01*
X178238268Y-48666000D01*
X178238000Y-48665000D01*
X178238000Y-47065000D01*
X177590000Y-47065000D01*
X177590000Y-48665000D01*
X177589000Y-48666732D01*
X177588000Y-48667000D01*
X177440000Y-48667000D01*
X177438268Y-48666000D01*
X177438000Y-48665000D01*
X177438000Y-47065000D01*
X176790000Y-47065000D01*
X176790000Y-48665000D01*
X176789000Y-48666732D01*
X176788000Y-48667000D01*
X176640000Y-48667000D01*
X176638268Y-48666000D01*
X176638000Y-48665000D01*
X176638000Y-47065000D01*
X175990000Y-47065000D01*
X175990000Y-48665000D01*
X175989000Y-48666732D01*
X175988000Y-48667000D01*
X175840000Y-48667000D01*
X175838268Y-48666000D01*
X175838000Y-48665000D01*
X175838000Y-47065000D01*
X175190000Y-47065000D01*
X175190000Y-48665000D01*
X175189000Y-48666732D01*
X175188000Y-48667000D01*
X175040000Y-48667000D01*
X175038268Y-48666000D01*
X175038000Y-48665000D01*
X175038000Y-47065000D01*
X174390000Y-47065000D01*
X174390000Y-48665000D01*
X174389000Y-48666732D01*
X174388000Y-48667000D01*
X174240000Y-48667000D01*
X174238268Y-48666000D01*
X174238000Y-48665000D01*
X174238000Y-47065000D01*
X173590000Y-47065000D01*
X173590000Y-48665000D01*
X173589000Y-48666732D01*
X173588000Y-48667000D01*
X173440000Y-48667000D01*
X173438268Y-48666000D01*
X173438000Y-48665000D01*
X173438000Y-47065000D01*
X172790000Y-47065000D01*
X172790000Y-48665000D01*
X172789000Y-48666732D01*
X172788000Y-48667000D01*
X172640000Y-48667000D01*
X172638268Y-48666000D01*
X172638000Y-48665000D01*
X172638000Y-47065000D01*
X171990000Y-47065000D01*
X171990000Y-48665000D01*
X171989000Y-48666732D01*
X171988000Y-48667000D01*
X171840000Y-48667000D01*
X171838268Y-48666000D01*
X171838000Y-48665000D01*
X171838000Y-47063000D01*
X171839000Y-47061268D01*
X171840000Y-47061000D01*
X179188000Y-47061000D01*
X179189732Y-47062000D01*
G37*
G36*
X170616732Y-45689000D02*
G01*
X170617000Y-45690000D01*
X170617000Y-45838000D01*
X170616000Y-45839732D01*
X170615000Y-45840000D01*
X169013000Y-45840000D01*
X169011268Y-45839000D01*
X169011000Y-45838000D01*
X169011000Y-45690000D01*
X169012000Y-45688268D01*
X169013000Y-45688000D01*
X170615000Y-45688000D01*
X170616732Y-45689000D01*
G37*
G36*
X182016732Y-45689000D02*
G01*
X182017000Y-45690000D01*
X182017000Y-45838000D01*
X182016000Y-45839732D01*
X182015000Y-45840000D01*
X180413000Y-45840000D01*
X180411268Y-45839000D01*
X180411000Y-45838000D01*
X180411000Y-45690000D01*
X180412000Y-45688268D01*
X180413000Y-45688000D01*
X182015000Y-45688000D01*
X182016732Y-45689000D01*
G37*
G36*
X170616732Y-44889000D02*
G01*
X170617000Y-44890000D01*
X170617000Y-45038000D01*
X170616000Y-45039732D01*
X170615000Y-45040000D01*
X169013000Y-45040000D01*
X169011268Y-45039000D01*
X169011000Y-45038000D01*
X169011000Y-44890000D01*
X169012000Y-44888268D01*
X169013000Y-44888000D01*
X170615000Y-44888000D01*
X170616732Y-44889000D01*
G37*
G36*
X182016732Y-44889000D02*
G01*
X182017000Y-44890000D01*
X182017000Y-45038000D01*
X182016000Y-45039732D01*
X182015000Y-45040000D01*
X180413000Y-45040000D01*
X180411268Y-45039000D01*
X180411000Y-45038000D01*
X180411000Y-44890000D01*
X180412000Y-44888268D01*
X180413000Y-44888000D01*
X182015000Y-44888000D01*
X182016732Y-44889000D01*
G37*
G36*
X182016732Y-44089000D02*
G01*
X182017000Y-44090000D01*
X182017000Y-44238000D01*
X182016000Y-44239732D01*
X182015000Y-44240000D01*
X180413000Y-44240000D01*
X180411268Y-44239000D01*
X180411000Y-44238000D01*
X180411000Y-44090000D01*
X180412000Y-44088268D01*
X180413000Y-44088000D01*
X182015000Y-44088000D01*
X182016732Y-44089000D01*
G37*
G36*
X170616732Y-44089000D02*
G01*
X170617000Y-44090000D01*
X170617000Y-44238000D01*
X170616000Y-44239732D01*
X170615000Y-44240000D01*
X169013000Y-44240000D01*
X169011268Y-44239000D01*
X169011000Y-44238000D01*
X169011000Y-44090000D01*
X169012000Y-44088268D01*
X169013000Y-44088000D01*
X170615000Y-44088000D01*
X170616732Y-44089000D01*
G37*
G36*
X182016732Y-43289000D02*
G01*
X182017000Y-43290000D01*
X182017000Y-43438000D01*
X182016000Y-43439732D01*
X182015000Y-43440000D01*
X180413000Y-43440000D01*
X180411268Y-43439000D01*
X180411000Y-43438000D01*
X180411000Y-43290000D01*
X180412000Y-43288268D01*
X180413000Y-43288000D01*
X182015000Y-43288000D01*
X182016732Y-43289000D01*
G37*
G36*
X170616732Y-43289000D02*
G01*
X170617000Y-43290000D01*
X170617000Y-43438000D01*
X170616000Y-43439732D01*
X170615000Y-43440000D01*
X169013000Y-43440000D01*
X169011268Y-43439000D01*
X169011000Y-43438000D01*
X169011000Y-43290000D01*
X169012000Y-43288268D01*
X169013000Y-43288000D01*
X170615000Y-43288000D01*
X170616732Y-43289000D01*
G37*
G36*
X195429732Y-41026806D02*
G01*
X195430732Y-41028538D01*
X195430464Y-41029538D01*
X195343951Y-41179382D01*
X195304619Y-41247507D01*
X195276946Y-41295438D01*
X195110758Y-41583284D01*
X195048568Y-41691000D01*
X195042014Y-41702352D01*
X195041596Y-41703076D01*
X195018275Y-41743469D01*
X194990467Y-41791634D01*
X194884093Y-41975879D01*
X194883786Y-41976411D01*
X194862768Y-42012815D01*
X194849400Y-42035969D01*
X194848982Y-42036693D01*
X194834267Y-42062180D01*
X194808866Y-42106176D01*
X194740301Y-42224934D01*
X194734147Y-42235593D01*
X194733729Y-42236317D01*
X194732564Y-42238335D01*
X194634199Y-42408708D01*
X194633781Y-42409432D01*
X194626127Y-42422689D01*
X194604865Y-42459516D01*
X194584011Y-42495636D01*
X194532291Y-42585218D01*
X194531873Y-42585942D01*
X194501240Y-42639000D01*
X194484574Y-42667866D01*
X194479463Y-42676719D01*
X194476731Y-42677451D01*
X192569742Y-41576450D01*
X192568742Y-41574718D01*
X192568938Y-41573986D01*
X192573475Y-41573986D01*
X194476999Y-42672986D01*
X194481110Y-42665866D01*
X194497776Y-42637000D01*
X194528409Y-42583942D01*
X194528827Y-42583218D01*
X194580547Y-42493636D01*
X194601401Y-42457516D01*
X194622663Y-42420689D01*
X194630317Y-42407432D01*
X194630735Y-42406708D01*
X194729100Y-42236335D01*
X194730265Y-42234317D01*
X194730683Y-42233593D01*
X194736837Y-42222934D01*
X194805402Y-42104176D01*
X194830803Y-42060180D01*
X194845518Y-42034693D01*
X194845936Y-42033969D01*
X194859304Y-42010815D01*
X194880322Y-41974411D01*
X194880629Y-41973879D01*
X194987003Y-41789634D01*
X195014811Y-41741469D01*
X195038132Y-41701076D01*
X195038550Y-41700352D01*
X195045104Y-41689000D01*
X195107294Y-41581284D01*
X195273482Y-41293438D01*
X195301155Y-41245507D01*
X195340487Y-41177382D01*
X195425999Y-41029270D01*
X193522475Y-39930270D01*
X193513261Y-39946229D01*
X193505395Y-39959853D01*
X193505230Y-39960139D01*
X193472306Y-40017165D01*
X193469433Y-40022141D01*
X193440617Y-40072052D01*
X193434562Y-40082539D01*
X193411080Y-40123211D01*
X193401600Y-40139631D01*
X193401182Y-40140355D01*
X193348549Y-40231518D01*
X193344607Y-40238346D01*
X193311132Y-40296326D01*
X193305560Y-40305977D01*
X193224316Y-40446696D01*
X193209224Y-40472836D01*
X193208773Y-40473617D01*
X193115834Y-40634592D01*
X193114046Y-40637689D01*
X193109276Y-40645951D01*
X193108757Y-40646850D01*
X193042551Y-40761522D01*
X193041402Y-40763512D01*
X193023719Y-40794140D01*
X192994023Y-40845575D01*
X192993605Y-40846299D01*
X192992333Y-40848502D01*
X192929754Y-40956892D01*
X192916345Y-40980117D01*
X192862062Y-41074138D01*
X192857916Y-41081319D01*
X192801409Y-41179192D01*
X192762301Y-41246929D01*
X192706257Y-41344000D01*
X192573475Y-41573986D01*
X192568938Y-41573986D01*
X192569010Y-41573718D01*
X192702793Y-41342000D01*
X192758837Y-41244929D01*
X192797945Y-41177192D01*
X192854452Y-41079319D01*
X192858598Y-41072138D01*
X192912881Y-40978117D01*
X192926290Y-40954892D01*
X192988869Y-40846502D01*
X192990141Y-40844299D01*
X192990559Y-40843575D01*
X193020255Y-40792140D01*
X193037938Y-40761512D01*
X193039087Y-40759522D01*
X193105293Y-40644850D01*
X193105812Y-40643951D01*
X193110582Y-40635689D01*
X193112370Y-40632592D01*
X193205309Y-40471617D01*
X193205760Y-40470836D01*
X193220852Y-40444696D01*
X193302096Y-40303977D01*
X193307668Y-40294326D01*
X193341143Y-40236346D01*
X193345085Y-40229518D01*
X193397718Y-40138355D01*
X193398136Y-40137631D01*
X193407616Y-40121211D01*
X193431098Y-40080539D01*
X193437153Y-40070052D01*
X193465969Y-40020141D01*
X193468842Y-40015165D01*
X193501766Y-39958139D01*
X193501931Y-39957853D01*
X193509797Y-39944229D01*
X193520011Y-39926537D01*
X193522743Y-39925805D01*
X195429732Y-41026806D01*
G37*
G36*
X182016732Y-42489000D02*
G01*
X182017000Y-42490000D01*
X182017000Y-42638000D01*
X182016000Y-42639732D01*
X182015000Y-42640000D01*
X180413000Y-42640000D01*
X180411268Y-42639000D01*
X180411000Y-42638000D01*
X180411000Y-42490000D01*
X180412000Y-42488268D01*
X180413000Y-42488000D01*
X182015000Y-42488000D01*
X182016732Y-42489000D01*
G37*
G36*
X170616732Y-42489000D02*
G01*
X170617000Y-42490000D01*
X170617000Y-42638000D01*
X170616000Y-42639732D01*
X170615000Y-42640000D01*
X169013000Y-42640000D01*
X169011268Y-42639000D01*
X169011000Y-42638000D01*
X169011000Y-42490000D01*
X169012000Y-42488268D01*
X169013000Y-42488000D01*
X170615000Y-42488000D01*
X170616732Y-42489000D01*
G37*
G36*
X182016732Y-41689000D02*
G01*
X182017000Y-41690000D01*
X182017000Y-41838000D01*
X182016000Y-41839732D01*
X182015000Y-41840000D01*
X180413000Y-41840000D01*
X180411268Y-41839000D01*
X180411000Y-41838000D01*
X180411000Y-41690000D01*
X180412000Y-41688268D01*
X180413000Y-41688000D01*
X182015000Y-41688000D01*
X182016732Y-41689000D01*
G37*
G36*
X170616732Y-41689000D02*
G01*
X170617000Y-41690000D01*
X170617000Y-41838000D01*
X170616000Y-41839732D01*
X170615000Y-41840000D01*
X169013000Y-41840000D01*
X169011268Y-41839000D01*
X169011000Y-41838000D01*
X169011000Y-41690000D01*
X169012000Y-41688268D01*
X169013000Y-41688000D01*
X170615000Y-41688000D01*
X170616732Y-41689000D01*
G37*
G36*
X192918258Y-39576806D02*
G01*
X192919258Y-39578538D01*
X192918990Y-39579538D01*
X192783565Y-39814100D01*
X192759762Y-39855328D01*
X192759344Y-39856052D01*
X192698997Y-39960576D01*
X192505185Y-40296268D01*
X192499310Y-40306444D01*
X192434309Y-40419029D01*
X192403210Y-40472894D01*
X192402442Y-40474224D01*
X192402024Y-40474948D01*
X192399911Y-40478608D01*
X192314018Y-40627379D01*
X192302878Y-40646674D01*
X192281844Y-40683106D01*
X192236223Y-40762124D01*
X192230831Y-40771463D01*
X192218008Y-40793673D01*
X192186319Y-40848560D01*
X192185569Y-40849859D01*
X192160154Y-40893879D01*
X192145364Y-40919496D01*
X192124191Y-40956169D01*
X192124190Y-40956170D01*
X192123994Y-40956509D01*
X192110017Y-40980719D01*
X192084616Y-41024715D01*
X192070444Y-41049261D01*
X192056115Y-41074080D01*
X192052353Y-41080596D01*
X192051666Y-41081786D01*
X192035097Y-41110484D01*
X192034790Y-41111016D01*
X191995736Y-41178659D01*
X191995011Y-41179915D01*
X191967989Y-41226719D01*
X191966257Y-41227719D01*
X191965257Y-41227451D01*
X190058268Y-40126450D01*
X190057268Y-40124718D01*
X190057464Y-40123986D01*
X190062001Y-40123986D01*
X191965525Y-41222986D01*
X191991547Y-41177915D01*
X191992272Y-41176659D01*
X192031326Y-41109016D01*
X192031633Y-41108484D01*
X192048202Y-41079786D01*
X192048889Y-41078596D01*
X192052651Y-41072080D01*
X192066980Y-41047261D01*
X192081152Y-41022715D01*
X192106553Y-40978719D01*
X192120531Y-40954508D01*
X192120532Y-40954507D01*
X192120728Y-40954168D01*
X192141900Y-40917496D01*
X192156690Y-40891879D01*
X192182105Y-40847859D01*
X192182855Y-40846560D01*
X192214544Y-40791673D01*
X192227367Y-40769463D01*
X192232759Y-40760124D01*
X192278380Y-40681106D01*
X192299414Y-40644674D01*
X192310554Y-40625379D01*
X192396447Y-40476608D01*
X192398560Y-40472948D01*
X192398978Y-40472224D01*
X192399746Y-40470894D01*
X192430845Y-40417029D01*
X192495846Y-40304444D01*
X192501721Y-40294268D01*
X192695533Y-39958576D01*
X192755880Y-39854052D01*
X192756298Y-39853328D01*
X192780101Y-39812100D01*
X192914525Y-39579270D01*
X191011001Y-38480270D01*
X190988048Y-38520025D01*
X190987271Y-38521371D01*
X190940164Y-38602963D01*
X190919358Y-38639000D01*
X190914749Y-38646983D01*
X190879847Y-38707435D01*
X190849759Y-38759549D01*
X190823176Y-38805592D01*
X190821061Y-38809255D01*
X190801001Y-38844000D01*
X190800646Y-38844615D01*
X190792522Y-38858686D01*
X190778768Y-38882509D01*
X190774839Y-38889314D01*
X190771753Y-38894659D01*
X190755982Y-38921975D01*
X190721113Y-38982370D01*
X190702195Y-39015137D01*
X190700407Y-39018234D01*
X190639180Y-39124282D01*
X190605106Y-39183300D01*
X190591925Y-39206130D01*
X190469901Y-39417482D01*
X190428816Y-39488643D01*
X190408588Y-39523679D01*
X190313660Y-39688099D01*
X190312973Y-39689289D01*
X190241135Y-39813716D01*
X190239896Y-39815862D01*
X190062001Y-40123986D01*
X190057464Y-40123986D01*
X190057536Y-40123718D01*
X190236432Y-39813862D01*
X190237671Y-39811716D01*
X190309509Y-39687289D01*
X190310196Y-39686099D01*
X190405124Y-39521679D01*
X190425352Y-39486643D01*
X190466437Y-39415482D01*
X190588461Y-39204130D01*
X190601642Y-39181300D01*
X190635716Y-39122282D01*
X190696943Y-39016234D01*
X190698731Y-39013137D01*
X190717649Y-38980370D01*
X190752518Y-38919975D01*
X190768289Y-38892659D01*
X190771375Y-38887314D01*
X190775304Y-38880509D01*
X190789058Y-38856686D01*
X190797182Y-38842615D01*
X190797537Y-38842000D01*
X190817597Y-38807255D01*
X190819712Y-38803592D01*
X190846295Y-38757549D01*
X190876383Y-38705435D01*
X190911285Y-38644983D01*
X190915894Y-38637000D01*
X190936700Y-38600963D01*
X190983807Y-38519371D01*
X190984584Y-38518025D01*
X191008537Y-38476537D01*
X191011269Y-38475805D01*
X192918258Y-39576806D01*
G37*
G36*
X182016732Y-40889000D02*
G01*
X182017000Y-40890000D01*
X182017000Y-41038000D01*
X182016000Y-41039732D01*
X182015000Y-41040000D01*
X180413000Y-41040000D01*
X180411268Y-41039000D01*
X180411000Y-41038000D01*
X180411000Y-40890000D01*
X180412000Y-40888268D01*
X180413000Y-40888000D01*
X182015000Y-40888000D01*
X182016732Y-40889000D01*
G37*
G36*
X170616732Y-40889000D02*
G01*
X170617000Y-40890000D01*
X170617000Y-41038000D01*
X170616000Y-41039732D01*
X170615000Y-41040000D01*
X169013000Y-41040000D01*
X169011268Y-41039000D01*
X169011000Y-41038000D01*
X169011000Y-40890000D01*
X169012000Y-40888268D01*
X169013000Y-40888000D01*
X170615000Y-40888000D01*
X170616732Y-40889000D01*
G37*
G36*
X196529732Y-39121550D02*
G01*
X196530732Y-39123282D01*
X196530464Y-39124282D01*
X196326194Y-39478087D01*
X196325776Y-39478811D01*
X196235252Y-39635603D01*
X196204526Y-39688822D01*
X196104981Y-39861239D01*
X196091546Y-39884509D01*
X196055912Y-39946229D01*
X196047881Y-39960139D01*
X196014957Y-40017165D01*
X195983268Y-40072052D01*
X195953833Y-40123035D01*
X195953314Y-40123934D01*
X195952284Y-40125718D01*
X195944029Y-40140016D01*
X195943611Y-40140740D01*
X195887258Y-40238346D01*
X195887157Y-40238522D01*
X195887156Y-40238523D01*
X195853366Y-40297049D01*
X195767369Y-40446000D01*
X195766967Y-40446696D01*
X195751875Y-40472836D01*
X195748765Y-40478223D01*
X195718975Y-40529821D01*
X195662752Y-40627202D01*
X195651927Y-40645951D01*
X195651408Y-40646850D01*
X195585202Y-40761522D01*
X195579463Y-40771463D01*
X195577731Y-40772463D01*
X195576731Y-40772195D01*
X193669742Y-39671194D01*
X193668742Y-39669462D01*
X193668938Y-39668730D01*
X193673475Y-39668730D01*
X195576999Y-40767730D01*
X195581738Y-40759522D01*
X195647944Y-40644850D01*
X195648463Y-40643951D01*
X195659288Y-40625202D01*
X195715511Y-40527821D01*
X195745301Y-40476223D01*
X195748411Y-40470836D01*
X195763503Y-40444696D01*
X195763905Y-40444000D01*
X195849902Y-40295049D01*
X195883692Y-40236523D01*
X195883793Y-40236347D01*
X195883794Y-40236346D01*
X195940147Y-40138740D01*
X195940565Y-40138016D01*
X195948820Y-40123718D01*
X195949850Y-40121934D01*
X195950369Y-40121035D01*
X195979804Y-40070052D01*
X196011493Y-40015165D01*
X196044417Y-39958139D01*
X196052448Y-39944229D01*
X196088082Y-39882509D01*
X196101517Y-39859239D01*
X196201062Y-39686822D01*
X196231788Y-39633603D01*
X196322312Y-39476811D01*
X196322730Y-39476087D01*
X196525999Y-39124014D01*
X194622475Y-38025014D01*
X194606872Y-38052039D01*
X194564284Y-38125803D01*
X194528858Y-38187163D01*
X194371549Y-38459630D01*
X194360633Y-38478537D01*
X194348833Y-38498975D01*
X194336680Y-38520025D01*
X194288448Y-38603565D01*
X194271601Y-38632745D01*
X194263047Y-38647561D01*
X194213221Y-38733862D01*
X194171538Y-38806059D01*
X194028317Y-39054125D01*
X193975595Y-39145442D01*
X193975430Y-39145727D01*
X193958759Y-39174602D01*
X193955673Y-39179947D01*
X193954072Y-39182720D01*
X193820368Y-39414302D01*
X193783208Y-39478665D01*
X193782790Y-39479389D01*
X193673475Y-39668730D01*
X193668938Y-39668730D01*
X193669010Y-39668462D01*
X193779326Y-39477390D01*
X193779744Y-39476666D01*
X193816904Y-39412303D01*
X193950608Y-39180721D01*
X193952209Y-39177948D01*
X193955295Y-39172603D01*
X193971966Y-39143728D01*
X193972131Y-39143442D01*
X194024853Y-39052125D01*
X194168074Y-38804059D01*
X194209757Y-38731862D01*
X194259583Y-38645561D01*
X194268137Y-38630745D01*
X194284984Y-38601565D01*
X194333216Y-38518025D01*
X194345369Y-38496975D01*
X194357169Y-38476537D01*
X194368085Y-38457630D01*
X194525394Y-38185163D01*
X194560820Y-38123803D01*
X194603408Y-38050039D01*
X194619297Y-38022518D01*
X194620011Y-38021281D01*
X194622743Y-38020549D01*
X196529732Y-39121550D01*
G37*
G36*
X170616732Y-40089000D02*
G01*
X170617000Y-40090000D01*
X170617000Y-40238000D01*
X170616000Y-40239732D01*
X170615000Y-40240000D01*
X169013000Y-40240000D01*
X169011268Y-40239000D01*
X169011000Y-40238000D01*
X169011000Y-40090000D01*
X169012000Y-40088268D01*
X169013000Y-40088000D01*
X170615000Y-40088000D01*
X170616732Y-40089000D01*
G37*
G36*
X182016732Y-40089000D02*
G01*
X182017000Y-40090000D01*
X182017000Y-40238000D01*
X182016000Y-40239732D01*
X182015000Y-40240000D01*
X180413000Y-40240000D01*
X180411268Y-40239000D01*
X180411000Y-40238000D01*
X180411000Y-40090000D01*
X180412000Y-40088268D01*
X180413000Y-40088000D01*
X182015000Y-40088000D01*
X182016732Y-40089000D01*
G37*
G36*
X170616732Y-39289000D02*
G01*
X170617000Y-39290000D01*
X170617000Y-39438000D01*
X170616000Y-39439732D01*
X170615000Y-39440000D01*
X169013000Y-39440000D01*
X169011268Y-39439000D01*
X169011000Y-39438000D01*
X169011000Y-39290000D01*
X169012000Y-39288268D01*
X169013000Y-39288000D01*
X170615000Y-39288000D01*
X170616732Y-39289000D01*
G37*
G36*
X182016732Y-39289000D02*
G01*
X182017000Y-39290000D01*
X182017000Y-39438000D01*
X182016000Y-39439732D01*
X182015000Y-39440000D01*
X180413000Y-39440000D01*
X180411268Y-39439000D01*
X180411000Y-39438000D01*
X180411000Y-39290000D01*
X180412000Y-39288268D01*
X180413000Y-39288000D01*
X182015000Y-39288000D01*
X182016732Y-39289000D01*
G37*
G36*
X194018258Y-37671550D02*
G01*
X194019258Y-37673282D01*
X194018990Y-37674282D01*
X193972869Y-37754165D01*
X193932354Y-37824339D01*
X193822453Y-38014693D01*
X193783121Y-38082818D01*
X193744673Y-38149412D01*
X193565670Y-38459454D01*
X193547457Y-38491000D01*
X193529700Y-38521756D01*
X193482815Y-38602963D01*
X193465654Y-38632687D01*
X193462009Y-38639000D01*
X193457400Y-38646983D01*
X193422498Y-38707435D01*
X193392410Y-38759549D01*
X193367009Y-38803545D01*
X193365827Y-38805592D01*
X193343297Y-38844615D01*
X193321419Y-38882509D01*
X193317183Y-38889846D01*
X193314182Y-38895044D01*
X193243058Y-39018234D01*
X193242837Y-39018618D01*
X193242836Y-39018619D01*
X193147757Y-39183300D01*
X193134742Y-39205843D01*
X193102818Y-39261137D01*
X193099840Y-39266295D01*
X193074425Y-39310315D01*
X193071029Y-39316197D01*
X193070928Y-39316373D01*
X193070927Y-39316374D01*
X193067989Y-39321463D01*
X193066257Y-39322463D01*
X193065257Y-39322195D01*
X191158268Y-38221194D01*
X191157268Y-38219462D01*
X191157464Y-38218730D01*
X191162001Y-38218730D01*
X193065525Y-39317730D01*
X193067463Y-39314374D01*
X193067564Y-39314198D01*
X193067565Y-39314197D01*
X193070961Y-39308315D01*
X193096376Y-39264295D01*
X193099354Y-39259137D01*
X193131278Y-39203843D01*
X193144293Y-39181300D01*
X193239372Y-39016619D01*
X193239593Y-39016235D01*
X193239594Y-39016234D01*
X193310718Y-38893044D01*
X193313719Y-38887846D01*
X193317955Y-38880509D01*
X193339833Y-38842615D01*
X193362363Y-38803592D01*
X193363545Y-38801545D01*
X193388946Y-38757549D01*
X193419034Y-38705435D01*
X193453936Y-38644983D01*
X193458545Y-38637000D01*
X193462190Y-38630687D01*
X193479351Y-38600963D01*
X193526236Y-38519756D01*
X193543993Y-38489000D01*
X193562206Y-38457454D01*
X193741209Y-38147412D01*
X193779657Y-38080818D01*
X193818989Y-38012693D01*
X193928890Y-37822339D01*
X193969405Y-37752165D01*
X194014525Y-37674014D01*
X192111001Y-36575014D01*
X192105519Y-36584509D01*
X192082002Y-36625241D01*
X192081901Y-36625417D01*
X192081900Y-36625418D01*
X192054146Y-36673489D01*
X192053925Y-36673873D01*
X192053924Y-36673874D01*
X192050111Y-36680478D01*
X192025393Y-36723291D01*
X192005172Y-36758315D01*
X191916911Y-36911187D01*
X191839582Y-37045125D01*
X191829020Y-37063419D01*
X191824796Y-37070735D01*
X191814167Y-37089145D01*
X191787102Y-37136023D01*
X191706793Y-37275122D01*
X191672384Y-37334720D01*
X191623229Y-37419859D01*
X191614678Y-37434670D01*
X191587259Y-37482161D01*
X191506196Y-37622566D01*
X191408256Y-37792203D01*
X191369808Y-37858797D01*
X191351868Y-37889870D01*
X191330476Y-37926922D01*
X191279224Y-38015693D01*
X191220575Y-38117276D01*
X191162001Y-38218730D01*
X191157464Y-38218730D01*
X191157536Y-38218462D01*
X191217111Y-38115276D01*
X191275760Y-38013693D01*
X191327012Y-37924922D01*
X191348404Y-37887870D01*
X191366344Y-37856797D01*
X191404792Y-37790203D01*
X191502732Y-37620566D01*
X191583795Y-37480161D01*
X191611214Y-37432670D01*
X191619765Y-37417859D01*
X191668920Y-37332720D01*
X191703329Y-37273122D01*
X191783638Y-37134023D01*
X191810703Y-37087145D01*
X191821332Y-37068735D01*
X191825556Y-37061419D01*
X191836118Y-37043125D01*
X191913447Y-36909187D01*
X192001708Y-36756315D01*
X192021929Y-36721291D01*
X192046647Y-36678478D01*
X192050460Y-36671874D01*
X192050681Y-36671490D01*
X192050682Y-36671489D01*
X192078436Y-36623418D01*
X192078537Y-36623242D01*
X192078538Y-36623241D01*
X192102055Y-36582509D01*
X192108537Y-36571281D01*
X192111269Y-36570549D01*
X194018258Y-37671550D01*
G37*
G36*
X170616732Y-38489000D02*
G01*
X170617000Y-38490000D01*
X170617000Y-38638000D01*
X170616000Y-38639732D01*
X170615000Y-38640000D01*
X169013000Y-38640000D01*
X169011268Y-38639000D01*
X169011000Y-38638000D01*
X169011000Y-38490000D01*
X169012000Y-38488268D01*
X169013000Y-38488000D01*
X170615000Y-38488000D01*
X170616732Y-38489000D01*
G37*
G36*
X182016732Y-38489000D02*
G01*
X182017000Y-38490000D01*
X182017000Y-38638000D01*
X182016000Y-38639732D01*
X182015000Y-38640000D01*
X180413000Y-38640000D01*
X180411268Y-38639000D01*
X180411000Y-38638000D01*
X180411000Y-38490000D01*
X180412000Y-38488268D01*
X180413000Y-38488000D01*
X182015000Y-38488000D01*
X182016732Y-38489000D01*
G37*
G36*
X179189732Y-35662000D02*
G01*
X179190000Y-35663000D01*
X179190000Y-37265000D01*
X179189000Y-37266732D01*
X179188000Y-37267000D01*
X179040000Y-37267000D01*
X179038268Y-37266000D01*
X179038000Y-37265000D01*
X179038000Y-35665000D01*
X178390000Y-35665000D01*
X178390000Y-37265000D01*
X178389000Y-37266732D01*
X178388000Y-37267000D01*
X178240000Y-37267000D01*
X178238268Y-37266000D01*
X178238000Y-37265000D01*
X178238000Y-35665000D01*
X177590000Y-35665000D01*
X177590000Y-37265000D01*
X177589000Y-37266732D01*
X177588000Y-37267000D01*
X177440000Y-37267000D01*
X177438268Y-37266000D01*
X177438000Y-37265000D01*
X177438000Y-35665000D01*
X176790000Y-35665000D01*
X176790000Y-37265000D01*
X176789000Y-37266732D01*
X176788000Y-37267000D01*
X176640000Y-37267000D01*
X176638268Y-37266000D01*
X176638000Y-37265000D01*
X176638000Y-35665000D01*
X175990000Y-35665000D01*
X175990000Y-37265000D01*
X175989000Y-37266732D01*
X175988000Y-37267000D01*
X175840000Y-37267000D01*
X175838268Y-37266000D01*
X175838000Y-37265000D01*
X175838000Y-35665000D01*
X175190000Y-35665000D01*
X175190000Y-37265000D01*
X175189000Y-37266732D01*
X175188000Y-37267000D01*
X175040000Y-37267000D01*
X175038268Y-37266000D01*
X175038000Y-37265000D01*
X175038000Y-35665000D01*
X174390000Y-35665000D01*
X174390000Y-37265000D01*
X174389000Y-37266732D01*
X174388000Y-37267000D01*
X174240000Y-37267000D01*
X174238268Y-37266000D01*
X174238000Y-37265000D01*
X174238000Y-35665000D01*
X173590000Y-35665000D01*
X173590000Y-37265000D01*
X173589000Y-37266732D01*
X173588000Y-37267000D01*
X173440000Y-37267000D01*
X173438268Y-37266000D01*
X173438000Y-37265000D01*
X173438000Y-35665000D01*
X172790000Y-35665000D01*
X172790000Y-37265000D01*
X172789000Y-37266732D01*
X172788000Y-37267000D01*
X172640000Y-37267000D01*
X172638268Y-37266000D01*
X172638000Y-37265000D01*
X172638000Y-35665000D01*
X171990000Y-35665000D01*
X171990000Y-37265000D01*
X171989000Y-37266732D01*
X171988000Y-37267000D01*
X171840000Y-37267000D01*
X171838268Y-37266000D01*
X171838000Y-37265000D01*
X171838000Y-35663000D01*
X171839000Y-35661268D01*
X171840000Y-35661000D01*
X179188000Y-35661000D01*
X179189732Y-35662000D01*
G37*
G36*
X174550732Y-30268000D02*
G01*
X174551000Y-30269000D01*
X174551000Y-31821000D01*
X174550000Y-31822732D01*
X174549000Y-31823000D01*
X174451000Y-31823000D01*
X174449268Y-31822000D01*
X174449000Y-31821000D01*
X174449000Y-30269000D01*
X174450000Y-30267268D01*
X174451000Y-30267000D01*
X174549000Y-30267000D01*
X174550732Y-30268000D01*
G37*
G36*
X172700732Y-30268000D02*
G01*
X172701000Y-30269000D01*
X172701000Y-31821000D01*
X172700000Y-31822732D01*
X172699000Y-31823000D01*
X172601000Y-31823000D01*
X172599268Y-31822000D01*
X172599000Y-31821000D01*
X172599000Y-30269000D01*
X172600000Y-30267268D01*
X172601000Y-30267000D01*
X172699000Y-30267000D01*
X172700732Y-30268000D01*
G37*
G36*
X173550732Y-30268000D02*
G01*
X173551000Y-30269000D01*
X173551000Y-31821000D01*
X173550000Y-31822732D01*
X173549000Y-31823000D01*
X173401000Y-31823000D01*
X173399268Y-31822000D01*
X173399000Y-31821000D01*
X173399000Y-30269000D01*
X173400000Y-30267268D01*
X173401000Y-30267000D01*
X173549000Y-30267000D01*
X173550732Y-30268000D01*
G37*
G36*
X174050732Y-30268000D02*
G01*
X174051000Y-30269000D01*
X174051000Y-31821000D01*
X174050000Y-31822732D01*
X174049000Y-31823000D01*
X173951000Y-31823000D01*
X173949268Y-31822000D01*
X173949000Y-31821000D01*
X173949000Y-30269000D01*
X173950000Y-30267268D01*
X173951000Y-30267000D01*
X174049000Y-30267000D01*
X174050732Y-30268000D01*
G37*
G36*
X175050732Y-30268000D02*
G01*
X175051000Y-30269000D01*
X175051000Y-31821000D01*
X175050000Y-31822732D01*
X175049000Y-31823000D01*
X174951000Y-31823000D01*
X174949268Y-31822000D01*
X174949000Y-31821000D01*
X174949000Y-30269000D01*
X174950000Y-30267268D01*
X174951000Y-30267000D01*
X175049000Y-30267000D01*
X175050732Y-30268000D01*
G37*
G36*
X177600732Y-30268000D02*
G01*
X177601000Y-30269000D01*
X177601000Y-31821000D01*
X177600000Y-31822732D01*
X177599000Y-31823000D01*
X177451000Y-31823000D01*
X177449268Y-31822000D01*
X177449000Y-31821000D01*
X177449000Y-30269000D01*
X177450000Y-30267268D01*
X177451000Y-30267000D01*
X177599000Y-30267000D01*
X177600732Y-30268000D01*
G37*
G36*
X177050732Y-30268000D02*
G01*
X177051000Y-30269000D01*
X177051000Y-31821000D01*
X177050000Y-31822732D01*
X177049000Y-31823000D01*
X176951000Y-31823000D01*
X176949268Y-31822000D01*
X176949000Y-31821000D01*
X176949000Y-30269000D01*
X176950000Y-30267268D01*
X176951000Y-30267000D01*
X177049000Y-30267000D01*
X177050732Y-30268000D01*
G37*
G36*
X176550732Y-30268000D02*
G01*
X176551000Y-30269000D01*
X176551000Y-31821000D01*
X176550000Y-31822732D01*
X176549000Y-31823000D01*
X176451000Y-31823000D01*
X176449268Y-31822000D01*
X176449000Y-31821000D01*
X176449000Y-30269000D01*
X176450000Y-30267268D01*
X176451000Y-30267000D01*
X176549000Y-30267000D01*
X176550732Y-30268000D01*
G37*
G36*
X178400732Y-30268000D02*
G01*
X178401000Y-30269000D01*
X178401000Y-31821000D01*
X178400000Y-31822732D01*
X178399000Y-31823000D01*
X178301000Y-31823000D01*
X178299268Y-31822000D01*
X178299000Y-31821000D01*
X178299000Y-30269000D01*
X178300000Y-30267268D01*
X178301000Y-30267000D01*
X178399000Y-30267000D01*
X178400732Y-30268000D01*
G37*
G36*
X176050732Y-30268000D02*
G01*
X176051000Y-30269000D01*
X176051000Y-31821000D01*
X176050000Y-31822732D01*
X176049000Y-31823000D01*
X175951000Y-31823000D01*
X175949268Y-31822000D01*
X175949000Y-31821000D01*
X175949000Y-30269000D01*
X175950000Y-30267268D01*
X175951000Y-30267000D01*
X176049000Y-30267000D01*
X176050732Y-30268000D01*
G37*
G36*
X175550732Y-30268000D02*
G01*
X175551000Y-30269000D01*
X175551000Y-31821000D01*
X175550000Y-31822732D01*
X175549000Y-31823000D01*
X175451000Y-31823000D01*
X175449268Y-31822000D01*
X175449000Y-31821000D01*
X175449000Y-30269000D01*
X175450000Y-30267268D01*
X175451000Y-30267000D01*
X175549000Y-30267000D01*
X175550732Y-30268000D01*
G37*
G36*
X168806732Y-30855000D02*
G01*
X168807000Y-30856000D01*
X168807000Y-31054000D01*
X168806000Y-31055732D01*
X168805000Y-31056000D01*
X167143000Y-31056000D01*
X167141268Y-31055000D01*
X167141000Y-31054000D01*
X167141000Y-30856000D01*
X167142000Y-30854268D01*
X167143000Y-30854000D01*
X168805000Y-30854000D01*
X168806732Y-30855000D01*
G37*
G36*
X166106732Y-30855000D02*
G01*
X166107000Y-30856000D01*
X166107000Y-31054000D01*
X166106000Y-31055732D01*
X166105000Y-31056000D01*
X164443000Y-31056000D01*
X164441268Y-31055000D01*
X164441000Y-31054000D01*
X164441000Y-30856000D01*
X164442000Y-30854268D01*
X164443000Y-30854000D01*
X166105000Y-30854000D01*
X166106732Y-30855000D01*
G37*
G36*
X179270166Y-30142375D02*
G01*
X179271001Y-30144001D01*
X179271001Y-30679906D01*
X179281558Y-30787100D01*
X179312800Y-30890090D01*
X179334592Y-30930859D01*
X179334526Y-30932858D01*
X179332763Y-30933801D01*
X179331165Y-30932913D01*
X179321071Y-30917806D01*
X179304024Y-30900758D01*
X179283976Y-30887364D01*
X179261702Y-30878137D01*
X179238052Y-30873433D01*
X179213946Y-30873433D01*
X179190296Y-30878137D01*
X179168022Y-30887364D01*
X179147975Y-30900758D01*
X179130927Y-30917805D01*
X179117533Y-30937853D01*
X179108306Y-30960127D01*
X179103593Y-30983823D01*
X179102998Y-30995928D01*
X179101914Y-30997609D01*
X179099916Y-30997511D01*
X179099000Y-30995830D01*
X179099000Y-30269000D01*
X179100000Y-30267268D01*
X179101000Y-30267000D01*
X179143908Y-30267000D01*
X179167993Y-30264628D01*
X179191068Y-30257628D01*
X179212332Y-30246263D01*
X179230969Y-30230968D01*
X179246264Y-30212331D01*
X179257629Y-30191067D01*
X179264629Y-30167992D01*
X179267011Y-30143805D01*
X179268176Y-30142179D01*
X179270166Y-30142375D01*
G37*
G36*
X171732990Y-30143805D02*
G01*
X171735372Y-30167992D01*
X171742372Y-30191067D01*
X171753737Y-30212331D01*
X171769032Y-30230968D01*
X171787669Y-30246263D01*
X171808933Y-30257628D01*
X171832008Y-30264628D01*
X171856093Y-30267000D01*
X171899000Y-30267000D01*
X171900732Y-30268000D01*
X171901000Y-30269000D01*
X171901000Y-30995830D01*
X171900000Y-30997562D01*
X171898000Y-30997562D01*
X171897010Y-30996026D01*
X171894628Y-30971841D01*
X171887628Y-30948766D01*
X171876263Y-30927502D01*
X171860968Y-30908865D01*
X171842331Y-30893570D01*
X171821067Y-30882205D01*
X171797992Y-30875205D01*
X171774001Y-30872842D01*
X171750010Y-30875205D01*
X171726935Y-30882205D01*
X171705671Y-30893570D01*
X171687070Y-30908835D01*
X171667810Y-30934806D01*
X171665975Y-30935602D01*
X171664369Y-30934411D01*
X171664440Y-30932672D01*
X171687201Y-30890090D01*
X171718443Y-30787100D01*
X171729000Y-30679906D01*
X171729000Y-30144001D01*
X171730000Y-30142269D01*
X171732000Y-30142269D01*
X171732990Y-30143805D01*
G37*
G36*
X166106732Y-29905000D02*
G01*
X166107000Y-29906000D01*
X166107000Y-30104000D01*
X166106000Y-30105732D01*
X166105000Y-30106000D01*
X164443000Y-30106000D01*
X164441268Y-30105000D01*
X164441000Y-30104000D01*
X164441000Y-29906000D01*
X164442000Y-29904268D01*
X164443000Y-29904000D01*
X166105000Y-29904000D01*
X166106732Y-29905000D01*
G37*
G36*
X168806732Y-29905000D02*
G01*
X168807000Y-29906000D01*
X168807000Y-30104000D01*
X168806000Y-30105732D01*
X168805000Y-30106000D01*
X167143000Y-30106000D01*
X167141268Y-30105000D01*
X167141000Y-30104000D01*
X167141000Y-29906000D01*
X167142000Y-29904268D01*
X167143000Y-29904000D01*
X168805000Y-29904000D01*
X168806732Y-29905000D01*
G37*
M02*
