G04 #@! TF.GenerationSoftware,KiCad,Pcbnew,(5.1.5)-3*
G04 #@! TF.CreationDate,2020-04-11T10:21:20+07:00*
G04 #@! TF.ProjectId,arisu,61726973-752e-46b6-9963-61645f706362,1.1*
G04 #@! TF.SameCoordinates,Original*
G04 #@! TF.FileFunction,Legend,Top*
G04 #@! TF.FilePolarity,Positive*
%FSLAX46Y46*%
G04 Gerber Fmt 4.6, Leading zero omitted, Abs format (unit mm)*
G04 Created by KiCad (PCBNEW (5.1.5)-3) date 2020-04-11 10:21:20*
%MOMM*%
%LPD*%
G04 APERTURE LIST*
%ADD10C,0.010000*%
%ADD11C,1.102000*%
%ADD12C,4.502000*%
%ADD13R,1.802000X1.802000*%
%ADD14C,2.302000*%
%ADD15C,4.102000*%
%ADD16C,1.802000*%
%ADD17C,3.152000*%
G04 APERTURE END LIST*
D10*
G36*
X278015690Y-113474821D02*
G01*
X281914600Y-113483792D01*
X282231967Y-113772478D01*
X282549335Y-114061164D01*
X282405208Y-114246107D01*
X282313405Y-114370479D01*
X282186981Y-114550323D01*
X282046663Y-114755910D01*
X281975265Y-114862851D01*
X281470164Y-115566094D01*
X280920223Y-116211282D01*
X280739149Y-116402199D01*
X280514942Y-116626113D01*
X280292309Y-116835915D01*
X280084937Y-117019900D01*
X279906513Y-117166362D01*
X279770726Y-117263595D01*
X279691264Y-117299893D01*
X279689462Y-117299912D01*
X279626068Y-117269072D01*
X279504772Y-117187160D01*
X279345630Y-117068252D01*
X279237108Y-116982412D01*
X279071163Y-116845761D01*
X278939628Y-116732433D01*
X278859637Y-116657481D01*
X278843408Y-116636594D01*
X278881084Y-116595460D01*
X278982205Y-116515421D01*
X279125323Y-116413392D01*
X279133230Y-116407994D01*
X279336920Y-116252008D01*
X279581849Y-116037970D01*
X279847033Y-115786912D01*
X280111490Y-115519863D01*
X280354236Y-115257853D01*
X280554288Y-115021912D01*
X280664928Y-114872875D01*
X280880619Y-114552700D01*
X277498692Y-114568075D01*
X274116765Y-114583451D01*
X274116772Y-114024651D01*
X274116780Y-113465851D01*
X278015690Y-113474821D01*
G37*
X278015690Y-113474821D02*
X281914600Y-113483792D01*
X282231967Y-113772478D01*
X282549335Y-114061164D01*
X282405208Y-114246107D01*
X282313405Y-114370479D01*
X282186981Y-114550323D01*
X282046663Y-114755910D01*
X281975265Y-114862851D01*
X281470164Y-115566094D01*
X280920223Y-116211282D01*
X280739149Y-116402199D01*
X280514942Y-116626113D01*
X280292309Y-116835915D01*
X280084937Y-117019900D01*
X279906513Y-117166362D01*
X279770726Y-117263595D01*
X279691264Y-117299893D01*
X279689462Y-117299912D01*
X279626068Y-117269072D01*
X279504772Y-117187160D01*
X279345630Y-117068252D01*
X279237108Y-116982412D01*
X279071163Y-116845761D01*
X278939628Y-116732433D01*
X278859637Y-116657481D01*
X278843408Y-116636594D01*
X278881084Y-116595460D01*
X278982205Y-116515421D01*
X279125323Y-116413392D01*
X279133230Y-116407994D01*
X279336920Y-116252008D01*
X279581849Y-116037970D01*
X279847033Y-115786912D01*
X280111490Y-115519863D01*
X280354236Y-115257853D01*
X280554288Y-115021912D01*
X280664928Y-114872875D01*
X280880619Y-114552700D01*
X277498692Y-114568075D01*
X274116765Y-114583451D01*
X274116772Y-114024651D01*
X274116780Y-113465851D01*
X278015690Y-113474821D01*
G36*
X285369000Y-118266451D02*
G01*
X284784800Y-118266452D01*
X284200600Y-118266454D01*
X284200600Y-113237254D01*
X284784800Y-113237252D01*
X285369000Y-113237251D01*
X285369000Y-118266451D01*
G37*
X285369000Y-118266451D02*
X284784800Y-118266452D01*
X284200600Y-118266454D01*
X284200600Y-113237254D01*
X284784800Y-113237252D01*
X285369000Y-113237251D01*
X285369000Y-118266451D01*
G36*
X298296701Y-113687331D02*
G01*
X298594365Y-113896131D01*
X298892030Y-114104931D01*
X298353515Y-115182494D01*
X298173070Y-115534133D01*
X297978295Y-115897539D01*
X297782782Y-116248446D01*
X297600123Y-116562584D01*
X297443912Y-116815687D01*
X297408604Y-116869554D01*
X297262784Y-117088934D01*
X297137956Y-117278026D01*
X297044605Y-117420849D01*
X296993216Y-117501420D01*
X296986824Y-117512491D01*
X297017362Y-117555656D01*
X297111320Y-117659758D01*
X297259212Y-117814973D01*
X297451554Y-118011476D01*
X297678859Y-118239441D01*
X297894183Y-118452291D01*
X298195504Y-118751701D01*
X298494819Y-119055451D01*
X298783588Y-119354295D01*
X299053270Y-119638988D01*
X299295322Y-119900288D01*
X299501204Y-120128949D01*
X299662375Y-120315726D01*
X299770294Y-120451377D01*
X299816419Y-120526655D01*
X299817456Y-120533924D01*
X299779165Y-120584391D01*
X299681178Y-120681940D01*
X299542792Y-120809753D01*
X299383303Y-120951014D01*
X299222008Y-121088909D01*
X299078202Y-121206620D01*
X298971182Y-121287331D01*
X298921809Y-121314451D01*
X298875627Y-121276983D01*
X298778829Y-121173958D01*
X298643908Y-121019444D01*
X298483355Y-120827510D01*
X298414382Y-120742951D01*
X298163492Y-120441587D01*
X297876760Y-120111147D01*
X297570984Y-119769856D01*
X297262960Y-119435942D01*
X296969485Y-119127631D01*
X296707357Y-118863149D01*
X296505885Y-118671997D01*
X296212770Y-118406801D01*
X295616885Y-118984948D01*
X294948975Y-119588319D01*
X294236375Y-120149588D01*
X293502562Y-120651760D01*
X292771010Y-121077838D01*
X292613987Y-121159028D01*
X292319584Y-121307642D01*
X291904992Y-120890885D01*
X291741622Y-120724216D01*
X291608577Y-120583824D01*
X291520127Y-120485093D01*
X291490400Y-120444057D01*
X291533469Y-120412234D01*
X291652038Y-120344752D01*
X291830150Y-120250203D01*
X292051846Y-120137181D01*
X292163500Y-120081634D01*
X292953912Y-119647014D01*
X293724004Y-119137500D01*
X294457269Y-118566876D01*
X295137205Y-117948925D01*
X295747307Y-117297429D01*
X296227506Y-116687584D01*
X296353779Y-116499772D01*
X296497729Y-116266939D01*
X296650166Y-116006164D01*
X296801904Y-115734524D01*
X296943752Y-115469097D01*
X297066521Y-115226963D01*
X297161024Y-115025200D01*
X297218072Y-114880886D01*
X297230800Y-114822838D01*
X297221044Y-114804924D01*
X297186179Y-114790390D01*
X297117809Y-114779064D01*
X297007535Y-114770775D01*
X296846962Y-114765353D01*
X296627691Y-114762626D01*
X296341326Y-114762423D01*
X295979470Y-114764575D01*
X295533726Y-114768909D01*
X294995696Y-114775255D01*
X294932100Y-114776049D01*
X294454788Y-114782754D01*
X294005988Y-114790448D01*
X293596491Y-114798848D01*
X293237088Y-114807666D01*
X292938569Y-114816620D01*
X292711726Y-114825423D01*
X292567349Y-114833791D01*
X292519100Y-114839778D01*
X292470725Y-114851619D01*
X292438385Y-114841336D01*
X292418851Y-114792887D01*
X292408896Y-114690236D01*
X292405290Y-114517342D01*
X292404807Y-114271875D01*
X292404815Y-113669051D01*
X298296701Y-113687331D01*
G37*
X298296701Y-113687331D02*
X298594365Y-113896131D01*
X298892030Y-114104931D01*
X298353515Y-115182494D01*
X298173070Y-115534133D01*
X297978295Y-115897539D01*
X297782782Y-116248446D01*
X297600123Y-116562584D01*
X297443912Y-116815687D01*
X297408604Y-116869554D01*
X297262784Y-117088934D01*
X297137956Y-117278026D01*
X297044605Y-117420849D01*
X296993216Y-117501420D01*
X296986824Y-117512491D01*
X297017362Y-117555656D01*
X297111320Y-117659758D01*
X297259212Y-117814973D01*
X297451554Y-118011476D01*
X297678859Y-118239441D01*
X297894183Y-118452291D01*
X298195504Y-118751701D01*
X298494819Y-119055451D01*
X298783588Y-119354295D01*
X299053270Y-119638988D01*
X299295322Y-119900288D01*
X299501204Y-120128949D01*
X299662375Y-120315726D01*
X299770294Y-120451377D01*
X299816419Y-120526655D01*
X299817456Y-120533924D01*
X299779165Y-120584391D01*
X299681178Y-120681940D01*
X299542792Y-120809753D01*
X299383303Y-120951014D01*
X299222008Y-121088909D01*
X299078202Y-121206620D01*
X298971182Y-121287331D01*
X298921809Y-121314451D01*
X298875627Y-121276983D01*
X298778829Y-121173958D01*
X298643908Y-121019444D01*
X298483355Y-120827510D01*
X298414382Y-120742951D01*
X298163492Y-120441587D01*
X297876760Y-120111147D01*
X297570984Y-119769856D01*
X297262960Y-119435942D01*
X296969485Y-119127631D01*
X296707357Y-118863149D01*
X296505885Y-118671997D01*
X296212770Y-118406801D01*
X295616885Y-118984948D01*
X294948975Y-119588319D01*
X294236375Y-120149588D01*
X293502562Y-120651760D01*
X292771010Y-121077838D01*
X292613987Y-121159028D01*
X292319584Y-121307642D01*
X291904992Y-120890885D01*
X291741622Y-120724216D01*
X291608577Y-120583824D01*
X291520127Y-120485093D01*
X291490400Y-120444057D01*
X291533469Y-120412234D01*
X291652038Y-120344752D01*
X291830150Y-120250203D01*
X292051846Y-120137181D01*
X292163500Y-120081634D01*
X292953912Y-119647014D01*
X293724004Y-119137500D01*
X294457269Y-118566876D01*
X295137205Y-117948925D01*
X295747307Y-117297429D01*
X296227506Y-116687584D01*
X296353779Y-116499772D01*
X296497729Y-116266939D01*
X296650166Y-116006164D01*
X296801904Y-115734524D01*
X296943752Y-115469097D01*
X297066521Y-115226963D01*
X297161024Y-115025200D01*
X297218072Y-114880886D01*
X297230800Y-114822838D01*
X297221044Y-114804924D01*
X297186179Y-114790390D01*
X297117809Y-114779064D01*
X297007535Y-114770775D01*
X296846962Y-114765353D01*
X296627691Y-114762626D01*
X296341326Y-114762423D01*
X295979470Y-114764575D01*
X295533726Y-114768909D01*
X294995696Y-114775255D01*
X294932100Y-114776049D01*
X294454788Y-114782754D01*
X294005988Y-114790448D01*
X293596491Y-114798848D01*
X293237088Y-114807666D01*
X292938569Y-114816620D01*
X292711726Y-114825423D01*
X292567349Y-114833791D01*
X292519100Y-114839778D01*
X292470725Y-114851619D01*
X292438385Y-114841336D01*
X292418851Y-114792887D01*
X292408896Y-114690236D01*
X292405290Y-114517342D01*
X292404807Y-114271875D01*
X292404815Y-113669051D01*
X298296701Y-113687331D01*
G36*
X278418169Y-116323351D02*
G01*
X278385804Y-116956990D01*
X278335766Y-117506323D01*
X278264720Y-117987626D01*
X278169327Y-118417177D01*
X278046251Y-118811253D01*
X277892156Y-119186131D01*
X277787201Y-119401279D01*
X277544365Y-119796267D01*
X277227811Y-120193611D01*
X276861302Y-120567032D01*
X276468602Y-120890249D01*
X276391476Y-120944858D01*
X276203526Y-121069428D01*
X276008273Y-121190849D01*
X275827051Y-121296785D01*
X275681194Y-121374897D01*
X275592034Y-121412849D01*
X275579323Y-121414540D01*
X275536573Y-121383868D01*
X275430900Y-121301403D01*
X275278079Y-121179611D01*
X275093883Y-121030961D01*
X275088418Y-121026526D01*
X274612236Y-120640023D01*
X274973567Y-120472658D01*
X275483798Y-120196916D01*
X275943466Y-119869695D01*
X276339036Y-119503136D01*
X276656972Y-119109383D01*
X276837950Y-118800233D01*
X276960065Y-118536147D01*
X277054856Y-118289635D01*
X277125654Y-118041682D01*
X277175792Y-117773270D01*
X277208604Y-117465383D01*
X277227420Y-117099005D01*
X277235573Y-116655119D01*
X277236349Y-116526704D01*
X277241000Y-115421957D01*
X277845892Y-115421804D01*
X278450785Y-115421651D01*
X278418169Y-116323351D01*
G37*
X278418169Y-116323351D02*
X278385804Y-116956990D01*
X278335766Y-117506323D01*
X278264720Y-117987626D01*
X278169327Y-118417177D01*
X278046251Y-118811253D01*
X277892156Y-119186131D01*
X277787201Y-119401279D01*
X277544365Y-119796267D01*
X277227811Y-120193611D01*
X276861302Y-120567032D01*
X276468602Y-120890249D01*
X276391476Y-120944858D01*
X276203526Y-121069428D01*
X276008273Y-121190849D01*
X275827051Y-121296785D01*
X275681194Y-121374897D01*
X275592034Y-121412849D01*
X275579323Y-121414540D01*
X275536573Y-121383868D01*
X275430900Y-121301403D01*
X275278079Y-121179611D01*
X275093883Y-121030961D01*
X275088418Y-121026526D01*
X274612236Y-120640023D01*
X274973567Y-120472658D01*
X275483798Y-120196916D01*
X275943466Y-119869695D01*
X276339036Y-119503136D01*
X276656972Y-119109383D01*
X276837950Y-118800233D01*
X276960065Y-118536147D01*
X277054856Y-118289635D01*
X277125654Y-118041682D01*
X277175792Y-117773270D01*
X277208604Y-117465383D01*
X277227420Y-117099005D01*
X277235573Y-116655119D01*
X277236349Y-116526704D01*
X277241000Y-115421957D01*
X277845892Y-115421804D01*
X278450785Y-115421651D01*
X278418169Y-116323351D01*
G36*
X290066873Y-114342151D02*
G01*
X290061469Y-115156259D01*
X290046417Y-115876421D01*
X290021036Y-116509895D01*
X289984647Y-117063938D01*
X289936569Y-117545807D01*
X289876121Y-117962760D01*
X289802625Y-118322055D01*
X289715399Y-118630949D01*
X289647481Y-118816939D01*
X289370698Y-119367599D01*
X289004724Y-119873907D01*
X288553494Y-120332137D01*
X288020940Y-120738567D01*
X287410997Y-121089470D01*
X287091493Y-121237258D01*
X286839750Y-121345468D01*
X286658891Y-121413151D01*
X286524630Y-121435352D01*
X286412684Y-121407118D01*
X286298767Y-121323493D01*
X286158594Y-121179525D01*
X286010458Y-121016725D01*
X285593390Y-120559883D01*
X286022427Y-120429018D01*
X286429986Y-120283210D01*
X286845926Y-120096299D01*
X287237228Y-119885027D01*
X287570873Y-119666134D01*
X287655000Y-119601312D01*
X287909867Y-119366146D01*
X288157653Y-119084612D01*
X288376076Y-118785783D01*
X288542855Y-118498731D01*
X288600164Y-118368051D01*
X288663696Y-118195416D01*
X288716494Y-118035896D01*
X288759551Y-117878130D01*
X288793865Y-117710759D01*
X288820431Y-117522423D01*
X288840246Y-117301763D01*
X288854304Y-117037417D01*
X288863601Y-116718028D01*
X288869134Y-116332234D01*
X288871899Y-115868677D01*
X288872890Y-115315995D01*
X288872930Y-115256555D01*
X288874200Y-113135660D01*
X289471100Y-113135655D01*
X290068000Y-113135651D01*
X290066873Y-114342151D01*
G37*
X290066873Y-114342151D02*
X290061469Y-115156259D01*
X290046417Y-115876421D01*
X290021036Y-116509895D01*
X289984647Y-117063938D01*
X289936569Y-117545807D01*
X289876121Y-117962760D01*
X289802625Y-118322055D01*
X289715399Y-118630949D01*
X289647481Y-118816939D01*
X289370698Y-119367599D01*
X289004724Y-119873907D01*
X288553494Y-120332137D01*
X288020940Y-120738567D01*
X287410997Y-121089470D01*
X287091493Y-121237258D01*
X286839750Y-121345468D01*
X286658891Y-121413151D01*
X286524630Y-121435352D01*
X286412684Y-121407118D01*
X286298767Y-121323493D01*
X286158594Y-121179525D01*
X286010458Y-121016725D01*
X285593390Y-120559883D01*
X286022427Y-120429018D01*
X286429986Y-120283210D01*
X286845926Y-120096299D01*
X287237228Y-119885027D01*
X287570873Y-119666134D01*
X287655000Y-119601312D01*
X287909867Y-119366146D01*
X288157653Y-119084612D01*
X288376076Y-118785783D01*
X288542855Y-118498731D01*
X288600164Y-118368051D01*
X288663696Y-118195416D01*
X288716494Y-118035896D01*
X288759551Y-117878130D01*
X288793865Y-117710759D01*
X288820431Y-117522423D01*
X288840246Y-117301763D01*
X288854304Y-117037417D01*
X288863601Y-116718028D01*
X288869134Y-116332234D01*
X288871899Y-115868677D01*
X288872890Y-115315995D01*
X288872930Y-115256555D01*
X288874200Y-113135660D01*
X289471100Y-113135655D01*
X290068000Y-113135651D01*
X290066873Y-114342151D01*
%LPC*%
D11*
X177714000Y-28448000D03*
X173314000Y-28448000D03*
D12*
X241060266Y-120608720D03*
X345449949Y-110157503D03*
D13*
X220726000Y-26416000D03*
X218186000Y-26416000D03*
X215646000Y-26416000D03*
X213106000Y-26416000D03*
X210566000Y-26416000D03*
X208026000Y-26416000D03*
X141224000Y-26416000D03*
X138684000Y-26416000D03*
X136144000Y-26416000D03*
X133604000Y-26416000D03*
D14*
X49880000Y-33640000D03*
X43530000Y-36180000D03*
D15*
X47340000Y-38720000D03*
D16*
X42260000Y-38720000D03*
X52420000Y-38720000D03*
X53020000Y-57770000D03*
X42860000Y-57770000D03*
D15*
X47940000Y-57770000D03*
D14*
X44130000Y-55230000D03*
X50480000Y-52690000D03*
D16*
X51336250Y-76820000D03*
X41176250Y-76820000D03*
D15*
X46256250Y-76820000D03*
D14*
X42446250Y-74280000D03*
X48796250Y-71740000D03*
D17*
X58743750Y-88870000D03*
X34943750Y-88870000D03*
D15*
X34943750Y-104110000D03*
X58743750Y-104110000D03*
D16*
X51923750Y-95870000D03*
X41763750Y-95870000D03*
D15*
X46843750Y-95870000D03*
D14*
X43033750Y-93330000D03*
X49383750Y-90790000D03*
D16*
X44790000Y-114920000D03*
X34630000Y-114920000D03*
D15*
X39710000Y-114920000D03*
D14*
X35900000Y-112380000D03*
X42250000Y-109840000D03*
X68930000Y-33640000D03*
X62580000Y-36180000D03*
D15*
X66390000Y-38720000D03*
D16*
X61310000Y-38720000D03*
X71470000Y-38720000D03*
D14*
X74290000Y-52690000D03*
X67940000Y-55230000D03*
D15*
X71750000Y-57770000D03*
D16*
X66670000Y-57770000D03*
X76830000Y-57770000D03*
D14*
X74990000Y-71740000D03*
X68640000Y-74280000D03*
D15*
X72450000Y-76820000D03*
D16*
X67370000Y-76820000D03*
X77530000Y-76820000D03*
D14*
X80340000Y-90790000D03*
X73990000Y-93330000D03*
D15*
X77800000Y-95870000D03*
D16*
X72720000Y-95870000D03*
X82880000Y-95870000D03*
D14*
X87980000Y-32139615D03*
X81630000Y-34679615D03*
D15*
X85440000Y-37219615D03*
D16*
X80360000Y-37219615D03*
X90520000Y-37219615D03*
D14*
X95793034Y-53652945D03*
X89053701Y-54817200D03*
D15*
X92252348Y-58093839D03*
D16*
X87283358Y-57037647D03*
X97221338Y-59150030D03*
D14*
X96490701Y-73276838D03*
X89751368Y-74441093D03*
D15*
X92950015Y-77717732D03*
D16*
X87981025Y-76661540D03*
X97919005Y-78773923D03*
D14*
X101846783Y-93890907D03*
X95107450Y-95055162D03*
D15*
X98306097Y-98331801D03*
D16*
X93337107Y-97275609D03*
X103275087Y-99387992D03*
X103972788Y-119011881D03*
X94034808Y-116899498D03*
D15*
X99003798Y-117955689D03*
D14*
X95805151Y-114679051D03*
X102544484Y-113514795D03*
X109070692Y-36999602D03*
X102331359Y-38163857D03*
D15*
X105530006Y-41440496D03*
D16*
X100561016Y-40384304D03*
X110498996Y-42496687D03*
D14*
X114426744Y-57613671D03*
X107687411Y-58777926D03*
D15*
X110886058Y-62054565D03*
D16*
X105917068Y-60998373D03*
X115855048Y-63110756D03*
D14*
X115124411Y-77237565D03*
X108385078Y-78401820D03*
D15*
X111583725Y-81678459D03*
D16*
X106614735Y-80622267D03*
X116552715Y-82734650D03*
D14*
X120480493Y-97851633D03*
X113741160Y-99015888D03*
D15*
X116939807Y-102292527D03*
D16*
X111970817Y-101236335D03*
X121908797Y-103348718D03*
D14*
X127704403Y-40960320D03*
X120965070Y-42124575D03*
D15*
X124163717Y-45401214D03*
D16*
X119194727Y-44345022D03*
X129132707Y-46457405D03*
D14*
X133060454Y-61574398D03*
X126321121Y-62738653D03*
D15*
X129519768Y-66015292D03*
D16*
X124550778Y-64959100D03*
X134488758Y-67071483D03*
D14*
X133758121Y-81198292D03*
X127018788Y-82362547D03*
D15*
X130217435Y-85639186D03*
D16*
X125248445Y-84582994D03*
X135186425Y-86695377D03*
D14*
X139114202Y-101812360D03*
X132374869Y-102976615D03*
D15*
X135573516Y-106253254D03*
D16*
X130604526Y-105197062D03*
X140542506Y-107309445D03*
D17*
X141797364Y-134208124D03*
X118517451Y-129259826D03*
D15*
X121686025Y-114352856D03*
X144965938Y-119301154D03*
D16*
X136581779Y-125943133D03*
X126643799Y-123830750D03*
D15*
X131612789Y-124886942D03*
D14*
X128414142Y-121610303D03*
X135153475Y-120446047D03*
X146338115Y-44921038D03*
X139598782Y-46085293D03*
D15*
X142797429Y-49361932D03*
D16*
X137828439Y-48305740D03*
X147766419Y-50418123D03*
D14*
X151694164Y-65535125D03*
X144954831Y-66699380D03*
D15*
X148153478Y-69976019D03*
D16*
X143184488Y-68919827D03*
X153122468Y-71032210D03*
D14*
X152391831Y-85159019D03*
X145652498Y-86323274D03*
D15*
X148851145Y-89599913D03*
D16*
X143882155Y-88543721D03*
X153820135Y-90656104D03*
D14*
X157747912Y-105773087D03*
X151008579Y-106937342D03*
D15*
X154207226Y-110213981D03*
D16*
X149238236Y-109157789D03*
X159176216Y-111270172D03*
D14*
X163104049Y-126387116D03*
X156364716Y-127551371D03*
D15*
X159563363Y-130828010D03*
D16*
X154594373Y-129771818D03*
X164532353Y-131884201D03*
D14*
X164971827Y-48881755D03*
X158232494Y-50046010D03*
D15*
X161431141Y-53322649D03*
D16*
X156462151Y-52266457D03*
X166400131Y-54378840D03*
D14*
X185660941Y-68438939D03*
X179977800Y-72243673D03*
D15*
X184232638Y-73936024D03*
D16*
X179263648Y-74992215D03*
X189201628Y-72879833D03*
D14*
X194280062Y-86082491D03*
X188596921Y-89887225D03*
D15*
X192851759Y-91579576D03*
D16*
X187882769Y-92635767D03*
X197820749Y-90523385D03*
D14*
X202899183Y-103726043D03*
X197216042Y-107530777D03*
D15*
X201470880Y-109223128D03*
D16*
X196501890Y-110279319D03*
X206439870Y-108166937D03*
D14*
X191017168Y-47824840D03*
X185334027Y-51629574D03*
D15*
X189588865Y-53321925D03*
D16*
X184619875Y-54378116D03*
X194557855Y-52265734D03*
D14*
X204294652Y-64478221D03*
X198611511Y-68282955D03*
D15*
X202866349Y-69975306D03*
D16*
X197897359Y-71031497D03*
X207835339Y-68919115D03*
D14*
X212913773Y-82121773D03*
X207230632Y-85926507D03*
D15*
X211485470Y-87618858D03*
D16*
X206516480Y-88675049D03*
X216454460Y-86562667D03*
D14*
X221532895Y-99765325D03*
X215849754Y-103570059D03*
D15*
X220104592Y-105262410D03*
D16*
X215135602Y-106318601D03*
X225073582Y-104206219D03*
D17*
X225514604Y-130744422D03*
X202234691Y-135692720D03*
D15*
X199066117Y-120785751D03*
X222346030Y-115837453D03*
D16*
X217388255Y-125315347D03*
X207450276Y-127427729D03*
D15*
X212419266Y-126371538D03*
D14*
X208164428Y-124679187D03*
X213847569Y-120874453D03*
X209650880Y-43864122D03*
X203967739Y-47668856D03*
D15*
X208222577Y-49361207D03*
D16*
X203253587Y-50417398D03*
X213191567Y-48305016D03*
D14*
X222928364Y-60517504D03*
X217245223Y-64322238D03*
D15*
X221500061Y-66014589D03*
D16*
X216531071Y-67070780D03*
X226469051Y-64958398D03*
D14*
X231547485Y-78161056D03*
X225864344Y-81965790D03*
D15*
X230119182Y-83658141D03*
D16*
X225150192Y-84714332D03*
X235088172Y-82601950D03*
D14*
X240166606Y-95804608D03*
X234483465Y-99609342D03*
D15*
X238738303Y-101301693D03*
D16*
X233769313Y-102357884D03*
X243707293Y-100245502D03*
D14*
X228284592Y-39903405D03*
X222601451Y-43708139D03*
D15*
X226856289Y-45400490D03*
D16*
X221887299Y-46456681D03*
X231825279Y-44344299D03*
D14*
X241562076Y-56556786D03*
X235878935Y-60361520D03*
D15*
X240133773Y-62053871D03*
D16*
X235164783Y-63110062D03*
X245102763Y-60997680D03*
D14*
X250181197Y-74200338D03*
X244498056Y-78005072D03*
D15*
X248752894Y-79697423D03*
D16*
X243783904Y-80753614D03*
X253721884Y-78641232D03*
D14*
X258800318Y-91843890D03*
X253117177Y-95648624D03*
D15*
X257372015Y-97340975D03*
D16*
X252403025Y-98397166D03*
X262341005Y-96284784D03*
X256984892Y-116898834D03*
X247046912Y-119011217D03*
D15*
X252015902Y-117955026D03*
D14*
X247761064Y-116262674D03*
X253444205Y-112457940D03*
X246918303Y-35942687D03*
X241235162Y-39747421D03*
D15*
X245490000Y-41439772D03*
D16*
X240521010Y-42495963D03*
X250458990Y-40383581D03*
D14*
X260195788Y-52596068D03*
X254512647Y-56400802D03*
D15*
X258767485Y-58093153D03*
D16*
X253798495Y-59149344D03*
X263736475Y-57036962D03*
D14*
X271790000Y-71740000D03*
X265440000Y-74280000D03*
D15*
X269250000Y-76820000D03*
D16*
X264170000Y-76820000D03*
X274330000Y-76820000D03*
D14*
X281315019Y-90789998D03*
X274965019Y-93329998D03*
D15*
X278775019Y-95869998D03*
D16*
X273695019Y-95869998D03*
X283855019Y-95869998D03*
D14*
X268110000Y-32139615D03*
X261760000Y-34679615D03*
D15*
X265570000Y-37219615D03*
D16*
X260490000Y-37219615D03*
X270650000Y-37219615D03*
D14*
X281800000Y-52690000D03*
X275450000Y-55230000D03*
D15*
X279260000Y-57770000D03*
D16*
X274180000Y-57770000D03*
X284340000Y-57770000D03*
D14*
X290840000Y-71740000D03*
X284490000Y-74280000D03*
D15*
X288300000Y-76820000D03*
D16*
X283220000Y-76820000D03*
X293380000Y-76820000D03*
X310048769Y-95869998D03*
X299888769Y-95869998D03*
D15*
X304968769Y-95869998D03*
D14*
X301158769Y-93329998D03*
X307508769Y-90789998D03*
X287160000Y-33640000D03*
X280810000Y-36180000D03*
D15*
X284620000Y-38720000D03*
D16*
X279540000Y-38720000D03*
X289700000Y-38720000D03*
D14*
X300850000Y-52690000D03*
X294500000Y-55230000D03*
D15*
X298310000Y-57770000D03*
D16*
X293230000Y-57770000D03*
X303390000Y-57770000D03*
D17*
X331156250Y-83820000D03*
X307356250Y-83820000D03*
D15*
X307356250Y-68580000D03*
X331156250Y-68580000D03*
D16*
X324336250Y-76820000D03*
X314176250Y-76820000D03*
D15*
X319256250Y-76820000D03*
D14*
X315446250Y-74280000D03*
X321796250Y-71740000D03*
X319414949Y-114602503D03*
X313064949Y-117142503D03*
D15*
X316874949Y-119682503D03*
D16*
X311794949Y-119682503D03*
X321954949Y-119682503D03*
D14*
X306210000Y-33640000D03*
X299860000Y-36180000D03*
D15*
X303670000Y-38720000D03*
D16*
X298590000Y-38720000D03*
X308750000Y-38720000D03*
X327210000Y-57770000D03*
X317050000Y-57770000D03*
D15*
X322130000Y-57770000D03*
D14*
X318320000Y-55230000D03*
X324670000Y-52690000D03*
X338464949Y-95552503D03*
X332114949Y-98092503D03*
D15*
X335924949Y-100632503D03*
D16*
X330844949Y-100632503D03*
X341004949Y-100632503D03*
D14*
X338464949Y-114602503D03*
X332114949Y-117142503D03*
D15*
X335924949Y-119682503D03*
D16*
X330844949Y-119682503D03*
X341004949Y-119682503D03*
D14*
X325260000Y-33640000D03*
X318910000Y-36180000D03*
D15*
X322720000Y-38720000D03*
D16*
X317640000Y-38720000D03*
X327800000Y-38720000D03*
D14*
X349072542Y-28877509D03*
X342722542Y-31417509D03*
D15*
X346532542Y-33957509D03*
D16*
X341452542Y-33957509D03*
X351612542Y-33957509D03*
D14*
X353245000Y-47927516D03*
X346895000Y-50467516D03*
D15*
X350705000Y-53007516D03*
D16*
X345625000Y-53007516D03*
X355785000Y-53007516D03*
D14*
X357514949Y-66977519D03*
X351164949Y-69517519D03*
D15*
X354974949Y-72057519D03*
D16*
X349894949Y-72057519D03*
X360054949Y-72057519D03*
D14*
X357514949Y-114602503D03*
X351164949Y-117142503D03*
D15*
X354974949Y-119682503D03*
D16*
X349894949Y-119682503D03*
X360054949Y-119682503D03*
D13*
X151384000Y-26416000D03*
X146304000Y-26416000D03*
X148844000Y-26416000D03*
X143764000Y-26416000D03*
D12*
X56865000Y-48245000D03*
X51197500Y-114920000D03*
X121827220Y-27932509D03*
X109959436Y-120609368D03*
X229192785Y-27932509D03*
X341180000Y-43482516D03*
M02*
